<?xml version="1.0" encoding="UTF-8" standalone="no"?>
<svg
   xmlns:dc="http://purl.org/dc/elements/1.1/"
   xmlns:cc="http://creativecommons.org/ns#"
   xmlns:rdf="http://www.w3.org/1999/02/22-rdf-syntax-ns#"
   xmlns:svg="http://www.w3.org/2000/svg"
   xmlns="http://www.w3.org/2000/svg"
   xmlns:sodipodi="http://sodipodi.sourceforge.net/DTD/sodipodi-0.dtd"
   xmlns:inkscape="http://www.inkscape.org/namespaces/inkscape"
   width="210mm"
   height="297mm"
   viewBox="0 0 210 297"
   version="1.1"
   id="svg4000"
   inkscape:version="1.0.1 (3bc2e813f5, 2020-09-07)"
   sodipodi:docname="Joschua.svg">
  <defs
     id="defs3994" />
  <sodipodi:namedview
     id="base"
     pagecolor="#ffffff"
     bordercolor="#666666"
     borderopacity="1.0"
     inkscape:pageopacity="0.0"
     inkscape:pageshadow="2"
     inkscape:zoom="0.49497475"
     inkscape:cx="598.59185"
     inkscape:cy="455.62415"
     inkscape:document-units="mm"
     inkscape:current-layer="layer1"
     inkscape:document-rotation="0"
     showgrid="false"
     inkscape:window-width="1920"
     inkscape:window-height="1017"
     inkscape:window-x="1912"
     inkscape:window-y="-8"
     inkscape:window-maximized="1"
     inkscape:snap-nodes="true"
     showguides="true"
     inkscape:guide-bbox="true" />
  <metadata
     id="metadata3997">
    <rdf:RDF>
      <cc:Work
         rdf:about="">
        <dc:format>image/svg+xml</dc:format>
        <dc:type
           rdf:resource="http://purl.org/dc/dcmitype/StillImage" />
        <dc:title></dc:title>
      </cc:Work>
    </rdf:RDF>
  </metadata>
  <g
     inkscape:label="Layer 1"
     inkscape:groupmode="layer"
     id="layer1">
    <g
       id="g5042"
       transform="matrix(0.87981383,0,0,0.87981383,11.043328,23.865835)">
      <path
         style="fill:#e9c6af;fill-opacity:1;stroke:#000000;stroke-width:0.264583px;stroke-linecap:butt;stroke-linejoin:miter;stroke-opacity:1"
         d="m 139.24742,200.58578 c 4.16364,4.65172 13.37091,11.93948 15.10072,11.35895 6.44375,-1.20898 5.03689,-5.53618 4.39444,-8.05723 -2.25448,-7.28702 -6.43425,-15.94787 -13.21433,-19.33789 z"
         id="path4778"
         sodipodi:nodetypes="ccccc" />
      <path
         style="fill:#373748;stroke:#000000;stroke-width:0.264583px;stroke-linecap:butt;stroke-linejoin:miter;stroke-opacity:1"
         d="m 132.38623,241.61165 c 5.6476,11.68693 11.30847,32.93809 8.97693,39.87649 -1.5051,4.47647 -7.29479,6.04802 -10.96131,1.7009 -8.6924,-10.13224 -12.56301,-28.9851 -15.30803,-40.34895 z"
         id="path4780-9"
         sodipodi:nodetypes="ccccc" />
      <path
         style="fill:#373748;stroke:#000000;stroke-width:0.264583px;stroke-linecap:butt;stroke-linejoin:miter;stroke-opacity:1"
         d="m 94.145795,243.55009 c -5.05384,11.90959 -8.98069,26.53496 -9.16592,38.55357 1.59423,6.44698 12.13722,4.38749 14.93006,-1.03941 4.648845,-12.25506 6.869055,-25.34348 9.921865,-38.08111 z"
         id="path4780"
         sodipodi:nodetypes="ccccc" />
      <path
         style="fill:#e9c6af;fill-opacity:1;stroke:#000000;stroke-width:0.264583px;stroke-linecap:butt;stroke-linejoin:miter;stroke-opacity:1"
         d="m 77.374525,184.95051 c -6.64591,5.33213 -11.17091,10.95647 -15.50163,18.17433 -2.35919,4.71139 3.64579,7.97339 7.48355,7.75081 9.23539,-1.15646 16.54121,-7.36684 22.58427,-14.16528 z"
         id="path4776"
         sodipodi:nodetypes="ccccc" />
      <path
         style="fill:#28170b;stroke:#000000;stroke-width:0.264583px;stroke-linecap:butt;stroke-linejoin:miter;stroke-opacity:1"
         d="m 101.96332,179.20422 c -10.942405,-2.65423 -15.239165,-1.4581 -24.455155,4.27631 -0.21806,9.24188 5.49841,11.46786 12.41133,15.41811 0.90309,-2.18692 1.11554,-3.34313 2.15486,-5.26187 -7.80105,16.1183 -5.0561,33.87485 1.60361,50.24667 l 39.154985,-1.46997 c 5.98131,-17.36472 3.39584,-34.31995 -2.80633,-51.18213 3.09234,3.33179 6.48677,6.35955 9.35443,9.88898 6.28409,-6.23502 7.10623,-8.90703 7.93981,-17.24282 -4.9881,-4.77117 -7.28524,-4.54087 -13.76438,-5.74629 z"
         id="path4742"
         sodipodi:nodetypes="ccccccccccc" />
      <path
         style="fill:#e9c6af;fill-opacity:1;stroke:#000000;stroke-width:0.264583px;stroke-linecap:butt;stroke-linejoin:miter;stroke-opacity:1"
         d="m 102.00581,179.10161 9.39022,14.36517 13.1401,-15.02245 z"
         id="path4774"
         sodipodi:nodetypes="cccc" />
      <path
         style="fill:#e9c6af;fill-opacity:1;stroke:#000000;stroke-width:0.264583px;stroke-linecap:butt;stroke-linejoin:miter;stroke-opacity:1"
         d="m 33.29163,101.14757 c -3.97506,-3.71995 -7.437442,-3.35316 -8.504465,0.37798 -0.462029,15.1319 11.310514,28.12351 19.843749,39.6875"
         id="path4579"
         sodipodi:nodetypes="ccc" />
      <path
         style="fill:none;stroke:#000000;stroke-width:0.264583px;stroke-linecap:butt;stroke-linejoin:miter;stroke-opacity:1"
         d="m 105.67406,180.94779 c 0.94882,2.87303 3.53649,4.74116 5.81139,6.61458 2.5149,-1.65162 4.24115,-3.9753 5.76413,-6.33109 l -0.33072,-1.03944 -11.19755,-0.42522 z"
         id="path4867"
         sodipodi:nodetypes="cccccc" />
      <circle
         style="opacity:1;fill:#e9c6af;stroke:#000000;stroke-width:0.264;stroke-linecap:round;stroke-linejoin:round;stroke-miterlimit:4;stroke-dasharray:none"
         id="path4577"
         cx="113.61157"
         cy="101.14758"
         r="80.131706" />
      <path
         style="fill:#e9c6af;fill-opacity:1;stroke:#000000;stroke-width:0.264583px;stroke-linecap:butt;stroke-linejoin:miter;stroke-opacity:1"
         d="m 193.2404,107.76215 c 4.71465,-4.95471 8.16459,-7.70972 11.54728,-4.3143 6.6143,16.65665 -9.261,28.65844 -21.13031,35.68633"
         id="path4581"
         sodipodi:nodetypes="ccc" />
      <path
         style="fill:#000000;stroke:#000000;stroke-width:0.264583px;stroke-linecap:butt;stroke-linejoin:miter;stroke-opacity:1"
         d="m 87.153235,94.2495 c 1.4487,2.92717 0.94669,5.55597 0.66146,8.69346 -8.78666,-7.53584 -26.25407,-4.63704 -28.72619,-7.37054 z"
         id="path4583"
         sodipodi:nodetypes="cccc" />
      <path
         style="fill:#000000;stroke:#000000;stroke-width:0.264583px;stroke-linecap:butt;stroke-linejoin:miter;stroke-opacity:1"
         d="m 107.20013,94.92578 c -1.71528,3.93593 -0.88656,4.09391 -0.28349,8.31548 7.36924,-7.25236 26.06508,-5.01501 28.34821,-6.99256 z"
         id="path4583-4"
         sodipodi:nodetypes="cccc" />
      <circle
         style="opacity:1;fill:#b7c4c8;fill-opacity:1;stroke:none;stroke-width:0.0649999;stroke-linecap:round;stroke-linejoin:round"
         id="path4600"
         cx="124.66739"
         cy="115.79414"
         r="7.6540179" />
      <circle
         style="opacity:1;fill:#b7c4c8;stroke:none;stroke-width:0.0649999;stroke-linecap:round;stroke-linejoin:round"
         id="path4600-2"
         cx="74.11306"
         cy="111.7309"
         r="7.6540179" />
      <path
         style="fill:none;stroke:#000000;stroke-width:0.264583px;stroke-linecap:butt;stroke-linejoin:miter;stroke-opacity:1"
         d="m 94.429275,112.77034 c -3.37958,9.79242 -10.53838,31.9097 -4.81919,31.93899 1.13699,0.32326 1.69142,-1.17424 2.42586,-0.7174 2.03497,1.2658 4.93233,2.16376 8.534455,-0.20839"
         id="path4617"
         sodipodi:nodetypes="ccsc" />
      <path
         style="opacity:1;fill:#ffa991;fill-opacity:1;stroke:#000000;stroke-width:0.264583px;stroke-linecap:butt;stroke-linejoin:miter;stroke-opacity:1"
         d="m 80.727645,158.69444 c 5.08148,2.34523 13.07375,1.47809 18.43027,1.47809 3.847095,3.14605 5.329835,1.88171 8.171595,0.21667 7.89723,1.91182 16.11724,0.98534 22.62952,-3.77362 -8.55645,17.97987 -35.910405,11.523 -49.231385,2.07886 z"
         id="path4619"
         sodipodi:nodetypes="ccccc" />
      <path
         style="fill:none;stroke:#000000;stroke-width:0.765;stroke-linecap:round;stroke-linejoin:miter;stroke-miterlimit:4;stroke-dasharray:none;stroke-opacity:1"
         d="m 130.57325,151.98537 c 3.48859,2.1852 1.33643,5.868 -0.0472,8.88244"
         id="path4623"
         sodipodi:nodetypes="cc" />
      <path
         style="fill:none;stroke:#000000;stroke-width:0.264583px;stroke-linecap:butt;stroke-linejoin:miter;stroke-opacity:1"
         d="m 101.59461,164.48299 c 5.01725,1.69647 13.88474,0.25622 14.33206,-0.59137"
         id="path4647"
         sodipodi:nodetypes="cc" />
      <path
         style="fill:#fff6d5;stroke:#000000;stroke-width:0.264583px;stroke-linecap:butt;stroke-linejoin:miter;stroke-opacity:1"
         d="m 34.057871,93.6511 c 1.429063,-1.3714 2.765985,-2.84715 4.028341,-4.40023 0.199854,-0.24588 -0.02019,-1.48748 -0.02019,-1.48748 0,0 1.123326,0.0893 1.37344,-0.24262 5.392349,-7.15514 9.431823,-15.649287 13.673053,-23.09093 0.20281,-0.355845 -1.6284,-2.496625 -1.6284,-2.496625 0,0 2.57462,0.860677 2.74348,0.575589 0.17612,-0.297345 -0.70595,-1.286393 -0.70595,-1.286393 0,0 1.43904,0.06688 1.54085,-0.09897 3.09888,-5.04819 6.42106,-9.374188 10.53318,-12.106346 8.51597,4.450872 17.36587,7.548378 26.42394,9.797425 0.53467,0.132755 2.31487,-5.705366 2.31487,-5.705366 l 0.41689,6.357014 1.75661,-4.761645 c 0,0 1.73953,5.522587 2.0663,5.589397 6.956685,1.422352 14.016235,2.424354 21.123405,3.227853 0.36121,0.04084 1.08398,-2.572081 1.08398,-2.572081 0,0 0.51838,2.749962 0.77765,2.77804 0.9839,0.106554 1.96862,0.209683 2.95402,0.309973 0.28846,0.02936 1.36164,-8.464351 1.36164,-8.464351 0,0 -0.0595,8.59528 0.15889,8.61688 7.38944,0.730855 14.81242,1.319208 22.20742,2.011955 0.34164,0.032 1.19009,-1.285272 1.19009,-1.285272 l 0.91335,1.485422 0.62839,-3.48753 c 0,0 0.48527,3.59627 0.63339,3.61091 11.82256,1.168836 23.54954,2.701255 34.92862,5.610194 4.03357,9.755797 4.9356,18.551687 6.28083,28.865107 C 196.63599,40.31727 148.6661,20.743825 111.34371,18.748767 55.677045,22.731837 34.724411,63.062918 34.057868,93.6511 Z"
         id="path4649"
         sodipodi:nodetypes="cscsscscscscccsscsscsscccscccc" />
      <path
         style="fill:#fff6d5;fill-opacity:1;stroke:#000000;stroke-width:0.264583px;stroke-linecap:butt;stroke-linejoin:miter;stroke-opacity:1"
         d="M 101.98498,30.34807 C 114.1361,4.9975347 146.39466,1.7106297 160.07719,15.562163 c -17.082,-7.9214103 -39.68944,-0.260667 -40.53022,10.369556 6.11505,-10.211259 16.86789,-11.362827 25.30912,-11.210658 -7.87485,2.216616 -16.3344,5.521651 -19.70342,13.158112 23.84777,-13.133426 31.37068,-15.420825 41.4918,-2.815113 -8.36184,-4.850981 -22.82252,1.108923 -27.91427,12.278758 l -18.40398,9.441401 z"
         id="path4703-9-6"
         sodipodi:nodetypes="ccccccccc" />
      <path
         style="fill:#fff6d5;stroke:#000000;stroke-width:0.264583px;stroke-linecap:butt;stroke-linejoin:miter;stroke-opacity:1"
         d="m 65.595675,49.017095 c -3.63115,-13.217017 13.8718,-29.739122 21.68007,-35.873123 -8.22297,8.61942 -14.13411,18.213945 -15.80852,29.795269 2.30382,-14.795656 15.71816,-22.522378 28.659705,-26.582471 -7.560905,5.518652 -15.490975,13.346382 -18.643335,21.857766 4.73049,-11.16932 15.49954,-20.063984 25.824875,-24.692588 -5.83264,5.880172 -12.304165,14.757437 -13.729635,23.180685 2.73869,-11.259438 12.726355,-19.441783 22.312385,-23.799068 -4.13916,4.848078 -3.95806,4.036575 -4.53571,10.583333 2.88848,-5.736318 5.72913,-7.047537 11.3022,-9.214839 -3.16166,7.70822 -9.83875,15.672381 -9.6217,23.92062"
         id="path4651"
         sodipodi:nodetypes="ccccccccccc" />
      <path
         style="fill:#fff6d5;fill-opacity:1;stroke:#000000;stroke-width:0.264583px;stroke-linecap:butt;stroke-linejoin:miter;stroke-opacity:1"
         d="m 133.49901,32.838827 c 18.92094,-22.36034 43.98762,-21.835598 53.10294,0.476183 -14.08955,-12.491111 -31.15573,-9.607511 -35.01231,0.334086 8.78867,-8.026395 19.41958,-6.043138 27.46194,-3.474501 -8.17972,-0.136959 -17.23195,0.600875 -22.65109,6.949005 19.6388,-5.96155 34.36763,6.102173 41.42678,21.114295 -6.61762,-7.046947 -23.05334,-17.390078 -31.1369,-8.151722 z"
         id="path4703-9"
         sodipodi:nodetypes="cccccccc" />
      <path
         style="fill:#fff6d5;stroke:#000000;stroke-width:0.264583px;stroke-linecap:butt;stroke-linejoin:miter;stroke-opacity:1"
         d="m 104.88429,44.206243 c 5.5582,-16.726129 11.76105,-25.688037 26.45968,-31.404168 -3.14312,4.709883 -5.95455,8.524836 -7.08264,14.165286 6.69362,-9.947083 19.09622,-12.937871 33.14142,-13.363477 -18.82544,6.566074 -29.91082,15.879 -36.88319,32.874151 C 132.87353,25.196592 172.26747,11.32345 187.5924,38.90834 167.5645,16.558823 144.05221,33.316091 138.82752,51.689792"
         id="path4653"
         sodipodi:nodetypes="ccccccc" />
      <path
         style="fill:#6c5353;stroke:none;stroke-width:0.264583px;stroke-linecap:butt;stroke-linejoin:miter;stroke-opacity:1"
         d="m 167.65719,68.414053 c -0.70288,-3.680336 -0.8691,-3.19728 2.09091,-7.554417 -1.74842,4.210204 -1.55255,3.296966 -0.18458,7.400864 -0.0399,-1.002657 0.0342,-1.954678 -0.26728,-3.073598 0.91405,1.017003 0.97349,2.17554 1.20272,3.474503 0.61796,-2.294665 0.69077,-4.18592 0.13363,-6.414468 2.01386,1.899807 1.51289,2.615392 1.15546,6.765117 z"
         id="path4671"
         sodipodi:nodetypes="cccccccc" />
      <path
         style="fill:#6c5353;stroke:none;stroke-width:0.264583px;stroke-linecap:butt;stroke-linejoin:miter;stroke-opacity:1"
         d="m 124.85636,46.813495 c 1.48943,-6.72393 4.84696,-9.132505 8.86982,-13.444677 -3.47154,4.703155 -3.25156,4.623036 -3.95613,9.570423 0.90942,-2.134846 2.36666,-3.860875 3.77976,-5.669643 -0.63037,1.387393 -1.13305,2.833301 -1.88988,4.157737 1.29284,-2.112876 2.74805,-4.072327 4.34673,-5.953125 -1.32135,1.79732 -1.97282,3.772256 -2.64584,5.858631 z"
         id="path4669"
         sodipodi:nodetypes="cccccccc" />
      <path
         style="fill:#fff6d5;fill-opacity:1;stroke:#000000;stroke-width:0.264583px;stroke-linecap:butt;stroke-linejoin:miter;stroke-opacity:1"
         d="m 157.5513,49.364835 c 18.92094,-22.36034 39.0451,-11.567834 57.04713,8.204885 -13.8317,-12.471275 -30.66747,-13.789726 -40.09043,-4.276312 8.78867,-8.026395 19.41958,-6.043138 27.46194,-3.474502 -8.17972,-0.136959 -17.23195,0.600875 -22.65109,6.949005 19.6388,-5.961549 34.36763,6.102173 41.42678,21.114299 -6.61762,-7.04695 -23.05334,-17.390082 -31.1369,-8.151727 z"
         id="path4703"
         sodipodi:nodetypes="cccccccc" />
      <path
         style="fill:#fff6d5;stroke:#000000;stroke-width:0.264583px;stroke-linecap:butt;stroke-linejoin:miter;stroke-opacity:1"
         d="m 121.58864,49.418 c 29.58561,-24.632778 55.77564,-26.854102 77.37452,-0.935442 -9.98758,-7.822532 -20.61305,-10.045267 -32.87415,-11.358957 20.58247,2.031924 31.23978,9.884107 36.8832,27.127859 -11.45838,-15.468782 -28.86014,-24.739164 -45.42091,-14.886625 14.55445,-7.960888 27.16,0.137534 35.34077,8.126489 -9.85018,-6.166727 -18.12776,-13.157661 -27.11979,-4.157739 22.43597,-10.444272 40.51454,20.127906 43.46726,34.584815 -6.30007,-13.939966 -23.01238,-29.201382 -30.99405,-22.678566"
         id="path4655"
         sodipodi:nodetypes="ccccccccc" />
      <path
         style="fill:#fff6d5;stroke:#000000;stroke-width:0.264583px;stroke-linecap:butt;stroke-linejoin:miter;stroke-opacity:1"
         d="m 130.86877,64.334849 c 13.55017,-15.652926 34.67284,10.524376 41.51809,19.803791 -0.49635,-15.162116 -9.66408,-23.24586 -21.54464,-30.994042 23.40269,7.972049 41.21959,33.367212 46.20759,54.050592 C 201.58456,86.08545 191.5511,62.775095 174.508,53.293408"
         id="path4657"
         sodipodi:nodetypes="ccccc" />
      <path
         style="fill:#6c5353;stroke:none;stroke-width:0.264583px;stroke-linecap:butt;stroke-linejoin:miter;stroke-opacity:1"
         d="m 66.450445,49.454089 c -1.14827,-5.001253 -0.0139,-6.9424 1.33151,-11.806515 -0.65719,3.429341 -0.64324,7.411186 0.33073,8.315476 0.8646,-0.72491 0.56404,-1.782723 0.61421,-2.740327 0.71426,1.952876 0.68435,3.905753 0.66146,5.858629 0.65904,-3.67089 1.34127,-4.681471 3.49628,-7.465028 -1.13717,2.268742 -1.39269,4.711664 -1.79539,7.181546 0.78736,-4.404646 3.68997,-11.010274 7.98475,-15.260789 -3.50184,5.799895 -5.73189,12.192107 -6.09773,18.960141 -2.29247,-0.950451 -4.47825,-1.959098 -6.52582,-3.043133 z"
         id="path4659"
         sodipodi:nodetypes="cccccccccc" />
      <path
         style="fill:#6c5353;fill-opacity:1;stroke:none;stroke-width:0.264583px;stroke-linecap:butt;stroke-linejoin:miter;stroke-opacity:1"
         d="m 79.168495,54.939984 c -1.15249,-7.797952 0.99558,-11.647795 5.62239,-17.575893 -3.60325,7.303433 -3.14206,10.543317 -1.5119,18.331844 -0.12082,-5.796084 0.32313,-8.507204 3.21279,-12.756694 -2.13338,4.446987 -1.49909,8.206521 -0.75595,12.85119 -0.10132,-2.079266 0.20544,-3.923613 0.85045,-5.858631 -0.20832,1.861621 0.11102,3.721238 0.28348,5.575149 1.2489,-3.045934 1.63411,-6.034847 1.79539,-9.260417 0.9373,3.679092 0.20427,7.844393 -0.96856,11.36291 -2.7351,-0.510826 -5.42248,-1.65424 -8.52809,-2.669458 z"
         id="path4661"
         sodipodi:nodetypes="cccccccccc" />
      <path
         style="fill:#6c5353;stroke:none;stroke-width:0.264583px;stroke-linecap:butt;stroke-linejoin:miter;stroke-opacity:1"
         d="m 106.93966,61.821837 c -4.19078,-10.562606 0.46678,-20.320718 4.68753,-28.143013 -2.63135,11.746999 -3.76815,18.95004 0.18899,28.348212 -0.55893,-4.695285 -1.79189,-7.512827 -0.85045,-11.90625 0.67234,4.342454 1.9876,8.794738 3.49628,12.284229 -0.85323,-2.362704 -0.80503,-4.551754 -0.66146,-6.992562 0.21343,2.295839 1.12973,4.317469 1.98438,6.425596 1.44885,-3.665556 1.32292,-7.55911 1.32292,-11.43378 0.98129,4.131903 1.35056,8.659641 0.98981,12.868386 -4.0198,-0.198501 -7.92349,-1.026868 -11.158,-1.450818 z"
         id="path4663"
         sodipodi:nodetypes="cccccccccc" />
      <path
         style="fill:#6c5353;stroke:none;stroke-width:0.264583px;stroke-linecap:butt;stroke-linejoin:miter;stroke-opacity:1"
         d="m 132.91865,64.716187 c 2.16456,-4.718527 7.44839,-4.507595 11.78146,-4.012068 -3.79038,0.782554 -8.21329,0.09392 -9.44941,3.685271 0.64609,-1.005821 1.46963,-1.517106 2.46881,-2.095084 -0.84684,0.734129 -1.33488,1.118543 -1.33488,2.189577 0.28839,-0.796629 0.64093,-1.080071 1.01799,-1.167339 -0.22168,0.849607 0.0501,1.240757 0.2052,1.839197"
         id="path4665"
         sodipodi:nodetypes="ccccccc" />
      <path
         style="fill:none;stroke:#000000;stroke-width:0.264583px;stroke-linecap:butt;stroke-linejoin:miter;stroke-opacity:1"
         d="m 111.35551,23.486897 c -7.51191,7.181487 -7.57978,14.225649 -8.87665,24.060216 l -0.26726,5.87993 v 0 -0.133635"
         id="path4673"
         sodipodi:nodetypes="ccccc" />
      <path
         style="fill:none;stroke:#000000;stroke-width:0.264583px;stroke-linecap:butt;stroke-linejoin:miter;stroke-opacity:1"
         d="m 93.578835,36.702633 c -0.64163,2.54553 -1.25941,5.120879 -0.8553,8.973592"
         id="path4675"
         sodipodi:nodetypes="cc" />
      <path
         style="fill:none;stroke:#000000;stroke-width:0.264583px;stroke-linecap:butt;stroke-linejoin:miter;stroke-opacity:1"
         d="M 110.87124,16.717141 C 103.32572,22.934202 99.877505,31.434015 98.681515,41.002112"
         id="path4677"
         sodipodi:nodetypes="cc" />
      <path
         style="fill:none;stroke:#000000;stroke-width:0.065;stroke-linecap:butt;stroke-linejoin:miter;stroke-miterlimit:4;stroke-dasharray:none;stroke-opacity:1"
         d="m 119.98991,17.142366 c -4.85696,2.430669 -5.12758,4.449475 -7.843,9.118674"
         id="path4679"
         sodipodi:nodetypes="cc" />
      <path
         style="fill:none;stroke:#6c5353;stroke-width:0.264583px;stroke-linecap:butt;stroke-linejoin:miter;stroke-opacity:1"
         d="m 128.13674,56.500642 c 5.6779,-15.369079 20.52431,-21.663288 35.81411,-23.386084"
         id="path4681"
         sodipodi:nodetypes="cc" />
      <path
         style="fill:none;stroke:#000000;stroke-width:0.065;stroke-linecap:butt;stroke-linejoin:miter;stroke-miterlimit:4;stroke-dasharray:none;stroke-opacity:1"
         d="m 151.12192,43.538069 c 7.34576,-6.277876 13.13769,-11.18593 22.95177,-7.617179"
         id="path4683"
         sodipodi:nodetypes="cc" />
      <path
         style="fill:none;stroke:#000000;stroke-width:0.264583px;stroke-linecap:butt;stroke-linejoin:miter;stroke-opacity:1"
         d="m 149.58512,49.952538 c 7.98227,-6.649379 15.78228,-9.554883 25.85832,-7.61718"
         id="path4685"
         sodipodi:nodetypes="cc" />
      <path
         style="fill:none;stroke:#6c5353;stroke-width:0.264583px;stroke-linecap:butt;stroke-linejoin:miter;stroke-opacity:1"
         d="m 133.34849,55.565199 c 10.0072,-8.462404 20.44958,3.506932 27.92967,10.824417"
         id="path4687"
         sodipodi:nodetypes="cc" />
      <path
         style="fill:none;stroke:#000000;stroke-width:0.065;stroke-linecap:butt;stroke-linejoin:miter;stroke-miterlimit:4;stroke-dasharray:none;stroke-opacity:1"
         d="m 163.41632,55.698833 c 8.63951,4.023334 12.87307,10.168988 17.75849,18.045466"
         id="path4689"
         sodipodi:nodetypes="cc" />
      <path
         style="fill:none;stroke:#000000;stroke-width:0.065;stroke-linecap:butt;stroke-linejoin:miter;stroke-miterlimit:4;stroke-dasharray:none;stroke-opacity:1"
         d="m 168.98508,52.813869 c 2.79777,1.548005 4.86884,3.848923 7.08705,6.094865"
         id="path4691"
         sodipodi:nodetypes="cc" />
      <path
         style="fill:none;stroke:#000000;stroke-width:0.065;stroke-linecap:butt;stroke-linejoin:miter;stroke-miterlimit:4;stroke-dasharray:none;stroke-opacity:1"
         d="m 196.17574,101.17119 c 1.49774,-4.8753 0.30551,-9.74129 -0.80323,-14.55208"
         id="path4693"
         sodipodi:nodetypes="cc" />
      <path
         style="fill:none;stroke:#000000;stroke-width:0.264583px;stroke-linecap:butt;stroke-linejoin:miter;stroke-opacity:1"
         d="m 59.181205,42.869896 c -5.54977,3.339001 -6.3175,5.812992 -7.48355,11.759858"
         id="path4695"
         sodipodi:nodetypes="cc" />
      <path
         style="fill:none;stroke:#000000;stroke-width:0.264583px;stroke-linecap:butt;stroke-linejoin:miter;stroke-opacity:1"
         d="m 60.517555,48.616191 c -3.37323,2.744182 -5.72394,6.016604 -8.01809,9.621702"
         id="path4697"
         sodipodi:nodetypes="cc" />
      <path
         style="fill:none;stroke:#000000;stroke-width:0.264583px;stroke-linecap:butt;stroke-linejoin:miter;stroke-opacity:1"
         d="m 48.089525,54.496121 c -2.875681,3.489734 -3.207631,4.545302 -4.142683,8.686261"
         id="path4699"
         sodipodi:nodetypes="cc" />
      <path
         style="fill:none;stroke:#000000;stroke-width:0.264583px;stroke-linecap:butt;stroke-linejoin:miter;stroke-opacity:1"
         d="m 43.679573,69.59685 c -4.287211,3.94218 -3.305053,4.338624 -3.875407,10.15624"
         id="path4701"
         sodipodi:nodetypes="cc" />
      <path
         style="fill:none;stroke:#000000;stroke-width:0.065;stroke-linecap:butt;stroke-linejoin:miter;stroke-miterlimit:4;stroke-dasharray:none;stroke-opacity:1"
         d="m 146.31107,24.294665 c 8.19688,-7.292278 17.95056,-8.575569 27.39512,-2.672697"
         id="path4720"
         sodipodi:nodetypes="cc" />
      <path
         style="fill:none;stroke:#000000;stroke-width:0.264583px;stroke-linecap:butt;stroke-linejoin:miter;stroke-opacity:1"
         d="m 179.65294,30.575497 c -5.14004,-4.323649 -8.80719,-4.570813 -15.23436,-4.944486"
         id="path4722"
         sodipodi:nodetypes="cc" />
      <path
         style="fill:none;stroke:#000000;stroke-width:0.264583px;stroke-linecap:butt;stroke-linejoin:miter;stroke-opacity:1"
         d="M 213.06163,55.76565 C 206.79323,50.287224 200.98806,45.647013 193.75141,41.533549"
         id="path4724"
         sodipodi:nodetypes="cc" />
      <path
         style="fill:none;stroke:#000000;stroke-width:0.264583px;stroke-linecap:butt;stroke-linejoin:miter;stroke-opacity:1"
         d="m 212.31059,70.814984 c -5.39842,-4.077765 -9.27762,-5.825577 -15.21354,-7.370535"
         id="path4726"
         sodipodi:nodetypes="cc" />
      <path
         style="fill:none;stroke:#000000;stroke-width:0.065;stroke-linecap:butt;stroke-linejoin:miter;stroke-miterlimit:4;stroke-dasharray:none;stroke-opacity:1"
         d="m 181.93076,55.506949 c 9.34423,4.987423 12.06147,8.934731 17.76488,16.063986"
         id="path4728"
         sodipodi:nodetypes="cc" />
      <path
         style="fill:#6c5353;fill-opacity:1;stroke:none;stroke-width:0.264583px;stroke-linecap:butt;stroke-linejoin:miter;stroke-opacity:1"
         d="m 73.079225,52.424783 0.73499,-1.002263 0.20045,1.269532 0.53454,-0.734991 0.55542,1.315466 0.71411,-1.048197 0.60136,0.868627 0.73499,-1.737252 0.47607,2.906554 0.86028,-0.567947 0.86862,1.269529 c -2.09527,-0.83144 -4.19573,-1.616138 -6.28083,-2.539058 z"
         id="path4730"
         sodipodi:nodetypes="cccccccccccc" />
      <path
         style="fill:#6c5353;fill-opacity:1;stroke:none;stroke-width:0.264583px;stroke-linecap:butt;stroke-linejoin:miter;stroke-opacity:1"
         d="m 87.925205,57.594777 0.98974,-1.227768 0.73499,1.135893 0.60135,-1.069078 0.40091,1.135896 0.46772,-0.334087 0.26727,1.069078 0.73499,-1.336347 -0.13781,1.712194 -3.7376,-0.977202 z"
         id="path4732"
         sodipodi:nodetypes="ccccccccccc" />
      <path
         style="fill:#6c5353;fill-opacity:1;stroke:none;stroke-width:0.264583px;stroke-linecap:butt;stroke-linejoin:miter;stroke-opacity:1"
         d="m 98.627085,60.189263 0.4441,-1.350012 c 0,0 0.33408,1.336347 0.66817,1.069078 0.334085,-0.267271 1.202705,-1.804069 1.202705,-1.804069 l 0.26727,1.536798 1.00227,-1.403165 c 0,0 -0.20046,2.138156 0.13363,1.737254 0.33409,-0.400904 0.80181,-1.002262 0.80181,-1.002262 l 1.20271,2.07134 0.26727,-1.002262 0.80181,1.328241 v -1.59551 l 0.85976,1.798512 c -2.57604,-0.384692 -5.10346,-0.915264 -7.651505,-1.383943 z"
         id="path4734"
         sodipodi:nodetypes="ccscccsccccccc" />
      <path
         style="fill:#6c5353;fill-opacity:1;stroke:none;stroke-width:0.264583px;stroke-linecap:butt;stroke-linejoin:miter;stroke-opacity:1"
         d="m 126.19718,64.079087 c 0.1173,-0.891057 0.32548,-1.681393 1.07093,-2.500324 -0.11399,0.494114 -0.0366,0.91989 0.0668,1.336347 0.3929,-0.416073 0.59803,-0.935741 0.53454,-1.603616 0.44127,0.849642 0.4106,1.613478 0.53454,2.405425 0.18229,-0.228777 0.29969,-0.479189 0.20045,-0.801809 0.52338,0.313938 0.73612,0.657462 0.93544,1.002263 0.18182,-0.23741 0.28468,-0.503165 0.66818,-0.668176 -0.094,0.23583 -0.0339,0.432296 0.13363,0.601358 0.43055,-0.677643 0.90977,-1.300112 1.67044,-1.603618 -0.66172,0.634243 -0.68732,1.240829 -0.86861,1.854184 0.66018,-0.411626 1.09507,-1.221841 2.01287,-1.177657 -1.38964,0.696412 -1.33919,1.365896 -0.28153,1.776145 -2.22786,-0.138952 -4.44981,-0.379209 -6.67768,-0.620522 z"
         id="path4736"
         sodipodi:nodetypes="cccccccccccccc" />
      <path
         style="fill:#6c5353;fill-opacity:1;stroke:none;stroke-width:0.264583px;stroke-linecap:butt;stroke-linejoin:miter;stroke-opacity:1"
         d="m 139.52075,65.303832 c 0.11616,-0.975868 0.51769,-1.666036 1.04402,-2.45554 -0.0945,0.821538 0.0115,1.457805 0.53456,2.204974 0.17162,-1.138882 0.70382,-1.6193 1.56185,-2.271789 -0.75028,0.936257 -0.89368,1.332848 -0.89368,2.472243 0.18359,-1.75546 0.8871,-1.995421 2.40543,-2.004523 -1.11632,0.531168 -1.26953,0.98452 -1.26953,1.937705 0.47474,-0.706342 1.33603,-1.538654 2.13816,-1.603621 -0.40672,0.405318 -0.85585,0.846455 -0.93202,1.373069 l 0.28348,0.484283 c 0.021,-0.494025 0.30698,-0.671384 0.64965,-0.992188 -0.28736,0.473866 -0.0975,0.905439 0.17717,1.322917 0.003,-0.479881 0.22635,-0.770787 0.56692,-1.07487 -0.25197,0.35647 -0.22957,0.635914 -0.21263,1.051248 l 0.51972,0.118115 c -0.10855,-0.52408 0.15429,-0.865687 0.567,-1.145738 -0.21487,0.35911 -0.2741,0.78125 -0.18057,1.185945 z"
         id="path4738"
         sodipodi:nodetypes="cccccccccccccccccc" />
      <path
         style="fill:#6c5353;fill-opacity:1;stroke:none;stroke-width:0.264583px;stroke-linecap:butt;stroke-linejoin:miter;stroke-opacity:1"
         d="m 151.64542,66.397386 c 0.0867,-0.403561 0.0733,-0.815463 0.33073,-1.204798 -0.0621,0.279176 -0.0873,0.555507 -0.0472,0.826823 0.13485,-0.337053 0.30352,-0.662153 0.61421,-0.992188 -0.12626,0.351646 -0.2455,0.587842 -0.21261,1.110306 0.0929,-0.288538 0.38588,-0.698399 0.92132,-0.944941 -0.0685,0.255407 -0.0885,0.508391 0,0.755951 0.1512,-0.545806 0.2482,-0.558672 0.35435,-0.661458 -0.0459,0.39206 -0.0465,0.7811 0.14174,1.157552 0.0756,-0.342279 0.20857,-0.665429 0.47247,-0.944938 -0.0376,0.36188 0.0376,0.701174 0.23624,1.015809 0.094,-0.305106 0.21627,-0.567872 0.58784,-0.788582 -0.0338,0.173884 -0.12486,0.401122 0.0972,0.883076 0.0751,-0.0924 0.15893,-0.180391 0.35435,-0.212612 -0.0404,0.168345 0.0135,0.294241 0.083,0.413085 z"
         id="path4740"
         sodipodi:nodetypes="cccccccccccccccc" />
      <path
         style="fill:none;stroke:#6c5353;stroke-width:0.264583px;stroke-linecap:butt;stroke-linejoin:miter;stroke-opacity:1"
         d="m 123.45569,12.353371 c 10.10282,-6.7411203 24.21061,-2.7361153 31.42595,-0.18414"
         id="path4687-3"
         sodipodi:nodetypes="cc" />
      <circle
         style="opacity:1;fill:#000000;fill-opacity:1;stroke:none;stroke-width:0.204264;stroke-linecap:round;stroke-linejoin:round;stroke-miterlimit:4;stroke-dasharray:none;stroke-opacity:1"
         id="path4797"
         cx="124.72037"
         cy="114.67207"
         r="5.1698332" />
      <circle
         style="opacity:1;fill:#000000;fill-opacity:1;stroke:none;stroke-width:0.204264;stroke-linecap:round;stroke-linejoin:round;stroke-miterlimit:4;stroke-dasharray:none;stroke-opacity:1"
         id="path4797-5"
         cx="74.36776"
         cy="110.68298"
         r="5.1698332" />
      <ellipse
         style="opacity:1;fill:#ffffff;fill-opacity:1;stroke:none;stroke-width:0.264;stroke-linecap:round;stroke-linejoin:round;stroke-miterlimit:4;stroke-dasharray:none;stroke-opacity:1"
         id="path4814"
         cx="92.242073"
         cy="143.11058"
         rx="4.2094951"
         ry="1.2027128"
         transform="rotate(-16.604608)" />
      <ellipse
         style="opacity:1;fill:#ffffff;fill-opacity:1;stroke:none;stroke-width:0.264;stroke-linecap:round;stroke-linejoin:round;stroke-miterlimit:4;stroke-dasharray:none;stroke-opacity:1"
         id="path4814-2"
         cx="44.929729"
         cy="125.23688"
         rx="4.2094951"
         ry="1.2027128"
         transform="rotate(-16.604609)" />
      <circle
         style="opacity:1;fill:#ffffff;fill-opacity:1;stroke:none;stroke-width:0.264;stroke-linecap:round;stroke-linejoin:round;stroke-miterlimit:4;stroke-dasharray:none;stroke-opacity:1"
         id="path4831"
         cx="128.08891"
         cy="117.39815"
         r="1.6704345" />
      <circle
         style="opacity:1;fill:#ffffff;fill-opacity:1;stroke:none;stroke-width:0.264;stroke-linecap:round;stroke-linejoin:round;stroke-miterlimit:4;stroke-dasharray:none;stroke-opacity:1"
         id="path4831-8"
         cx="77.107254"
         cy="113.99046"
         r="1.6704345" />
      <path
         style="fill:#e9c6af;fill-opacity:1;stroke:none;stroke-width:0.264583px;stroke-linecap:butt;stroke-linejoin:miter;stroke-opacity:1"
         d="m 79.003125,105.83093 c 0.70101,0.5949 1.34336,1.30598 1.76586,2.12612 l 3.4195,-1.53553 -2.95294,-1.62411 z"
         id="path4848"
         sodipodi:nodetypes="ccccc" />
      <path
         style="fill:#e9c6af;fill-opacity:1;stroke:none;stroke-width:0.264583px;stroke-linecap:butt;stroke-linejoin:miter;stroke-opacity:1"
         d="m 129.0905,109.53945 c 0.63419,0.29422 1.36006,1.13058 1.97884,2.04677 l 3.4195,-1.53553 -2.95294,-1.62411 z"
         id="path4848-5"
         sodipodi:nodetypes="ccccc" />
      <path
         style="fill:#2c170b;fill-opacity:1;stroke:none;stroke-width:0.264583px;stroke-linecap:butt;stroke-linejoin:miter;stroke-opacity:1"
         d="m 147.11516,207.81876 c 2.41642,-5.11858 4.52436,-7.17605 10.10613,-8.03479 l -0.4009,-1.1359 c -5.72744,0.37885 -8.16124,3.51165 -10.89123,8.21854 z"
         id="path4865"
         sodipodi:nodetypes="ccccc" />
      <circle
         style="opacity:1;fill:#999999;fill-opacity:1;stroke:none;stroke-width:0.442588;stroke-linecap:round;stroke-linejoin:round;stroke-miterlimit:4;stroke-dasharray:none;stroke-opacity:1"
         id="path4869"
         cx="111.41458"
         cy="188.76718"
         r="1.3465402" />
      <path
         style="fill:#f2f2f2;fill-opacity:1;stroke:none;stroke-width:0.264583px;stroke-linecap:butt;stroke-linejoin:miter;stroke-opacity:1"
         d="m 111.59176,187.60962 c 0.63436,0.1206 0.92724,0.58233 0.94492,1.19302 -0.1175,-0.57791 -0.49985,-0.85912 -0.94492,-1.19302 z"
         id="path4871"
         sodipodi:nodetypes="ccc" />
      <g
         id="g4879"
         transform="rotate(-30.483018,-35.295472,365.71981)">
        <g
           id="g4955"
           transform="matrix(0.6547678,0.25102163,-0.25102163,0.6547678,189.30786,204.66414)">
          <path
             style="fill:none;stroke:#000000;stroke-width:3.865;stroke-linecap:butt;stroke-linejoin:miter;stroke-miterlimit:4;stroke-dasharray:none;stroke-opacity:1"
             d="m -154.21452,178.26877 c 28.65335,-20.7246 51.74407,16.39014 71.093698,20.04522 33.861648,1.83068 27.178895,-29.84206 39.84995,-50.65876"
             id="path4873"
             sodipodi:nodetypes="ccc" />
          <path
             style="fill:#333333;stroke:#000000;stroke-width:0.264583px;stroke-linecap:butt;stroke-linejoin:round;stroke-opacity:1"
             d="m -47.43601,146.41853 7.323288,4.25223 7.549507,-13.43007 -0.628941,-1.26238 1.415204,-0.0733 c 1.869656,-1.68928 2.60699,-3.65785 3.491959,-5.93219 l -0.739879,-1.07394 1.267529,0.17756 c 1.835609,-1.658 2.636358,-3.66284 3.590353,-5.87244 l -0.811347,-1.17943 1.417277,0.16145 c 1.630306,-1.56096 2.326499,-3.37574 3.129725,-5.41674 l -0.780674,-1.143 1.327677,0.20074 c 1.560755,-1.36989 2.090835,-2.83326 2.708678,-4.72693 l -0.702842,-1.13683 1.319215,0.13632 c 1.760551,-1.60759 2.459432,-3.3968 3.245055,-5.55934 l -0.72212,-1.10408 1.354266,0.0302 c 1.578748,-1.27434 2.038454,-2.63244 2.635654,-4.477491 l -0.775041,-1.01418 1.2671647,0.178171 c -0.8867937,-6.200483 3.6362684,-11.048917 7.4161473,-12.893879 -2.027001,-1.854778 -4.3952199,-2.924763 -6.847323,-4.068309 -0.04166,3.971492 -0.6051147,9.691575 -7.561677,12.845875 l 0.554692,0.89425 -1.046808,-0.05824 c -1.673434,1.254349 -2.055871,2.571485 -2.635654,4.477487 l 0.467581,1.042236 -1.099727,0.0317 c -1.888272,1.54771 -2.470111,3.33705 -3.265411,5.54732 l 0.522988,0.94811 -1.119013,0.0644 c -1.72235,1.29696 -2.12868,2.73412 -2.763471,4.69462 l 0.54897,0.90397 -1.10166,0.0349 c -1.846526,1.52978 -2.428151,3.21499 -3.173415,5.39104 l 0.508748,0.9723 -1.109696,0.0486 c -1.940075,1.70991 -2.664022,3.58475 -3.491157,5.93089 l 0.554322,0.89482 -1.081972,0.002 c -1.949509,1.69403 -2.649016,3.59205 -3.491958,5.93175 l 0.406641,1.14614 -1.192905,0.18957 z"
             id="path4875"
             sodipodi:nodetypes="ccccccccccccccccccccccccccccccccccccccccccccccc" />
          <path
             style="fill:#cccccc;stroke:#000000;stroke-width:0.264583px;stroke-linecap:butt;stroke-linejoin:round;stroke-opacity:1"
             d="m -16.547153,94.036548 0.554691,0.894248 c 1.545295,1.237967 3.233251,2.29731 5.170996,3.043895 l 1.2671644,0.17817 c -0.5827874,-5.409938 1.9791393,-9.675182 7.4161466,-12.89388 -2.6860882,-0.478565 -5.3342052,-2.212489 -6.8473208,-4.068309 -0.019928,6.534931 -2.8653002,10.524246 -7.5616772,12.845876 z"
             id="path4947"
             sodipodi:nodetypes="ccccccc" />
          <path
             style="fill:#ffffff;stroke:none;stroke-width:0.264583px;stroke-linecap:butt;stroke-linejoin:miter;stroke-opacity:1"
             d="m -5.2863127,84.728819 c 0.5947827,0.440554 1.2913997,0.623729 2.008731,0.736599 -2.0997097,1.324167 -3.9428745,3.346042 -5.0679793,5.119076 0.8509584,-2.026443 2.062024,-3.89056 3.0592483,-5.855675 z"
             id="path4949"
             sodipodi:nodetypes="cccc" />
        </g>
      </g>
    </g>
  </g>
</svg>
