<?xml version="1.0" encoding="UTF-8" standalone="no"?>
<svg
   xmlns:dc="http://purl.org/dc/elements/1.1/"
   xmlns:cc="http://creativecommons.org/ns#"
   xmlns:rdf="http://www.w3.org/1999/02/22-rdf-syntax-ns#"
   xmlns:svg="http://www.w3.org/2000/svg"
   xmlns="http://www.w3.org/2000/svg"
   xmlns:sodipodi="http://sodipodi.sourceforge.net/DTD/sodipodi-0.dtd"
   xmlns:inkscape="http://www.inkscape.org/namespaces/inkscape"
   width="210mm"
   height="297mm"
   viewBox="0 0 210 297"
   version="1.1"
   id="svg8"
   inkscape:version="1.0.1 (3bc2e813f5, 2020-09-07)"
   sodipodi:docname="Celik.svg">
  <defs
     id="defs2" />
  <sodipodi:namedview
     id="base"
     pagecolor="#ffffff"
     bordercolor="#666666"
     borderopacity="1.0"
     inkscape:pageopacity="0.0"
     inkscape:pageshadow="2"
     inkscape:zoom="1.3629885"
     inkscape:cx="258.431"
     inkscape:cy="243.28919"
     inkscape:document-units="mm"
     inkscape:current-layer="layer1"
     inkscape:document-rotation="0"
     showgrid="false"
     inkscape:window-width="1920"
     inkscape:window-height="1017"
     inkscape:window-x="1912"
     inkscape:window-y="-8"
     inkscape:window-maximized="1"
     inkscape:snap-nodes="false" />
  <metadata
     id="metadata5">
    <rdf:RDF>
      <cc:Work
         rdf:about="">
        <dc:format>image/svg+xml</dc:format>
        <dc:type
           rdf:resource="http://purl.org/dc/dcmitype/StillImage" />
        <dc:title />
      </cc:Work>
    </rdf:RDF>
  </metadata>
  <g
     inkscape:label="Layer 1"
     inkscape:groupmode="layer"
     id="layer1">
    <g
       id="g1166"
       transform="matrix(0.72671021,0,0,0.73964143,102.05459,65.512684)">
      <circle
         style="opacity:1;fill:#ffccaa;stroke:#000000;stroke-width:0.611;stroke-linecap:round;stroke-linejoin:round;stroke-miterlimit:4;stroke-dasharray:none;stroke-opacity:1"
         id="path859"
         cx="6.6145864"
         cy="44.412201"
         r="108.29018" />
      <path
         style="opacity:1;fill:#333333;fill-opacity:1;stroke:#000000;stroke-width:0.264583px;stroke-linecap:butt;stroke-linejoin:miter;stroke-opacity:1"
         d="M -12.027129,43.564931 C 3.9315501,47.338739 21.878798,31.59801 34.611402,39.55589 c 3.579429,5.000868 4.852817,7.138456 4.37654,13.330068 -0.07719,1.007546 -1.979727,1.760686 -2.939965,1.603615 C 18.589426,47.583602 4.3251087,47.275914 -12.962572,45.034914 Z"
         id="path861"
         sodipodi:nodetypes="cccccc" />
      <path
         style="opacity:1;fill:#333333;fill-opacity:1;stroke:#000000;stroke-width:0.264583px;stroke-linecap:butt;stroke-linejoin:miter;stroke-opacity:1"
         d="m -33.275055,45.836723 1.603617,3.60814 C -44.178012,40.069765 -70.99867,39.071675 -71.719945,38.292261 c -0.642092,-1.002758 2.154239,-11.666542 5.437103,-13.168926 1.534402,-0.111064 22.458529,13.145442 33.007787,20.713388 z"
         id="path863"
         sodipodi:nodetypes="ccccc" />
      <circle
         style="opacity:1;fill:#000000;stroke-width:1.6142;stroke-linecap:round;stroke-linejoin:round"
         id="path865"
         cx="11.150297"
         cy="67.846725"
         r="11.717262" />
      <circle
         style="opacity:1;fill:#000000;stroke-width:1.54911;stroke-linecap:round;stroke-linejoin:round"
         id="path865-3"
         cx="-48.947918"
         cy="63.877975"
         r="11.244792" />
      <path
         style="opacity:1;fill:none;stroke:#000000;stroke-width:0.264583px;stroke-linecap:round;stroke-linejoin:miter;stroke-opacity:1"
         d="m -20.599702,46.680059 c 6.797202,18.983277 -6.488217,30.8402 -13.418155,46.680058 0.310141,3.986527 4.567705,9.606413 8.315476,5.858632 0.513951,-2.832663 0.667101,-4.406312 -1.133928,-6.236608 1.845001,1.818118 1.606398,3.387767 1.133928,6.236608 0.909672,5.104171 8.891346,6.029811 10.96131,1.889881 1.373942,5.71182 8.0847958,0.15157 7.5595235,-1.889881 -0.1302068,-0.991397 -0.9614904,-2.226432 -0.9783496,-3.724409"
         id="path882"
         sodipodi:nodetypes="cccccccc" />
      <path
         style="opacity:1;fill:#f9f9f9;stroke:#7c0000;stroke-width:0.465;stroke-linecap:butt;stroke-linejoin:miter;stroke-miterlimit:4;stroke-dasharray:none;stroke-opacity:1"
         d="m -37.818639,113.05501 c 21.418933,6.15823 44.7752741,9.11887 65.88194,0.4009 -17.567856,16.46917 -41.915959,26.22265 -64.411957,11.22532 -1.834715,-4.72433 -1.700578,-6.78371 -1.469983,-11.62622 z"
         id="path884"
         sodipodi:nodetypes="cccc" />
      <path
         style="opacity:0.352941;fill:none;stroke:#000000;stroke-width:1.265;stroke-linecap:round;stroke-linejoin:miter;stroke-miterlimit:4;stroke-dasharray:none;stroke-opacity:1"
         d="m 23.718006,107.62872 4.345295,5.82719 5.907309,6.88226"
         id="path886" />
      <path
         style="opacity:0.339869;fill:#000000;stroke:#000000;stroke-width:0.264583px;stroke-linecap:round;stroke-linejoin:round;stroke-opacity:1"
         d="m -42.994791,88.540922 1.322917,0.850445 -9.5439,15.402533 z"
         id="path888" />
      <path
         style="opacity:1;fill:#ffccaa;fill-opacity:1;stroke:#000000;stroke-width:0.765;stroke-linecap:butt;stroke-linejoin:miter;stroke-miterlimit:4;stroke-dasharray:none;stroke-opacity:1"
         d="m -98.74628,19.749256 c -8.22857,-5.074212 -14.50895,3.789097 -17.57589,10.583334 -3.34652,9.576977 -2.79653,11.634744 0.66146,20.505208 -1.58554,7.798407 0.0398,15.035735 5.85863,20.127232 2.36889,2.098869 7.75046,1.245898 11.670014,0.755956"
         id="path892"
         sodipodi:nodetypes="ccccc" />
      <path
         style="opacity:1;fill:#333333;stroke:#000000;stroke-width:0.537409;stroke-linecap:butt;stroke-linejoin:miter;stroke-miterlimit:4;stroke-dasharray:none;stroke-opacity:1"
         d="m -98.74628,19.749256 c 29.879038,0.0085 37.500029,-45.015083 57.586772,-51.019791 8.657124,-0.287451 21.612616,10.234583 24.054259,9.621703 l 34.477768,-0.267269 c 6.052569,0.123024 16.705602,-9.23358 34.210499,-9.621703 38.894636,3.608414 33.13555,60.717575 63.342872,80.448128 l 8.48333,-17.916276 -4.47428,-20.837806 -4.54358,-14.1652848 c -2.06127,-6.4263032 -10.59927,-15.9612402 -17.206238,-22.0261052 -2.264169,-2.078394 -4.603442,0.113263 -6.707468,-1.894242 -2.607004,-2.487409 -2.786779,-5.063429 -5.377559,-7.271071 -2.447568,-11.989315 -4.56777,-20.713994 -15.414119,-26.840932 6.226052,3.273377 6.102567,19.330521 -0.329535,14.266966 0,0 -10.193942,-10.110866 -16.704345,-12.628487 -5.965666,-2.306967 -12.800816,-0.684466 -19.109771,-1.737252 -6.468501,-1.079409 -12.558906,-4.372581 -19.109771,-4.677216 -2.875666,-0.133727 -5.6671846,1.395085 -8.5430535,1.265803 -2.9331388,-0.131857 -5.62727065,-2.150706 -8.5621956,-2.06761 -5.4204975,0.15347 -10.2180459,5.553971 -15.5720809,4.707272 -4.489695,-0.71001 0.632022,-4.460489 1.602995,-4.209437 -10.471866,0.256345 -16.43041,8.017085 -24.638763,12.03702 -1.63771,0.156983 2.188487,-9.960112 7.734151,-10.337044 -12.221734,1.905875 -17.112296,12.21525 -24.451093,19.718288 0,0 -4.623065,3.171394 -8.913516,6.974451 1.145536,-5.939435 1.108154,-10.466251 7.889798,-13.334938 -12.39033,2.766704 -15.083646,8.935112 -16.972232,20.866263 -5.412193,5.552448 -9.265542,12.755717 -9.265542,12.755717 -14.198226,13.0772433 -14.625833,20.1128055 -13.487302,38.190853 z"
         id="path894"
         sodipodi:nodetypes="ccccccccssscccssssssccccccccc" />
      <g
         inkscape:label="Layer 1"
         id="layer1-1"
         transform="translate(-501.96594,17.021847)"
         style="opacity:1">
        <g
           id="g1470"
           transform="matrix(0.8146776,0,0,0.8146776,49.713283,71.390796)">
          <g
             id="g1014"
             transform="matrix(1.2820191,0,0,1.2820191,470.88482,-84.886664)">
            <path
               style="fill:#ffccaa;fill-opacity:1;stroke:#000000;stroke-width:0.264583px;stroke-linecap:butt;stroke-linejoin:miter;stroke-opacity:1"
               d="m 21.69748,141.54501 c -4.397082,11.03203 -11.8512551,26.46812 -9.192076,38.74639 1.095156,5.05669 9.246712,5.67313 11.726589,1.18024 6.367624,-11.53646 8.574946,-22.78463 9.998726,-33.55532 -3.778335,-2.84103 -8.1102,-4.79165 -12.533239,-6.37131 z"
               id="path1168"
               sodipodi:nodetypes="csscc" />
            <path
               style="fill:#3737c8;fill-opacity:1;stroke:#000000;stroke-width:0.264583px;stroke-linecap:butt;stroke-linejoin:miter;stroke-opacity:1"
               d="m 43.191036,118.33921 c -11.090101,3.82002 -20.523669,17.03495 -26.959315,26.5419 10.049598,0.27585 18.404363,5.24724 26.827657,10.22809 l 5.488725,-6.32897 7.046646,-19.30083 z"
               id="path1164"
               sodipodi:nodetypes="cccccc" />
            <path
               style="fill:#ffccaa;fill-opacity:1;stroke:#000000;stroke-width:0.264583px;stroke-linecap:butt;stroke-linejoin:miter;stroke-opacity:1"
               d="m 116.13177,150.47959 c 4.58787,9.39161 6.98112,18.71435 7.47798,28.10562 0.27449,5.18864 -6.76206,6.31329 -10.38425,2.97536 -7.31861,-6.74425 -13.621612,-19.55429 -14.657432,-30.49177 5.802762,0.30176 11.736052,-0.0665 17.563702,-0.58921 z"
               id="path1166"
               sodipodi:nodetypes="csscc" />
            <path
               style="fill:#3737c8;fill-opacity:1;stroke:#000000;stroke-width:0.264583px;stroke-linecap:butt;stroke-linejoin:miter;stroke-opacity:1"
               d="m 84.272311,141.66601 c 0.875455,6.18131 2.878281,12.03021 4.770243,17.94811 8.707027,-0.81432 19.564476,-4.61004 27.089216,-9.13453 -4.95446,-12.7505 -12.59288,-20.64232 -23.283829,-28.54686 l -15.573252,6.75233 z"
               id="path1160"
               sodipodi:nodetypes="cccccc" />
            <path
               style="opacity:1;fill:#3737c8;fill-opacity:1;stroke:#000000;stroke-width:0.296052px;stroke-linecap:butt;stroke-linejoin:miter;stroke-opacity:1"
               d="m 50.781476,126.55717 c -18.360719,9.10725 -23.472292,37.44068 -22.961175,56.64369 0.674798,25.35272 7.646352,36.89936 31.039688,39.22482 27.666183,2.75021 39.099269,-19.55376 39.161078,-39.06175 0.05779,-18.23441 -2.525084,-46.64568 -22.399964,-55.70248 -7.65084,1.11418 -17.410349,0.28073 -24.839627,-1.10428 z"
               id="path1242-2"
               sodipodi:nodetypes="cssscc" />
            <path
               style="fill:#162d50;fill-opacity:1;stroke:#000000;stroke-width:0.297059px;stroke-linecap:butt;stroke-linejoin:miter;stroke-opacity:1"
               d="m 32.505854,206.85723 c 0,0 7.189706,26.10516 4.904657,47.83676 -0.755146,7.18174 7.175226,7.10101 10.506754,2.07614 8.53381,-12.87136 -4.170137,-22.14168 3.846827,-35.34285 3.81285,0.51663 6.837762,1.10945 10.740343,1.18924 -0.217053,-4.95579 -0.323931,-9.45166 -0.293772,-14.56971 z"
               id="path1360-8"
               sodipodi:nodetypes="csscccc" />
            <path
               style="fill:#162d50;fill-opacity:1;stroke:#000000;stroke-width:0.297059px;stroke-linecap:butt;stroke-linejoin:miter;stroke-opacity:1"
               d="m 91.086397,208.84367 c 0,0 -9.536643,25.92021 -5.769483,46.39845 1.306862,7.10401 -6.627091,7.68425 -10.304712,2.90081 -10.029374,-13.04508 4.285734,-21.53962 -4.06536,-35.69075 -2.94982,0.1416 -5.424147,0.43127 -8.493214,0.17536 l -0.226722,-14.57468 z"
               id="path1360-2-5"
               sodipodi:nodetypes="csscccc" />
            <path
               style="fill:#162d50;fill-opacity:1;stroke:none;stroke-width:0.297059px;stroke-linecap:butt;stroke-linejoin:miter;stroke-opacity:1"
               d="m 61.67501,208.18063 1.0267,0.0357 0.196044,14.30322 -1.011226,-0.0612 z"
               id="path1615-9" />
            <path
               style="fill:#3737c8;fill-opacity:1;stroke:#000000;stroke-width:0.226968px;stroke-linecap:butt;stroke-linejoin:miter;stroke-opacity:1"
               d="m 687.74516,223.58722 c 2.94023,-3.24661 5.3746,-6.49323 6.7108,-9.73984 9.72715,-1.18512 23.2365,-1.73501 29.17065,-3.55716 -0.68009,1.75035 -1.56309,3.50069 -3.25843,5.25104 l -3.25842,1.50333 -5.08766,1.73403 -24.27694,4.8086 c -12.21187,16.01967 -12.21187,16.01967 0,0 z"
               id="path1390"
               sodipodi:nodetypes="cccccccc"
               transform="matrix(1.2179969,0,0,1.1157082,-757.96574,-121.79663)" />
            <path
               style="fill:#3737c8;fill-opacity:1;stroke:#000000;stroke-width:0.226968px;stroke-linecap:butt;stroke-linejoin:miter;stroke-opacity:1"
               d="m 665.70424,223.58722 c -3.20887,-3.06977 -4.37518,-6.29159 -5.83307,-9.67995 -9.44053,-0.46906 -18.69302,-1.57184 -21.99436,-3.59951 l 2.18675,5.82636 c 4.48788,2.40436 9.38715,3.38311 14.22134,4.59362 l 11.41934,2.85948 c 12.21187,16.01967 12.21187,16.01967 0,0 z"
               id="path1390-7"
               sodipodi:nodetypes="ccccccc"
               transform="matrix(1.2179969,0,0,1.1157082,-757.96574,-121.79663)" />
            <path
               style="fill:#ffccaa;fill-opacity:1;stroke:#000000;stroke-width:0.226968px;stroke-linecap:butt;stroke-linejoin:miter;stroke-opacity:1"
               d="m 664.70405,222.07661 11.01209,11.13981 12.25206,-9.91505 c -12.26112,0.99117 -15.3473,-0.12268 -23.26415,-1.22476 z"
               id="path1418"
               sodipodi:nodetypes="cccc"
               transform="matrix(1.2179969,0,0,1.1157082,-757.96574,-121.79663)" />
            <path
               style="fill:none;stroke:#000000;stroke-width:0.923947;stroke-linecap:round;stroke-linejoin:miter;stroke-miterlimit:4;stroke-dasharray:none;stroke-opacity:1"
               d="m 65.054424,138.40484 0.01937,12.0506"
               id="path1071" />
          </g>
        </g>
      </g>
      <path
         style="opacity:0.248366;fill:none;stroke:#000000;stroke-width:1.065;stroke-linecap:round;stroke-linejoin:miter;stroke-miterlimit:4;stroke-dasharray:none;stroke-opacity:1"
         d="m 19.777945,90.871639 c 4.606096,2.286148 4.378407,1.638134 6.414468,5.879928"
         id="path1069"
         sodipodi:nodetypes="cc" />
      <path
         style="opacity:1;fill:#ffccaa;fill-opacity:1;stroke:#000000;stroke-width:0.765;stroke-linecap:butt;stroke-linejoin:miter;stroke-miterlimit:4;stroke-dasharray:none;stroke-opacity:1"
         d="m 108.76265,44.884673 c 2.75979,-8.951315 8.13186,-14.826071 14.64657,-13.890625 4.52871,0.16642 5.81359,18.727302 3.59078,28.915177 2.59518,9.647273 0.0568,20.031642 -7.65402,26.930805 -2.40955,1.635798 -8.7856,-1.4079 -11.71726,-7.9375"
         id="path890"
         sodipodi:nodetypes="ccccc" />
      <ellipse
         style="opacity:1;fill:#ffffff;fill-opacity:1;stroke:none;stroke-width:1.265;stroke-linecap:round;stroke-linejoin:round;stroke-miterlimit:4;stroke-dasharray:none;stroke-opacity:1"
         id="path1077"
         cx="-43.564926"
         cy="61.471985"
         rx="5.3453903"
         ry="2.6726952" />
      <ellipse
         style="opacity:1;fill:#ffffff;fill-opacity:1;stroke:none;stroke-width:1.265;stroke-linecap:round;stroke-linejoin:round;stroke-miterlimit:4;stroke-dasharray:none;stroke-opacity:1"
         id="path1077-3"
         cx="16.225159"
         cy="63.453583"
         rx="5.3453903"
         ry="2.6726952" />
      <circle
         style="opacity:1;fill:#ffffff;fill-opacity:1;stroke:none;stroke-width:0.730889;stroke-linecap:round;stroke-linejoin:round;stroke-miterlimit:4;stroke-dasharray:none;stroke-opacity:1"
         id="path1094"
         cx="-50.781208"
         cy="68.955536"
         r="3.4745035" />
      <circle
         style="opacity:1;fill:#ffffff;fill-opacity:1;stroke:none;stroke-width:0.73089;stroke-linecap:round;stroke-linejoin:round;stroke-miterlimit:4;stroke-dasharray:none;stroke-opacity:1"
         id="path1094-0"
         cx="13.898016"
         cy="73.499115"
         r="3.4745035" />
      <circle
         style="opacity:1;fill:#ffffff;fill-opacity:1;stroke:none;stroke-width:0.393556;stroke-linecap:round;stroke-linejoin:round;stroke-miterlimit:4;stroke-dasharray:none;stroke-opacity:1"
         id="path1094-7"
         cx="-54.790257"
         cy="60.670181"
         r="1.8708863" />
      <circle
         style="opacity:1;fill:#ffffff;fill-opacity:1;stroke:none;stroke-width:0.393557;stroke-linecap:round;stroke-linejoin:round;stroke-miterlimit:4;stroke-dasharray:none;stroke-opacity:1"
         id="path1094-7-5"
         cx="5.6126599"
         cy="64.679222"
         r="1.8708863" />
    </g>
    <path
       style="fill:#1a1a1a;fill-opacity:1;stroke:#000000;stroke-width:0.51394px;stroke-linecap:butt;stroke-linejoin:miter;stroke-opacity:1"
       d="M 117.0481,30.588855 C 102.69826,25.089072 106.21711,10.865703 120.04706,7.5234896 112.3549,15.101383 115.1099,19.951863 124.57223,23.639241"
       id="path24014-39-0-90-2-9-2-3-5"
       sodipodi:nodetypes="ccc" />
    <path
       style="fill:#1a1a1a;fill-opacity:1;stroke:#000000;stroke-width:0.51394px;stroke-linecap:butt;stroke-linejoin:miter;stroke-opacity:1"
       d="M 102.51449,31.887481 C 88.164656,26.387698 91.683501,12.164329 105.51345,8.8221161 97.821293,16.400009 100.57629,21.25049 110.03862,24.937868"
       id="path24014-39-0-90-2-9-2-3"
       sodipodi:nodetypes="ccc" />
    <path
       style="fill:#1a1a1a;fill-opacity:1;stroke:#000000;stroke-width:0.51394px;stroke-linecap:butt;stroke-linejoin:miter;stroke-opacity:1"
       d="m 122.11737,35.921921 c -14.34983,-5.499783 -9.19072,-15.566225 -0.165,-24.536244 -3.29972,8.950528 -1.7732,13.899253 7.68914,17.586631"
       id="path24014-39-0-90-2-1"
       sodipodi:nodetypes="ccc" />
    <path
       style="fill:#333333;fill-opacity:1;stroke:#000000;stroke-width:0.219981px;stroke-linecap:butt;stroke-linejoin:miter;stroke-opacity:1"
       d="m 130.44864,41.83286 c -0.25809,6.427077 4.27229,7.198374 9.42763,5.428249 -4.16293,-0.389686 -6.61225,-1.625139 -6.46649,-5.8743"
       id="path24014-5"
       sodipodi:nodetypes="ccc" />
    <path
       style="fill:#333333;fill-opacity:1;stroke:#000000;stroke-width:0.378909px;stroke-linecap:butt;stroke-linejoin:miter;stroke-opacity:1"
       d="m 169.3658,77.01408 c -4.66517,10.049277 2.0283,14.274904 11.39798,14.872966 -6.36178,-3.375541 -9.43874,-6.961585 -6.39399,-13.621969"
       id="path24014-1"
       sodipodi:nodetypes="ccc" />
    <path
       style="fill:#333333;fill-opacity:1;stroke:#000000;stroke-width:0.264583px;stroke-linecap:butt;stroke-linejoin:miter;stroke-opacity:1"
       d="m 167.47838,71.911257 c -3.25757,7.017159 0.54277,11.811948 7.08538,12.22956 -4.44227,-2.357056 -5.71729,-6.705241 -3.59122,-11.35602"
       id="path24014-3"
       sodipodi:nodetypes="ccc" />
    <path
       style="fill:#333333;fill-opacity:1;stroke:#000000;stroke-width:0.264583px;stroke-linecap:butt;stroke-linejoin:miter;stroke-opacity:1"
       d="m 166.41087,67.879658 c -3.25757,7.017158 3.45457,10.113397 9.99718,10.531009 -4.44227,-2.357056 -6.39671,-3.45373 -4.27064,-8.104509"
       id="path24014-14"
       sodipodi:nodetypes="ccc" />
    <path
       style="fill:#333333;fill-opacity:1;stroke:#000000;stroke-width:0.264583px;stroke-linecap:butt;stroke-linejoin:miter;stroke-opacity:1"
       d="m 60.55005,47.066552 c -3.25757,7.017158 1.41631,9.967807 7.95892,10.385419 -4.44227,-2.357056 -6.59083,-4.8611 -4.46476,-9.511879"
       id="path24014-6"
       sodipodi:nodetypes="ccc" />
    <path
       style="fill:#333333;fill-opacity:1;stroke:#000000;stroke-width:0.264583px;stroke-linecap:butt;stroke-linejoin:miter;stroke-opacity:1"
       d="m 49.303377,67.782902 c 3.25757,7.017158 -1.41631,9.967807 -7.95892,10.385419 4.44227,-2.357056 6.59083,-4.8611 4.46476,-9.511879"
       id="path24014-2"
       sodipodi:nodetypes="ccc" />
    <path
       style="fill:#333333;fill-opacity:1;stroke:#000000;stroke-width:0.264583px;stroke-linecap:butt;stroke-linejoin:miter;stroke-opacity:1"
       d="m 52.177831,64.728124 c 3.25757,7.017158 -1.41631,9.967807 -7.95892,10.385419 4.44227,-2.357056 6.59083,-4.8611 4.46476,-9.511879"
       id="path24014-9"
       sodipodi:nodetypes="ccc" />
    <path
       style="fill:#1a1a1a;fill-opacity:1;stroke:#000000;stroke-width:0.51394px;stroke-linecap:butt;stroke-linejoin:miter;stroke-opacity:1"
       d="m 132.01749,35.921921 c -14.34983,-5.499783 -9.19072,-15.566224 -0.165,-24.536244 -3.29972,8.950528 -1.7732,13.899253 7.68914,17.586631"
       id="path24014-39-0-90-2-8"
       sodipodi:nodetypes="ccc" />
    <path
       style="fill:#1a1a1a;fill-opacity:1;stroke:#000000;stroke-width:0.513939px;stroke-linecap:butt;stroke-linejoin:miter;stroke-opacity:1"
       d="m 134.81257,39.039306 c 14.34983,-5.499782 8.3631,-18.036968 -2.58431,-26.046143 3.29972,8.950528 3.03498,15.161034 -6.42736,18.848411"
       id="path24014-39-0"
       sodipodi:nodetypes="ccc" />
    <path
       style="fill:#333333;fill-opacity:1;stroke:#000000;stroke-width:0.454032px;stroke-linecap:butt;stroke-linejoin:miter;stroke-opacity:1"
       d="m 139.5405,42.186018 c 12.29432,-5.010019 9.86998,-14.180032 2.13713,-22.351261 2.82706,8.153473 -1.86452,14.005045 -9.97144,17.364057"
       id="path24014-39"
       sodipodi:nodetypes="ccc" />
    <path
       style="fill:#1a1a1a;fill-opacity:1;stroke:#000000;stroke-width:0.51394px;stroke-linecap:butt;stroke-linejoin:miter;stroke-opacity:1"
       d="m 127.16449,37.571941 c -14.34983,-5.499783 -9.19072,-15.566224 -0.165,-24.536244 -3.29972,8.950528 -1.7732,13.899253 7.68914,17.586631"
       id="path24014-39-0-90-2"
       sodipodi:nodetypes="ccc" />
    <path
       style="fill:#333333;fill-opacity:1;stroke:#000000;stroke-width:0.51394px;stroke-linecap:butt;stroke-linejoin:miter;stroke-opacity:1"
       d="m 127.55395,42.465145 c 14.34983,-5.499783 8.22012,-16.633885 -0.8056,-25.603905 3.29972,8.950529 3.03498,15.161034 -6.42736,18.848412"
       id="path24014-39-0-3"
       sodipodi:nodetypes="ccc" />
    <path
       style="fill:#333333;stroke:#000000;stroke-width:0.264583px;stroke-linecap:butt;stroke-linejoin:miter;stroke-opacity:1;fill-opacity:1"
       d="m 126.95448,40.95932 c -3.25757,7.017158 1.41631,9.967807 7.95892,10.385419 -4.44227,-2.357056 -6.59083,-4.8611 -4.46476,-9.511879"
       id="path24014"
       sodipodi:nodetypes="ccc" />
    <path
       style="fill:#1a1a1a;fill-opacity:1;stroke:#000000;stroke-width:0.51394px;stroke-linecap:butt;stroke-linejoin:miter;stroke-opacity:1"
       d="m 104.46772,38.154301 c 14.34983,-5.499783 9.87014,-19.448625 0.84442,-28.4186444 3.29972,8.9505284 1.09378,17.7816534 -8.368562,21.4690314"
       id="path24014-39-0-90-2-9-2"
       sodipodi:nodetypes="ccc" />
    <path
       style="fill:#1a1a1a;fill-opacity:1;stroke:#000000;stroke-width:0.51394px;stroke-linecap:butt;stroke-linejoin:miter;stroke-opacity:1"
       d="m 95.919705,39.927544 c 14.349835,-5.499783 8.220125,-16.633885 -0.8056,-25.603905 3.29972,8.950529 3.03498,15.161034 -6.42736,18.848412"
       id="path24014-39-0-3-0"
       sodipodi:nodetypes="ccc" />
    <path
       style="fill:#333333;fill-opacity:1;stroke:#000000;stroke-width:0.51394px;stroke-linecap:butt;stroke-linejoin:miter;stroke-opacity:1"
       d="m 117.34478,40.229907 c -14.34983,-5.499783 -9.87014,-19.448624 -0.84442,-28.418644 -3.29972,8.950528 -1.09378,17.781653 8.36856,21.469031"
       id="path24014-39-0-90-2-9"
       sodipodi:nodetypes="ccc" />
    <path
       style="fill:#333333;fill-opacity:1;stroke:#000000;stroke-width:0.51394px;stroke-linecap:butt;stroke-linejoin:miter;stroke-opacity:1"
       d="m 101.51874,41.838295 c 14.34983,-5.499783 8.22012,-16.633885 -0.8056,-25.603905 3.29972,8.950529 3.03498,15.161034 -6.427363,18.848412"
       id="path24014-39-0-3-1"
       sodipodi:nodetypes="ccc" />
    <path
       style="fill:#1a1a1a;fill-opacity:1;stroke:#000000;stroke-width:0.51394px;stroke-linecap:butt;stroke-linejoin:miter;stroke-opacity:1"
       d="M 88.277121,35.523243 C 73.927287,30.02346 77.446132,15.80009 91.276082,12.457877 83.583924,20.03577 86.824221,26.148031 96.286551,29.835409"
       id="path24014-39-0-90-2-9-2-3-8"
       sodipodi:nodetypes="ccc" />
    <path
       style="fill:#333333;fill-opacity:1;stroke:#000000;stroke-width:0.51394px;stroke-linecap:butt;stroke-linejoin:miter;stroke-opacity:1"
       d="M 97.982212,42.155465 C 83.632383,36.655682 84.197204,23.946917 93.222923,14.976897 c -3.29972,8.950528 -3.03498,15.161033 6.427357,18.848411"
       id="path24014-39-0-2"
       sodipodi:nodetypes="ccc" />
    <path
       style="fill:#333333;fill-opacity:1;stroke:#000000;stroke-width:0.516866px;stroke-linecap:butt;stroke-linejoin:miter;stroke-opacity:1"
       d="M 87.734223,40.500056 C 72.986197,35.087654 75.894388,25.181148 85.170565,16.353644 c -3.391286,8.808322 -3.1192,14.920155 6.605714,18.548948"
       id="path24014-39-0-9"
       sodipodi:nodetypes="ccc" />
    <path
       style="fill:#333333;fill-opacity:1;stroke:#000000;stroke-width:0.51394px;stroke-linecap:butt;stroke-linejoin:miter;stroke-opacity:1"
       d="m 91.589698,49.377098 c -14.349827,-5.499783 -9.190717,-15.566224 -0.165,-24.536244 -3.29972,8.950528 -1.7732,13.899253 7.68914,17.586631"
       id="path24014-39-0-90"
       sodipodi:nodetypes="ccc" />
    <path
       style="fill:#333333;fill-opacity:1;stroke:#000000;stroke-width:0.51394px;stroke-linecap:butt;stroke-linejoin:miter;stroke-opacity:1"
       d="m 107.90519,47.50798 c 14.34983,-5.499783 8.22012,-16.633886 -0.8056,-25.603906 3.29972,8.95053 2.58887,15.607141 -6.87347,19.294519"
       id="path24014-39-0-3-5"
       sodipodi:nodetypes="ccc" />
    <path
       style="fill:none;stroke:#000000;stroke-width:0.264583px;stroke-linecap:butt;stroke-linejoin:miter;stroke-opacity:1"
       d="m 106.2807,44.356419 c 6.72983,-3.734173 7.36406,-5.731144 5.62948,-13.103098"
       id="path24259"
       sodipodi:nodetypes="cc" />
    <path
       style="fill:none;stroke:#000000;stroke-width:0.264583px;stroke-linecap:butt;stroke-linejoin:miter;stroke-opacity:1"
       d="M 123.7515,36.78574 C 117.81598,33.287089 113.25972,29.262332 112.9778,21.93556"
       id="path24261"
       sodipodi:nodetypes="cc" />
    <path
       style="fill:none;stroke:#000000;stroke-width:0.264583px;stroke-linecap:butt;stroke-linejoin:miter;stroke-opacity:1"
       d="m 139.08698,39.309301 c 4.52528,-3.826342 5.25504,-7.641869 4.3677,-13.394281"
       id="path24263"
       sodipodi:nodetypes="cc" />
    <path
       style="fill:none;stroke:#000000;stroke-width:0.264583px;stroke-linecap:butt;stroke-linejoin:miter;stroke-opacity:1"
       d="m 156.84896,24.265 c 4.72344,5.255588 3.57808,9.830833 4.36774,16.306081"
       id="path24265"
       sodipodi:nodetypes="cc" />
    <path
       style="fill:none;stroke:#000000;stroke-width:0.264583px;stroke-linecap:butt;stroke-linejoin:miter;stroke-opacity:1"
       d="m 169.56382,68.039061 -1.16472,2.426499 0.29118,2.911801 2.52356,2.426499"
       id="path24267" />
    <path
       style="fill:none;stroke:#000000;stroke-width:0.264583px;stroke-linecap:butt;stroke-linejoin:miter;stroke-opacity:1"
       d="m 173.2521,61.633099 c 3.43847,6.036366 5.20953,7.357547 11.06484,9.414822"
       id="path24269"
       sodipodi:nodetypes="cc" />
    <path
       style="fill:none;stroke:#000000;stroke-width:0.264583px;stroke-linecap:butt;stroke-linejoin:miter;stroke-opacity:1"
       d="m 176.35802,73.959722 c 3.79986,2.740432 4.85731,2.927222 9.2207,3.591218"
       id="path24271"
       sodipodi:nodetypes="cc" />
    <path
       style="fill:none;stroke:#000000;stroke-width:0.264583px;stroke-linecap:butt;stroke-linejoin:miter;stroke-opacity:1"
       d="M 54.644781,29.312121 C 50.391482,33.475412 50.110064,37.27543 49.306479,42.90052"
       id="path24273"
       sodipodi:nodetypes="cc" />
    <path
       style="fill:none;stroke:#000000;stroke-width:0.264583px;stroke-linecap:butt;stroke-linejoin:miter;stroke-opacity:1"
       d="m 48.821181,73.57148 c 3.725961,-3.6431 2.996646,-5.271904 1.84414,-9.997181"
       id="path24275"
       sodipodi:nodetypes="cc" />
  </g>
</svg>
