<?xml version="1.0" encoding="UTF-8" standalone="no"?>
<svg
   xmlns:dc="http://purl.org/dc/elements/1.1/"
   xmlns:cc="http://creativecommons.org/ns#"
   xmlns:rdf="http://www.w3.org/1999/02/22-rdf-syntax-ns#"
   xmlns:svg="http://www.w3.org/2000/svg"
   xmlns="http://www.w3.org/2000/svg"
   xmlns:sodipodi="http://sodipodi.sourceforge.net/DTD/sodipodi-0.dtd"
   xmlns:inkscape="http://www.inkscape.org/namespaces/inkscape"
   width="210mm"
   height="297mm"
   viewBox="0 0 210 297"
   version="1.1"
   id="svg8"
   inkscape:version="1.0.1 (3bc2e813f5, 2020-09-07)"
   sodipodi:docname="Staudacher.svg">
  <defs
     id="defs2">
    <rect
       x="270.96859"
       y="-70.436195"
       width="18.57812"
       height="17.305322"
       id="rect1188" />
  </defs>
  <sodipodi:namedview
     id="base"
     pagecolor="#ffffff"
     bordercolor="#666666"
     borderopacity="1.0"
     inkscape:pageopacity="0.0"
     inkscape:pageshadow="2"
     inkscape:zoom="0.68841315"
     inkscape:cx="448.92539"
     inkscape:cy="546.67235"
     inkscape:document-units="mm"
     inkscape:current-layer="g925"
     inkscape:document-rotation="0"
     showgrid="false"
     inkscape:window-width="1920"
     inkscape:window-height="1017"
     inkscape:window-x="1912"
     inkscape:window-y="-8"
     inkscape:window-maximized="1"
     inkscape:snap-text-baseline="true"
     inkscape:snap-nodes="false" />
  <metadata
     id="metadata5">
    <rdf:RDF>
      <cc:Work
         rdf:about="">
        <dc:format>image/svg+xml</dc:format>
        <dc:type
           rdf:resource="http://purl.org/dc/dcmitype/StillImage" />
        <dc:title />
      </cc:Work>
    </rdf:RDF>
  </metadata>
  <g
     inkscape:label="Layer 1"
     inkscape:groupmode="layer"
     id="layer1">
    <g
       id="g925"
       transform="translate(283.10417,-34.77381)"
       style="opacity:1">
      <g
         id="g19258">
        <g
           inkscape:label="Layer 1"
           id="layer1-3"
           transform="translate(218.92126,323.81134)">
          <g
             id="g1648"
             transform="matrix(0.80001737,0,0,0.80001737,-230.77349,43.08135)">
            <text
               xml:space="preserve"
               id="text1186"
               style="font-style:normal;font-weight:normal;font-size:13.2289px;line-height:1.25;font-family:sans-serif;white-space:pre;shape-inside:url(#rect1188);fill:#000000;fill-opacity:1;stroke:none;" />
          </g>
        </g>
        <g
           id="g1454"
           transform="translate(-4.233333,0.529167)">
          <path
             style="opacity:1;fill:#ffd5e5;fill-opacity:1;stroke:#000000;stroke-width:0.264583px;stroke-linecap:butt;stroke-linejoin:miter;stroke-opacity:1"
             d="m -221.16449,-192.80771 c -4.94691,2.46798 -8.96737,6.62683 -12.1568,11.70418 -7.3595,11.71584 -10.29424,28.32218 -9.97648,40.32985 0.60133,22.72344 6.81387,33.0726 27.6603,35.15689 24.65408,2.46499 34.84242,-17.52587 34.89749,-35.01072 0.0515,-16.34335 -4.50577,-43.03952 -22.2168,-51.15705 -2.7793,-0.1552 -5.42806,-0.14134 -7.44714,-0.21342 -3.80971,-0.13601 -6.05761,-0.37421 -10.76057,-0.80973 z"
             id="path1242-7"
             sodipodi:nodetypes="csssscsc"
             transform="matrix(0.80001737,0,0,0.80001737,-11.852225,366.8927)" />
          <path
             style="opacity:1;fill:#87aade;stroke:#000000;stroke-width:0.264583px;stroke-linecap:butt;stroke-linejoin:miter;stroke-opacity:1"
             d="m -239.44589,-119.56461 c 0,0 7.2812,38.748833 9.30189,58.22208 0.66778,6.43534 6.35231,6.363 9.30175,1.86037 7.55509,-11.53363 5.48814,-30.598677 7.40742,-46.10272 3.37556,0.46294 -2.90797,0.0702 0.54703,0.14168 -0.19216,-4.44073 -0.28678,-8.46934 -0.26008,-13.05546 z"
             id="path1360-0"
             sodipodi:nodetypes="csscccc"
             transform="matrix(0.80001737,0,0,0.80001737,-11.852225,366.8927)" />
          <path
             style="opacity:1;fill:#87aade;fill-opacity:1;stroke:#000000;stroke-width:0.264583px;stroke-linecap:butt;stroke-linejoin:miter;stroke-opacity:1"
             d="m -187.58385,-117.78462 c 0,0 -4.91621,37.852323 -4.43792,56.49671 0.15473,6.03161 -5.86704,6.88562 -9.12288,2.59933 -8.87912,-11.68929 -9.34689,-34.495177 -11.39494,-46.8415 -2.61151,0.1269 2.32389,0.32607 -0.39318,0.0968 l -0.20073,-13.05992 z"
             id="path1360-2-0"
             sodipodi:nodetypes="csscccc"
             transform="matrix(0.80001737,0,0,0.80001737,-11.852225,366.8927)" />
          <path
             style="opacity:1;fill:#87aade;fill-opacity:1;stroke:none;stroke-width:0.264583px;stroke-linecap:butt;stroke-linejoin:miter;stroke-opacity:1"
             d="m -213.6221,-118.37875 0.90895,0.032 0.17356,12.81667 -0.89524,-0.0548 z"
             id="path1615-9"
             sodipodi:nodetypes="ccccc"
             transform="matrix(0.80001737,0,0,0.80001737,-11.852225,366.8927)" />
          <path
             style="opacity:1;fill:#f4e3d7;fill-opacity:1;stroke:#000000;stroke-width:0.330722px;stroke-linecap:butt;stroke-linejoin:miter;stroke-opacity:1"
             d="m -221.1645,-192.80771 c 0,0 -11.91479,-2.03174 -16.8811,0.62198 -11.73187,9.19344 -22.72128,22.35587 -26.45776,37.08811 -1.26535,4.98903 12.10664,23.01011 21.21557,30.85589 7.42623,-0.18741 7.32208,-4.35149 5.17993,-9.54771 -2.9137,-7.21578 -12.98855,-16.02309 -12.22171,-19.8908 2.36254,-11.91591 9.61711,-16.74028 19.08249,-30.85266 2.42184,-3.61083 10.08258,-8.27481 10.08258,-8.27481 z"
             id="path1091"
             sodipodi:nodetypes="ccsccssc"
             transform="matrix(0.80001737,0,0,0.80001737,-11.852225,366.8927)" />
          <path
             style="opacity:1;fill:#f4e3d7;fill-opacity:1;stroke:#000000;stroke-width:0.330722px;stroke-linecap:butt;stroke-linejoin:miter;stroke-opacity:1"
             d="m -202.95678,-191.78456 c 0,0 11.91479,-2.03174 16.8811,0.62198 11.73187,9.19344 19.0464,18.34691 22.78288,33.07915 1.26535,4.98903 -10.94597,29.17315 -19.87925,34.53077 -4.73281,2.83844 -7.32208,-4.35149 -5.17993,-9.54771 2.9137,-7.21578 11.65223,-19.69797 10.88539,-23.56568 -2.36254,-11.91591 -5.94223,-12.73132 -15.40761,-26.8437 -2.42184,-3.61083 -10.08258,-8.27481 -10.08258,-8.27481 z"
             id="path1091-3"
             sodipodi:nodetypes="ccsscssc"
             transform="matrix(0.80001737,0,0,0.80001737,-11.852225,366.8927)" />
          <path
             style="opacity:1;fill:#ffd5e5;fill-opacity:1;stroke:#000000;stroke-width:0.330722px;stroke-linecap:butt;stroke-linejoin:miter;stroke-opacity:1"
             d="m -242.29776,-141.98685 c -4.92246,1.2512 -7.86662,5.35333 -9.86259,9.74449 -5.48438,-6.52561 -10.56462,-13.2867 -13.52418,-21.31976 4.52422,-15.48771 15.83309,-32.03616 27.63893,-38.62361 2.53375,-1.70769 10.67775,-1.63764 16.8811,-0.62196 -7.45829,4.15444 -9.72982,8.37806 -14.22702,14.58459 -6.14725,8.46478 -13.72126,16.94548 -14.70936,25.28223 1.77067,4.21062 4.93352,8.31133 7.80312,10.95402 z"
             id="path1108"
             sodipodi:nodetypes="cccccccc"
             transform="matrix(0.80001737,0,0,0.80001737,-11.852225,366.8927)" />
          <path
             style="opacity:1;fill:#ffd5e5;fill-opacity:1;stroke:#000000;stroke-width:0.330722px;stroke-linecap:butt;stroke-linejoin:miter;stroke-opacity:1"
             d="m -185.77972,-191.74279 c 12.12214,9.8373 20.82426,20.64421 23.68793,36.10839 -4.29199,10.51904 -8.48974,18.16907 -15.03357,26.72637 -2.91251,-4.83144 -5.46332,-6.29042 -10.5235,-8.35199 4.08731,-5.40864 7.04619,-11.52618 9.3542,-17.87326 -0.9383,-8.5489 -4.41535,-12.92449 -9.18719,-19.87774 -3.83541,-7.61073 -8.22831,-12.47364 -15.47493,-16.77354 5.55423,-0.84002 11.73217,-1.60434 17.17706,0.0418 z"
             id="path1110"
             sodipodi:nodetypes="cccccccc"
             transform="matrix(0.80001737,0,0,0.80001737,-11.852225,366.8927)" />
          <path
             style="opacity:1;fill:none;stroke:#ffffff;stroke-width:2.12495;stroke-linecap:butt;stroke-linejoin:miter;stroke-miterlimit:4;stroke-dasharray:none;stroke-opacity:1"
             d="m -203.95409,-191.70705 1.49033,73.39929"
             id="path1116"
             sodipodi:nodetypes="cc"
             transform="matrix(0.80001737,0,0,0.80001737,-11.852225,366.8927)" />
          <path
             style="opacity:1;fill:#f4e3d7;fill-opacity:1;stroke:#000000;stroke-width:0.330722px;stroke-linecap:butt;stroke-linejoin:miter;stroke-opacity:1"
             d="m -221.1645,-192.80771 7.67612,9.84498 10.53162,-8.82183 -8.60747,-3.75563 z"
             id="path1213"
             sodipodi:nodetypes="ccccc"
             transform="matrix(0.80001737,0,0,0.80001737,-11.852225,366.8927)" />
          <path
             style="opacity:1;fill:none;stroke:#ffffff;stroke-width:0.330722px;stroke-linecap:butt;stroke-linejoin:miter;stroke-opacity:1"
             d="m -221.15354,-192.63595 -2.06387,73.58796"
             id="path1118"
             sodipodi:nodetypes="cc"
             transform="matrix(0.80001737,0,0,0.80001737,-11.852225,366.8927)" />
          <path
             style="opacity:1;fill:none;stroke:#ffffff;stroke-width:0.330722px;stroke-linecap:butt;stroke-linejoin:miter;stroke-opacity:1"
             d="m -233.02946,-181.02317 -1.15879,61.54453"
             id="path1120"
             sodipodi:nodetypes="cc"
             transform="matrix(0.80001737,0,0,0.80001737,-11.852225,366.8927)" />
          <path
             style="opacity:1;fill:none;stroke:#af6f8a;stroke-width:2.12495;stroke-linecap:butt;stroke-linejoin:miter;stroke-miterlimit:4;stroke-dasharray:none;stroke-opacity:1"
             d="m -191.32375,-181.52558 v 63.52524"
             id="path1122"
             sodipodi:nodetypes="cc"
             transform="matrix(0.80001737,0,0,0.80001737,-11.852225,366.8927)" />
          <path
             style="opacity:1;fill:none;stroke:#af6f8a;stroke-width:2.12495;stroke-linecap:butt;stroke-linejoin:miter;stroke-miterlimit:4;stroke-dasharray:none;stroke-opacity:1"
             d="m -225.50324,-188.82468 -2.32288,69.61121"
             id="path1124"
             sodipodi:nodetypes="cc"
             transform="matrix(0.80001737,0,0,0.80001737,-11.852225,366.8927)" />
          <path
             style="opacity:1;fill:none;stroke:#ffffff;stroke-width:0.330722px;stroke-linecap:butt;stroke-linejoin:miter;stroke-opacity:1"
             d="m -194.83158,-184.5323 -0.094,66.39207"
             id="path1128"
             sodipodi:nodetypes="cc"
             transform="matrix(0.80001737,0,0,0.80001737,-11.852225,366.8927)" />
          <path
             style="opacity:1;fill:none;stroke:#af6f8a;stroke-width:0.956229;stroke-linecap:butt;stroke-linejoin:miter;stroke-miterlimit:4;stroke-dasharray:none;stroke-opacity:1"
             d="m -190.65559,-192.38317 23.88669,33.90908 -12.64491,25.89953"
             id="path1130"
             sodipodi:nodetypes="ccc"
             transform="matrix(0.80001737,0,0,0.80001737,-11.852225,366.8927)" />
          <path
             style="opacity:1;fill:none;stroke:#ffffff;stroke-width:0.330722px;stroke-linecap:butt;stroke-linejoin:miter;stroke-opacity:1"
             d="m -198.17237,-192.21613 23.05149,33.90908 -10.83091,21.58864"
             id="path1132"
             sodipodi:nodetypes="ccc"
             transform="matrix(0.80001737,0,0,0.80001737,-11.852225,366.8927)" />
          <path
             style="opacity:1;fill:none;stroke:#483746;stroke-width:1.08123;stroke-linecap:butt;stroke-linejoin:miter;stroke-miterlimit:4;stroke-dasharray:none;stroke-opacity:0.529412"
             d="m -225.17109,-193.36688 -29.20836,38.70537 8.74052,13.93757"
             id="path1134"
             sodipodi:nodetypes="ccc"
             transform="matrix(0.80001737,0,0,0.80001737,-11.852225,366.8927)" />
          <path
             style="opacity:1;fill:none;stroke:#ffffff;stroke-width:0.330722px;stroke-linecap:butt;stroke-linejoin:miter;stroke-opacity:1"
             d="m -231.43116,-193.24876 -30.70992,38.38737 12.5379,17.77631"
             id="path1136"
             sodipodi:nodetypes="ccc"
             transform="matrix(0.80001737,0,0,0.80001737,-11.852225,366.8927)" />
          <path
             style="opacity:1;fill:none;stroke:#ffffff;stroke-width:0.330722px;stroke-linecap:butt;stroke-linejoin:miter;stroke-opacity:1"
             d="m -235.78004,-176.23503 48.29819,1.22401 v 0"
             id="path1138"
             sodipodi:nodetypes="ccc"
             transform="matrix(0.80001737,0,0,0.80001737,-11.852225,366.8927)" />
          <path
             style="opacity:1;fill:#c8b7c4;stroke:#9e8191;stroke-width:1.24997;stroke-linecap:butt;stroke-linejoin:miter;stroke-miterlimit:4;stroke-dasharray:none;stroke-opacity:1"
             d="m -238.39997,-169.74388 53.50612,1.41739"
             id="path1140"
             transform="matrix(0.80001737,0,0,0.80001737,-11.852225,366.8927)" />
          <path
             style="opacity:1;fill:none;stroke:#af6f8a;stroke-width:0.330722px;stroke-linecap:butt;stroke-linejoin:miter;stroke-opacity:1"
             d="m -241.35282,-159.23164 58.82125,1.18115"
             id="path1142"
             transform="matrix(0.80001737,0,0,0.80001737,-11.852225,366.8927)" />
          <path
             style="opacity:1;fill:none;stroke:#af6f8a;stroke-width:1.24997;stroke-linecap:butt;stroke-linejoin:miter;stroke-miterlimit:4;stroke-dasharray:none;stroke-opacity:1"
             d="m -243.12456,-145.88465 60.94733,-0.35434"
             id="path1144"
             transform="matrix(0.80001737,0,0,0.80001737,-11.852225,366.8927)" />
          <path
             style="opacity:1;fill:none;stroke:#9e8191;stroke-width:0.330722px;stroke-linecap:butt;stroke-linejoin:miter;stroke-opacity:1"
             d="m -239.22677,-135.72676 51.61627,0.4134"
             id="path1146"
             transform="matrix(0.80001737,0,0,0.80001737,-11.852225,366.8927)" />
          <path
             style="opacity:1;fill:none;stroke:#9e8191;stroke-width:0.330722px;stroke-linecap:butt;stroke-linejoin:miter;stroke-opacity:1"
             d="m -243.3608,-188.28793 c 2.24301,3.71997 5.90881,5.60784 9.82677,7.10844"
             id="path1148"
             sodipodi:nodetypes="cc"
             transform="matrix(0.80001737,0,0,0.80001737,-11.852225,366.8927)" />
          <path
             style="opacity:1;fill:none;stroke:#af6f8a;stroke-width:0.330722px;stroke-linecap:butt;stroke-linejoin:miter;stroke-opacity:1"
             d="m -250.00682,-181.76593 c 2.43508,4.58879 6.64188,5.89074 11.20379,7.76327"
             id="path1150"
             sodipodi:nodetypes="cc"
             transform="matrix(0.80001737,0,0,0.80001737,-11.852225,366.8927)" />
          <path
             style="opacity:1;fill:none;stroke:#ffffff;stroke-width:0.330722px;stroke-linecap:butt;stroke-linejoin:miter;stroke-opacity:1"
             d="m -260.1331,-166.67288 c 3.2765,5.27437 5.59583,6.52134 11.57527,7.44124"
             id="path1152"
             sodipodi:nodetypes="cc"
             transform="matrix(0.80001737,0,0,0.80001737,-11.852225,366.8927)" />
          <path
             style="opacity:1;fill:none;stroke:#483746;stroke-width:0.330722px;stroke-linecap:butt;stroke-linejoin:miter;stroke-opacity:0.529412"
             d="m -263.20412,-148.24695 c 4.54241,-4.20546 8.29706,-3.85244 13.93759,-2.48041"
             id="path1154"
             sodipodi:nodetypes="cc"
             transform="matrix(0.80001737,0,0,0.80001737,-11.852225,366.8927)" />
          <path
             style="opacity:1;fill:none;stroke:#af6f8a;stroke-width:0.330722px;stroke-linecap:butt;stroke-linejoin:miter;stroke-opacity:1"
             d="m -191.32375,-181.52558 c 4.85224,-1.24322 6.9118,-2.4227 9.97332,-6.28989"
             id="path1156"
             sodipodi:nodetypes="cc"
             transform="matrix(0.80001737,0,0,0.80001737,-11.852225,366.8927)" />
          <path
             style="opacity:1;fill:none;stroke:#483746;stroke-width:0.330722px;stroke-linecap:butt;stroke-linejoin:miter;stroke-opacity:0.529412"
             d="m -185.83879,-173.16921 c 5.75058,-2.42359 7.23386,-4.3087 8.85862,-10.15789"
             id="path1158"
             sodipodi:nodetypes="cc"
             transform="matrix(0.80001737,0,0,0.80001737,-11.852225,366.8927)" />
          <path
             style="opacity:1;fill:none;stroke:#ffffff;stroke-width:0.330722px;stroke-linecap:butt;stroke-linejoin:miter;stroke-opacity:1"
             d="m -178.29466,-155.13328 v 0 0 l 2.25943,-1.38172"
             id="path1160"
             transform="matrix(0.80001737,0,0,0.80001737,-11.852225,366.8927)" />
          <path
             style="opacity:1;fill:none;stroke:#ffffff;stroke-width:0.330722px;stroke-linecap:butt;stroke-linejoin:miter;stroke-opacity:1"
             d="m -176.03523,-156.515 c 8.13865,0.25953 6.85178,-0.63182 12.34301,4.48837"
             id="path1162"
             sodipodi:nodetypes="cc"
             transform="matrix(0.80001737,0,0,0.80001737,-11.852225,366.8927)" />
          <path
             style="opacity:1;fill:none;stroke:#483746;stroke-width:0.330722px;stroke-linecap:butt;stroke-linejoin:miter;stroke-opacity:0.529412"
             d="m -182.17723,-146.23899 v 0 c 6.53126,0.0941 8.98716,1.12698 12.98626,5.72168"
             id="path1164"
             sodipodi:nodetypes="ccc"
             transform="matrix(0.80001737,0,0,0.80001737,-11.852225,366.8927)" />
          <path
             style="opacity:1;fill:#af6f8a;fill-opacity:1;stroke:none;stroke-width:0.330722px;stroke-linecap:butt;stroke-linejoin:miter;stroke-opacity:1"
             d="m -226.57025,-188.85681 2.12866,0.0756 0.0569,-1.6974 c -0.75247,0.50858 -1.46727,1.06697 -2.18552,1.6218 z"
             id="path1170"
             sodipodi:nodetypes="cccc"
             transform="matrix(0.80001737,0,0,0.80001737,-11.852225,366.8927)" />
          <path
             style="opacity:1;fill:#9e8191;fill-opacity:1;stroke:none;stroke-width:0.330722px;stroke-linecap:butt;stroke-linejoin:miter;stroke-opacity:1"
             d="m -233.48103,-181.33594 -0.1111,0.30747 0.19251,-0.27775 z"
             id="path1174"
             sodipodi:nodetypes="cccc"
             transform="matrix(0.80001737,0,0,0.80001737,-11.852225,366.8927)" />
          <path
             style="opacity:1;fill:#ffffff;fill-opacity:1;stroke:none;stroke-width:0.330722px;stroke-linecap:butt;stroke-linejoin:miter;stroke-opacity:1"
             d="m -233.19292,-181.02072 h 0.32682 l 0.007,-0.47283 z"
             id="path1176"
             transform="matrix(0.80001737,0,0,0.80001737,-11.852225,366.8927)" />
          <path
             style="opacity:1;fill:#ffffff;fill-opacity:1;stroke:none;stroke-width:0.330722px;stroke-linecap:butt;stroke-linejoin:miter;stroke-opacity:1"
             d="m -235.77929,-176.07022 -0.15631,0.001 0.1602,-0.32943 z"
             id="path1178"
             sodipodi:nodetypes="cccc"
             transform="matrix(0.80001737,0,0,0.80001737,-11.852225,366.8927)" />
          <path
             style="opacity:1;fill:#af6f8a;fill-opacity:1;stroke:none;stroke-width:0.330722px;stroke-linecap:butt;stroke-linejoin:miter;stroke-opacity:1"
             d="m -238.74028,-174.15695 -0.11249,0.27484 -0.0128,0.0313 0.21448,-0.27517 z"
             id="path1180"
             sodipodi:nodetypes="ccccc"
             transform="matrix(0.80001737,0,0,0.80001737,-11.852225,366.8927)" />
          <path
             style="fill:#f4e3d7;fill-opacity:1;stroke:#000000;stroke-width:0.264583px;stroke-linecap:butt;stroke-linejoin:miter;stroke-opacity:1"
             d="m -259.46176,114.67798 c -0.87524,-4.2872 -3.6092,-8.06478 -6.01404,-7.56267 -11.25798,2.35055 2.50825,33.18054 8.68626,46.77217"
             id="path903"
             sodipodi:nodetypes="csc" />
          <path
             id="path847"
             style="fill:#f4e3d7;stroke:#000000;stroke-width:0.286546;stroke-linecap:round;stroke-linejoin:round;stroke-opacity:1"
             d="m -177.34594,46.410606 c -46.12761,1.29e-4 -83.52138,37.393912 -83.5215,83.521514 -1.7e-4,46.1278 37.39369,83.5219 83.5215,83.52203 46.12781,-1.1e-4 83.52169,-37.39421 83.52152,-83.52203 5e-5,-11.44167 -2.35073,-22.76134 -6.90655,-33.256882 -23.19158,-21.405759 -46.23929,-43.764685 -73.41775,-38.757325 l 5.81721,-11.019482 c -2.99382,-0.324999 -6.00303,-0.487845 -9.01443,-0.487825 z"
             sodipodi:nodetypes="cccccccc" />
          <path
             style="fill:#cccccc;stroke:#000000;stroke-width:0.264583px;stroke-linecap:butt;stroke-linejoin:miter;stroke-opacity:1"
             d="m -259.46176,114.67798 c 6.8603,-3.66325 11.60398,-9.1302 15.65432,-15.181062 0.0692,-0.10333 0.13098,-0.211945 0.2069,-0.310493 0.83886,-1.088898 1.57201,-8.01338 1.57201,-8.01338 0,0 0.53963,4.616097 -0.41904,6.234169 -0.13326,0.224928 0.27931,-0.442174 0.41801,-0.66406 5.30542,-8.487401 9.71046,-17.727101 16.86914,-24.587499 5.47856,-4.470348 7.80294,-4.652737 14.55208,-5.10268 9.07851,3.31182 19.59975,5.264045 26.64733,11.528274 -1.14565,-1.853326 -2.83561,-3.741108 -1.13393,-5.480656 7.8342,-5.144278 14.55871,-7.135958 22.30059,-9.071427 3.11314,3.189196 -0.31031,5.893096 -6.23661,9.638392 7.46253,0.466369 11.7703,-3.824271 15.30804,-10.394344 7.17592,5.32117 -2.90987,10.348013 -7.18155,10.961309 10.93115,2.509357 15.95,-9.831217 15.11905,-10.016368 21.44209,9.953185 31.03615,48.483555 51.31026,55.137275 -1.24486,-10.19518 -4.24167,-19.577305 -8.61972,-27.980994 -0.14223,-0.272994 -5.88865,-8.22604 -5.88865,-8.22604 0.94556,1.676285 2.74557,3.417186 4.4982,3.740625 2.13724,0.394418 2.89016,-0.861802 3.61203,-1.50904 -0.20529,0.09676 -1.80619,0.891441 -3.13653,0.469156 -1.45647,-0.462323 -3.22184,-1.755671 -4.20834,-3.727907 -0.0512,-0.102393 0.96758,1.768824 2.55911,1.93694 1.35912,0.479906 2.65717,0.07943 3.87105,-0.531307 -3.44823,-0.09914 -5.65876,-1.665392 -9.04178,-5.0953 -0.1396,-0.389752 -0.51792,-0.645786 -0.78046,-0.965446 -16.48125,-20.067624 -42.29694,-31.623936 -68.76692,-31.385679 -55.63965,3.318654 -75.51639,47.197036 -79.08459,68.597542 z"
             id="path849"
             sodipodi:nodetypes="csscssccccccccccccscsscccscc" />
          <path
             style="fill:none;stroke:#000000;stroke-width:0.165;stroke-linecap:butt;stroke-linejoin:miter;stroke-miterlimit:4;stroke-dasharray:none;stroke-opacity:1"
             d="m -230.73557,94.645238 c 9.599,-5.249465 22.99935,0.55092 32.31697,4.157737"
             id="path851"
             sodipodi:nodetypes="cc" />
          <path
             style="fill:none;stroke:#000000;stroke-width:0.165;stroke-linecap:butt;stroke-linejoin:miter;stroke-miterlimit:4;stroke-dasharray:none;stroke-opacity:1"
             d="m -192.74896,100.22038 c 15.48297,1.21171 30.32908,-5.060922 45.45164,0.0945"
             id="path853"
             sodipodi:nodetypes="cc" />
          <path
             style="fill:none;stroke:#000000;stroke-width:0.264583px;stroke-linecap:butt;stroke-linejoin:miter;stroke-opacity:1"
             d="m -231.01905,102.77173 c 2.77642,-1.39364 5.14218,-2.49141 8.59896,-2.26786 7.19897,1.19364 15.17817,5.40351 20.69419,6.70908 11.20231,2.23968 22.68823,0.42669 33.92336,-0.75596 7.8141,-0.52084 13.57434,0.74152 20.6942,3.87426"
             id="path855"
             sodipodi:nodetypes="ccccc" />
          <path
             style="fill:none;stroke:#000000;stroke-width:0.065;stroke-linecap:butt;stroke-linejoin:miter;stroke-miterlimit:4;stroke-dasharray:none;stroke-opacity:1"
             d="m -212.68721,83.778423 c 5.20045,-0.400023 10.28628,1.233888 15.11905,3.023805"
             id="path857"
             sodipodi:nodetypes="cc" />
          <path
             style="fill:none;stroke:#000000;stroke-width:0.065;stroke-linecap:butt;stroke-linejoin:miter;stroke-miterlimit:4;stroke-dasharray:none;stroke-opacity:1"
             d="m -186.60685,90.487499 c 5.12003,0.692054 9.32124,-1.783209 14.64658,-3.685267 9.61167,-1.255352 11.87173,1.822823 17.76488,3.590774"
             id="path859"
             sodipodi:nodetypes="ccc" />
          <path
             style="fill:#333333;stroke:#000000;stroke-width:0.264583px;stroke-linecap:butt;stroke-linejoin:miter;stroke-opacity:1"
             d="m -181.40968,140.66384 c 7.21556,-11.90698 19.5404,-12.69823 30.89956,-6.3311 l 0.85044,0.56696 -2.92931,-9.26042 c -9.90227,-2.06493 -22.03082,3.16427 -27.49777,8.59896 z"
             id="path861"
             sodipodi:nodetypes="cccccc" />
          <path
             style="fill:#333333;stroke:#000000;stroke-width:0.264583px;stroke-linecap:butt;stroke-linejoin:miter;stroke-opacity:1"
             d="m -205.78914,141.79777 2.17336,-3.3073 c -5.09576,-10.40589 -15.97508,-17.49658 -27.68675,-15.49702 0.0777,1.8388 0.33174,3.65768 0.56696,5.48066 13.67271,-2.12351 19.80171,0.91579 24.94643,13.32366 z"
             id="path863"
             sodipodi:nodetypes="ccccc" />
          <path
             style="fill:none;stroke:#000000;stroke-width:2;stroke-linecap:round;stroke-linejoin:miter;stroke-miterlimit:4;stroke-dasharray:none;stroke-opacity:1"
             d="m -138.98185,149.07381 c -7.2584,-5.303 -15.1415,-7.2954 -23.52902,-10.20536"
             id="path865"
             sodipodi:nodetypes="cc" />
          <circle
             style="fill:#000000;stroke-width:0.264999;stroke-linecap:round;stroke-linejoin:round"
             id="path867"
             cx="-163.64481"
             cy="145.29405"
             r="7.4650292" />
          <path
             style="fill:none;stroke:#000000;stroke-width:0.264583px;stroke-linecap:butt;stroke-linejoin:miter;stroke-opacity:1"
             d="m -195.67828,129.60803 c -4.00315,15.10561 -8.41729,29.39888 -14.17411,43.84524 3.48865,5.88348 13.0602,2.25 17.10343,-2.55134"
             id="path869"
             sodipodi:nodetypes="ccc" />
          <path
             style="fill:#ffffff;stroke:#000000;stroke-width:0.264583px;stroke-linecap:butt;stroke-linejoin:miter;stroke-opacity:1"
             d="m -221.66414,182.6192 c 16.88315,5.4319 31.81242,3.4069 48.28646,-1.79539 1.34199,2.86829 1.44347,5.61396 1.5119,8.69345 -1.61468,2.23947 -7.15707,5.41996 -7.15707,5.41996 0,0 -31.47765,4.19129 -40.65691,-3.1521 z"
             id="path871"
             sodipodi:nodetypes="cccccc" />
          <path
             style="opacity:0.653595;fill:none;stroke:#000000;stroke-width:1.365;stroke-linecap:round;stroke-linejoin:miter;stroke-miterlimit:4;stroke-dasharray:none;stroke-opacity:1"
             d="m -167.70804,172.41384 c 10.12858,9.2253 19.12132,14.04125 14.17411,26.55282"
             id="path873"
             sodipodi:nodetypes="cc" />
          <path
             style="opacity:0.529412;fill:none;stroke:#000000;stroke-width:1.065;stroke-linecap:round;stroke-linejoin:miter;stroke-miterlimit:4;stroke-dasharray:none;stroke-opacity:1"
             d="m -220.24673,168.53958 c -2.98974,2.59483 -4.62725,5.95894 -6.52009,9.35491"
             id="path875"
             sodipodi:nodetypes="cc" />
          <path
             style="fill:none;stroke:#000000;stroke-width:2;stroke-linecap:round;stroke-linejoin:miter;stroke-miterlimit:4;stroke-dasharray:none;stroke-opacity:1"
             d="m -241.96529,142.57976 c 6.83185,-4.99136 14.19605,-6.3942 22.09067,-9.13315"
             id="path865-8"
             sodipodi:nodetypes="cc" />
          <circle
             style="fill:#000000;stroke-width:0.264999;stroke-linecap:round;stroke-linejoin:round"
             id="path867-3"
             cx="219.02417"
             cy="139.85582"
             transform="scale(-1,1)"
             r="7.4650297" />
          <path
             style="opacity:0.732026;fill:none;stroke:#000000;stroke-width:1.265;stroke-linecap:round;stroke-linejoin:miter;stroke-miterlimit:4;stroke-dasharray:none;stroke-opacity:1"
             d="m -175.91133,177.91022 c 4.68358,2.87542 5.31816,7.4794 7.46503,12.47321"
             id="path897"
             sodipodi:nodetypes="cc" />
          <path
             style="fill:#f4e3d7;fill-opacity:1;stroke:#000000;stroke-width:0.264583px;stroke-linecap:butt;stroke-linejoin:miter;stroke-opacity:1"
             d="m -94.95784,114.06432 c 3.32844,-6.04144 5.17953,-10.2619 11.35896,-9.28762 11.58158,1.82602 1.65251,38.47272 -5.87994,41.09269 l -6.1472,2.13815 h -0.4009"
             id="path901"
             sodipodi:nodetypes="csscc" />
          <path
             style="fill:#cccccc;fill-opacity:1;stroke:#000000;stroke-width:0.264583px;stroke-linecap:butt;stroke-linejoin:miter;stroke-opacity:1"
             d="m -173.05546,51.573319 c -3.96068,-1.436413 0.25386,-9.45783 9.55702,-11.393098 -13.73631,-0.361729 -18.45702,10.338893 -15.3818,13.549213"
             id="path18768-6-7-0"
             sodipodi:nodetypes="ccc" />
          <path
             style="fill:#cccccc;fill-opacity:1;stroke:#000000;stroke-width:0.264583px;stroke-linecap:butt;stroke-linejoin:miter;stroke-opacity:1"
             d="m -178.88024,53.729434 c -4.35608,-1.205235 -3.49096,-13.729251 6.32611,-16.401773 -13.73631,-0.361731 -15.22611,15.347568 -12.15089,18.557888"
             id="path18768-6-7-4-1"
             sodipodi:nodetypes="ccc" />
          <path
             style="fill:none;stroke:#000000;stroke-width:0.264583px;stroke-linecap:butt;stroke-linejoin:miter;stroke-opacity:1"
             d="m -134.84017,61.72481 c 7.92324,1.642383 11.16956,20.097854 19.69732,14.412674"
             id="path18850"
             sodipodi:nodetypes="cc" />
          <path
             style="fill:none;stroke:#000000;stroke-width:0.264583px;stroke-linecap:butt;stroke-linejoin:miter;stroke-opacity:1"
             d="m -123.40612,78.731766 c 2.45321,6.495207 7.14166,16.687059 15.08527,11.722309"
             id="path18852"
             sodipodi:nodetypes="cc" />
          <path
             style="fill:none;stroke:#000000;stroke-width:0.264583px;stroke-linecap:butt;stroke-linejoin:miter;stroke-opacity:1"
             d="m -222.18098,60.283542 c -2.61136,7.665768 -11.60944,17.798427 -15.37352,12.683154"
             id="path18854"
             sodipodi:nodetypes="cc" />
          <path
             style="fill:none;stroke:#000000;stroke-width:0.264583px;stroke-linecap:butt;stroke-linejoin:miter;stroke-opacity:1"
             d="m -156.17093,57.785345 c -0.10034,6.800067 -1.45317,7.866827 -6.53375,11.818394"
             id="path18856"
             sodipodi:nodetypes="cc" />
          <path
             style="fill:none;stroke:#000000;stroke-width:0.264583px;stroke-linecap:butt;stroke-linejoin:miter;stroke-opacity:1"
             d="m -178.84687,58.554021 c -4.42676,-4.436054 -7.98826,-12.491346 -1.72952,-17.103041"
             id="path18858"
             sodipodi:nodetypes="cc" />
          <path
             style="fill:none;stroke:#ffffff;stroke-width:0.264583px;stroke-linecap:butt;stroke-linejoin:miter;stroke-opacity:1"
             d="m -137.8901,66.084411 c 9.24041,-0.0041 13.84933,16.748146 19.69732,14.412674"
             id="path18850-7"
             sodipodi:nodetypes="cc" />
          <path
             style="fill:none;stroke:#ffffff;stroke-width:0.264583px;stroke-linecap:butt;stroke-linejoin:miter;stroke-opacity:1"
             d="m -118.04661,88.983594 c 2.45977,6.475533 9.10957,10.783317 15.08527,11.722306"
             id="path18852-0"
             sodipodi:nodetypes="cc" />
          <path
             style="fill:none;stroke:#ffffff;stroke-width:0.264583px;stroke-linecap:butt;stroke-linejoin:miter;stroke-opacity:1"
             d="m -228.33973,70.596757 c -3.31777,2.014439 -11.88625,15.583894 -15.37352,12.683154"
             id="path18854-2"
             sodipodi:nodetypes="cc" />
          <path
             style="fill:#ffd5e5;fill-opacity:1;stroke:#000000;stroke-width:0.264583px;stroke-linecap:butt;stroke-linejoin:miter;stroke-opacity:1"
             d="m -174.22117,213.46171 c 1.29267,-1.35088 1.2239,-2.17522 1.11752,-3.93061 5.34241,0.84226 10.75268,0.90605 16.13958,0.59526 -0.31906,2.03671 -1.84357,2.40861 -3.51518,3.36874 z"
             id="path1254"
             sodipodi:nodetypes="ccccc" />
          <path
             style="opacity:1;fill:#ffd5e5;fill-opacity:1;stroke:#000000;stroke-width:0.264583px;stroke-linecap:butt;stroke-linejoin:miter;stroke-opacity:1"
             d="m -188.7789,212.78059 c -1.29267,-1.35088 -1.2239,-2.17522 -1.11752,-3.93061 -5.34241,0.84226 -10.75268,0.90605 -16.13958,0.59526 0.31906,2.03671 1.84357,2.40861 3.51518,3.36874 z"
             id="path1254-2"
             sodipodi:nodetypes="ccccc" />
          <path
             style="fill:none;stroke:#000000;stroke-width:0.965;stroke-linecap:butt;stroke-linejoin:miter;stroke-miterlimit:4;stroke-dasharray:none;stroke-opacity:1"
             d="m -182.64664,220.51933 -0.10698,51.6683"
             id="path1271" />
          <path
             style="fill:none;stroke:#ffffff;stroke-width:0.264583px;stroke-linecap:butt;stroke-linejoin:miter;stroke-opacity:1"
             d="m -166.76476,61.635253 c -4.42675,-4.436054 -4.72138,-12.491346 1.53735,-17.103041"
             id="path18858-7"
             sodipodi:nodetypes="cc" />
          <path
             style="fill:none;stroke:#ffffff;stroke-width:0.264583px;stroke-linecap:butt;stroke-linejoin:miter;stroke-opacity:1"
             d="m -242.07048,91.174707 c -1.01972,-5.67298 -4.5731,-4.41595 -2.1619,-10.281041"
             id="path18962"
             sodipodi:nodetypes="cc" />
          <path
             style="opacity:1;fill:none;stroke:#000000;stroke-width:0.264583px;stroke-linecap:butt;stroke-linejoin:miter;stroke-opacity:1"
             d="m -185.77429,47.632561 c -3.85645,4.189327 -15.86968,5.49749 -13.83617,12.394901"
             id="path18854-7"
             sodipodi:nodetypes="cc" />
          <path
             style="opacity:1;fill:none;stroke:#000000;stroke-width:0.264583px;stroke-linecap:butt;stroke-linejoin:miter;stroke-opacity:1"
             d="m -192.30804,48.689491 c -12.66529,2.148367 -16.21652,10.15658 -9.03194,11.049718"
             id="path18854-6"
             sodipodi:nodetypes="cc" />
          <path
             style="opacity:1;fill:none;stroke:#ffffff;stroke-width:0.264583px;stroke-linecap:butt;stroke-linejoin:miter;stroke-opacity:1"
             d="m -183.49137,56.487778 c -10.97117,1.771894 -18.45048,12.265098 -11.72231,13.259662"
             id="path18854-6-9"
             sodipodi:nodetypes="cc" />
        </g>
        <path
           style="fill:#cccccc;fill-opacity:1;stroke:#000000;stroke-width:0.264583px;stroke-linecap:butt;stroke-linejoin:miter;stroke-opacity:1"
           d="m -232.82709,74.451938 c 1.54975,4.900671 1.03366,8.410333 -5.70713,8.764519 11.42268,3.876339 10.52127,-8.177748 9.10423,-12.229561"
           id="path18768"
           sodipodi:nodetypes="ccc" />
        <path
           style="fill:#cccccc;fill-opacity:1;stroke:#000000;stroke-width:0.264583px;stroke-linecap:butt;stroke-linejoin:miter;stroke-opacity:1"
           d="m -227.09953,69.884264 c 1.54975,4.900672 1.03366,8.410334 -5.70713,8.76452 11.42268,3.876339 13.57866,-7.634213 12.16162,-11.686026"
           id="path18768-7"
           sodipodi:nodetypes="ccc" />
        <path
           style="fill:#cccccc;fill-opacity:1;stroke:#000000;stroke-width:0.264583px;stroke-linecap:butt;stroke-linejoin:miter;stroke-opacity:1"
           d="m -214.84167,67.582142 c 3.18036,0.960036 7.42021,6.100306 0.13588,9.308056 13.73271,0.479239 8.75478,-8.177749 5.70713,-11.414258"
           id="path18768-6"
           sodipodi:nodetypes="ccc" />
        <path
           style="fill:#cccccc;fill-opacity:1;stroke:#000000;stroke-width:0.264583px;stroke-linecap:butt;stroke-linejoin:miter;stroke-opacity:1"
           d="m -171.2718,53.642855 c -3.61516,-3.477201 3.95062,-12.949538 14.53336,-9.890359 -11.09124,-8.111808 -21.25319,3.960323 -20.55035,8.34999"
           id="path18768-6-7-4"
           sodipodi:nodetypes="ccc" />
        <path
           style="fill:#cccccc;fill-opacity:1;stroke:#000000;stroke-width:0.264583px;stroke-linecap:butt;stroke-linejoin:miter;stroke-opacity:1"
           d="m -165.25481,55.183224 c -2.34195,-2.848027 5.02331,-6.960971 14.34119,-3.93312 -8.81353,-7.374903 -18.98483,-1.325207 -20.35818,2.392751"
           id="path18768-6-7"
           sodipodi:nodetypes="ccc" />
      </g>
    </g>
  </g>
</svg>
