<?xml version="1.0" encoding="UTF-8" standalone="no"?>
<svg
   xmlns:dc="http://purl.org/dc/elements/1.1/"
   xmlns:cc="http://creativecommons.org/ns#"
   xmlns:rdf="http://www.w3.org/1999/02/22-rdf-syntax-ns#"
   xmlns:svg="http://www.w3.org/2000/svg"
   xmlns="http://www.w3.org/2000/svg"
   xmlns:sodipodi="http://sodipodi.sourceforge.net/DTD/sodipodi-0.dtd"
   xmlns:inkscape="http://www.inkscape.org/namespaces/inkscape"
   width="210mm"
   height="297mm"
   viewBox="0 0 210 297"
   version="1.1"
   id="svg8"
   sodipodi:docname="Judt.svg"
   inkscape:version="1.0.1 (3bc2e813f5, 2020-09-07)">
  <defs
     id="defs2" />
  <sodipodi:namedview
     id="base"
     pagecolor="#ffffff"
     bordercolor="#666666"
     borderopacity="1.0"
     inkscape:pageopacity="0.0"
     inkscape:pageshadow="2"
     inkscape:zoom="0.22029221"
     inkscape:cx="-1448.7094"
     inkscape:cy="482.86863"
     inkscape:document-units="mm"
     inkscape:current-layer="g1648"
     inkscape:document-rotation="0"
     showgrid="false"
     inkscape:window-width="1920"
     inkscape:window-height="1017"
     inkscape:window-x="1912"
     inkscape:window-y="-8"
     inkscape:window-maximized="1"
     showguides="true"
     inkscape:guide-bbox="true"
     inkscape:snap-nodes="false" />
  <metadata
     id="metadata5">
    <rdf:RDF>
      <cc:Work
         rdf:about="">
        <dc:format>image/svg+xml</dc:format>
        <dc:type
           rdf:resource="http://purl.org/dc/dcmitype/StillImage" />
      </cc:Work>
    </rdf:RDF>
  </metadata>
  <g
     inkscape:label="Layer 1"
     inkscape:groupmode="layer"
     id="layer1">
    <g
       id="g1648"
       transform="matrix(0.80001737,0,0,0.80001737,-230.77349,43.08135)">
      <g
         id="g16115">
        <circle
           style="opacity:1;fill:#ff8080;stroke:#000000;stroke-width:0.678588"
           id="path886"
           cx="423.14197"
           cy="64.750229"
           r="94.560684" />
        <path
           style="fill:#ff8080;fill-opacity:1;stroke:#000000;stroke-width:0.264583px;stroke-linecap:butt;stroke-linejoin:miter;stroke-opacity:1"
           d="m 330.62076,76.44326 c -1.65312,-3.406526 -2.04593,-5.1111 -5.55421,-5.992683 -4.04214,-1.015735 -5.03283,2.020132 -5.40803,5.846521 -0.42752,4.359908 2.46414,8.196051 4.53107,11.985366 3.91519,6.078022 8.78453,10.802139 13.44699,16.297176"
           id="path1229"
           sodipodi:nodetypes="csscc" />
        <path
           style="opacity:0.277778;fill:#e3dedb;stroke:#000000;stroke-width:0.264583px;stroke-linecap:butt;stroke-linejoin:miter;stroke-opacity:1"
           d="m 332.22855,90.621074 c 11.17782,36.097576 37.8797,63.681486 86.38234,69.281276 34.22748,-2.01471 73.1564,-11.57564 94.42132,-64.604059 -9.70677,8.747579 -18.63371,17.777609 -29.23262,25.432369 -37.86126,7.93281 -91.94464,-25.871833 -105.5297,-16.07794 -5.63702,4.17315 -11.30249,8.26991 -17.24723,11.98537 -13.16464,-2.6437 -21.44605,-17.590455 -28.79411,-26.017016 z"
           id="path1225"
           sodipodi:nodetypes="ccccccc" />
        <path
           style="fill:#000000;stroke:#000000;stroke-width:0.265;stroke-linecap:round;stroke-linejoin:bevel;stroke-miterlimit:4;stroke-dasharray:none;stroke-opacity:1"
           d="m 379.58537,117.80739 3.36175,-0.73081 c 18.60225,8.42306 38.57896,13.8993 58.90368,15.93177 -20.71424,-0.45209 -44.13244,-4.45547 -62.26543,-15.20096 z"
           id="path888"
           sodipodi:nodetypes="cccc" />
        <path
           style="fill:#ac9d93;stroke:none;stroke-width:0.264583px;stroke-linecap:butt;stroke-linejoin:miter;stroke-opacity:1"
           d="m 339.53669,21.339801 c 17.74672,-9.55624 30.72848,-25.4879564 46.18752,-38.002385 0.66603,-0.398658 3.6007,-2.10575 5.46788,-1.848411 1.5117,0.208346 2.07443,2.27405 2.13259,2.871552 -2.03619,7.8802751 -3.99415,16.01549178 -3.5079,24.1168982 1.01859,16.9708248 29.20816,18.6805998 36.39458,12.1315308 9.78129,-8.913804 6.01714,-24.3750688 13.73934,-34.494473 2.98269,-3.908612 6.26786,-4.008932 10.52374,-1.900119 16.38346,8.1181095 29.83882,21.45122 42.09495,34.932962 4.76542,5.802421 9.29147,6.11078 12.86235,-0.584652 C 502.2932,12.148791 500.2784,9.1827266 494.61565,2.9232605 473.9238,-19.949044 449.29193,-29.944966 419.04938,-29.524931 c -15.60026,1.180517 -24.9555,2.120777 -40.48716,10.816064 -17.49635,9.7952012 -32.44311,23.9584641 -39.02553,40.048668 z"
           id="path890"
           sodipodi:nodetypes="ccscssssccscsc" />
        <g
           id="g1042"
           transform="matrix(0.23900032,-0.03543721,0.03543721,0.23900032,306.50438,146.37212)"
           style="opacity:1;fill:#ffffff;fill-opacity:1">
          <path
             style="fill:none;fill-opacity:1;stroke:#000000;stroke-width:17.265;stroke-linecap:round;stroke-linejoin:round;stroke-miterlimit:4;stroke-dasharray:none;stroke-opacity:1"
             d="m 650.67533,-215.79103 c -59.88746,5.44843 -115.10352,5.28466 -165.89517,36.91093 v 0"
             id="path1006"
             sodipodi:nodetypes="ccc" />
          <path
             style="fill:#ffffff;fill-opacity:1;stroke:#000000;stroke-width:6.565;stroke-linecap:butt;stroke-linejoin:miter;stroke-miterlimit:4;stroke-dasharray:none;stroke-opacity:1"
             d="m 484.51822,-177.76692 170.32552,-4.13412"
             id="path1030" />
          <path
             style="fill:#ffe990;fill-opacity:1;stroke:#000000;stroke-width:1.765;stroke-linecap:butt;stroke-linejoin:miter;stroke-miterlimit:4;stroke-dasharray:none;stroke-opacity:1"
             d="m 489.47916,-175.28646 c -4.7631,139.46859 182.90185,158.619025 160.40364,-7.4414 z"
             id="path1034"
             sodipodi:nodetypes="ccc" />
          <path
             style="fill:none;fill-opacity:1;stroke:#000000;stroke-width:6.76701;stroke-linecap:butt;stroke-linejoin:miter;stroke-miterlimit:4;stroke-dasharray:none;stroke-opacity:1"
             d="m 571.33463,-158.75 c 16.89009,27.70043 7.31558,39.10142 -0.712,68.535877"
             id="path1036"
             sodipodi:nodetypes="cc" />
        </g>
        <path
           style="fill:#ffe990;fill-opacity:1;stroke:#000000;stroke-width:0.264583px;stroke-linecap:butt;stroke-linejoin:miter;stroke-opacity:1"
           d="m 356.77408,77.721353 c -3.29418,3.388374 -4.79592,9.013805 -4.13411,13.229167 1.59043,6.519386 7.25884,11.9238 13.22917,13.22917 6.51436,0.76357 13.10909,-2.73964 15.29622,-8.681644 0.60115,-1.693192 0.7588,-3.611118 0.41341,-5.374349 -1.0569,-3.921787 -14.04138,-7.880434 -24.80469,-12.402344 z"
           id="path1197"
           sodipodi:nodetypes="cccccc" />
        <path
           style="fill:none;stroke:#000000;stroke-width:1.15;stroke-linecap:butt;stroke-linejoin:miter;stroke-miterlimit:4;stroke-dasharray:none;stroke-opacity:1"
           d="m 365.45572,85.576171 c 2.55009,5.026404 2.50925,6.561814 0,11.162109"
           id="path1199"
           sodipodi:nodetypes="cc" />
        <path
           style="fill:none;stroke:#000000;stroke-width:4.665;stroke-linecap:round;stroke-linejoin:miter;stroke-miterlimit:4;stroke-dasharray:none;stroke-opacity:1"
           d="M 381.16536,86.402994 C 372.33596,76.130763 360.7051,72.726097 348.50585,67.799478"
           id="path1201"
           sodipodi:nodetypes="cc" />
        <path
           style="fill:none;stroke:#000000;stroke-width:1.165;stroke-linecap:butt;stroke-linejoin:miter;stroke-miterlimit:4;stroke-dasharray:none;stroke-opacity:1"
           d="M 378.68489,87.229817 355.53385,76.89453"
           id="path1203" />
        <path
           style="fill:none;stroke:#000000;stroke-width:3.765;stroke-linecap:round;stroke-linejoin:miter;stroke-miterlimit:4;stroke-dasharray:none;stroke-opacity:1"
           d="M 414.21718,75.709232 C 416.55005,65.67447 436.95002,63.14684 445.26526,61.129959"
           id="path1211"
           sodipodi:nodetypes="cc" />
        <path
           style="fill:none;stroke:#000000;stroke-width:3.365;stroke-linecap:round;stroke-linejoin:miter;stroke-miterlimit:4;stroke-dasharray:none;stroke-opacity:1"
           d="M 385.09278,72.967121 C 373.60652,63.198189 362.76791,60.548726 348.50585,57.257486"
           id="path1215"
           sodipodi:nodetypes="cc" />
        <path
           style="fill:#f86673;fill-opacity:1;stroke:none;stroke-width:0.330722px;stroke-linecap:butt;stroke-linejoin:miter;stroke-opacity:1"
           d="m 469.63541,49.816082 c 2.84927,-2.120039 0.67945,-7.214374 11.42966,-7.736833 -6.49823,0.930473 -13.74221,-12.071779 1.77605,-8.767341 -2.34343,-2.417647 -4.80917,-3.993127 -3.28384,-7.783751 -7.65873,5.138941 -10.93778,1.196484 -11.26546,-4.237469 -1.02963,1.332179 -2.96825,1.927835 -6.61458,0.723468 9.28338,4.750289 5.18729,15.949054 -5.58107,9.508465 3.91887,4.383557 3.06462,5.817091 3.1006,8.784995 7.96411,-5.490217 14.79212,-0.925434 10.43864,9.508466 z"
           id="path15901"
           sodipodi:nodetypes="ccccccccc" />
        <path
           style="opacity:1;mix-blend-mode:normal;fill:none;stroke:#000000;stroke-width:0.24999457;stroke-linecap:butt;stroke-linejoin:miter;stroke-miterlimit:4;stroke-dasharray:none;stroke-opacity:1"
           d="m 459.19678,40.307617 c 8.6457,-6.606022 14.61061,1.749344 10.43863,9.508463"
           id="path1217"
           sodipodi:nodetypes="cc" />
        <path
           style="opacity:1;mix-blend-mode:normal;fill:none;stroke:#000000;stroke-width:0.24999457;stroke-linecap:butt;stroke-linejoin:miter;stroke-miterlimit:4;stroke-dasharray:none;stroke-opacity:1"
           d="m 456.09618,31.522625 c 8.64418,6.231104 16.21353,-4.088866 5.58107,-9.508465"
           id="path1219"
           sodipodi:nodetypes="cc" />
        <path
           style="opacity:1;mix-blend-mode:normal;fill:none;stroke:#000000;stroke-width:0.24999457;stroke-linecap:butt;stroke-linejoin:miter;stroke-miterlimit:4;stroke-dasharray:none;stroke-opacity:1"
           d="m 468.29183,21.29069 c 0.24776,7.584978 6.61949,8.161611 11.26546,4.237467"
           id="path1221"
           sodipodi:nodetypes="cc" />
        <path
           style="opacity:1;mix-blend-mode:normal;fill:none;stroke:#000000;stroke-width:0.24999457;stroke-linecap:butt;stroke-linejoin:miter;stroke-miterlimit:4;stroke-dasharray:none;stroke-opacity:1"
           d="m 480.97124,42.008876 c -7.68992,0.444107 -12.2268,-12.419313 1.75259,-8.626597"
           id="path1223"
           sodipodi:nodetypes="cc" />
        <path
           style="opacity:1;fill:#c8c4b7;fill-opacity:1;stroke:#000000;stroke-width:0.264583px;stroke-linecap:butt;stroke-linejoin:miter;stroke-opacity:1"
           d="m 408.52566,158.14839 c -16.36174,8.16275 -22.67227,35.11486 -22.2168,52.32636 0.60133,22.72343 6.81387,33.07259 27.6603,35.15688 24.65408,2.46499 34.84242,-17.52587 34.89749,-35.01072 0.0515,-16.34335 -4.50577,-43.03952 -22.2168,-51.15705 -6.81787,0.99863 -11.50377,-0.0741 -18.12419,-1.31547 z"
           id="path1242"
           sodipodi:nodetypes="cssscc" />
        <path
           style="fill:#c8c4b7;fill-opacity:1;stroke:#000000;stroke-width:0.264583px;stroke-linecap:butt;stroke-linejoin:miter;stroke-opacity:1"
           d="m 438.7814,157.7099 c 19.0065,0.22561 21.03028,18.21207 17.52916,35.01732 -16.6942,13.63187 -31.53166,11.77801 -52.02364,12.63183 1.70229,-4.89751 1.75166,-7.36173 -0.43849,-11.98537 l -0.29233,-0.43849 c 6.79446,-1.7389 12.66457,-2.92503 19.43969,-4.23873 l 10.93652,-5.18784 6.82039,1.53681 c 0,0 -6.47398,-1.57294 -6.38336,-1.73825 2.753,-5.02196 2.45988,-9.94408 2.04066,-16.11476 -2.7649,-3.31826 -5.98093,-5.54357 -9.61397,-7.72856 z"
           id="path1246"
           sodipodi:nodetypes="ccccccccsccc" />
        <path
           style="fill:#c8c4b7;fill-opacity:1;stroke:#000000;stroke-width:0.264583px;stroke-linecap:butt;stroke-linejoin:miter;stroke-opacity:1"
           d="m 395.95562,155.66362 c -16.04384,4.31753 -28.23274,12.74705 -28.7941,26.30934 0.37648,3.03712 1.6014,5.44171 3.0694,8.03897 8.94023,4.1108 26.02981,3.13594 40.77949,1.1693 3.76558,-0.71277 7.50949,-1.52713 11.25456,-2.33861 1.32908,-5.52639 0.18875,-7.65539 -2.19245,-12.27769 -9.98118,0.71679 -19.96353,0.49237 -29.96342,0.87698 h -6.86965 l 9.34555,-0.30525 c 3.41468,-7.86087 8.27547,-14.70773 15.64832,-18.98827 z"
           id="path1354"
           sodipodi:nodetypes="ccccccccccc" />
        <path
           style="fill:#ffccaa;stroke:#000000;stroke-width:0.264583px;stroke-linecap:butt;stroke-linejoin:miter;stroke-opacity:1"
           d="m 420.68226,177.65672 c 5.83018,-0.89038 11.22345,-0.43309 11.4443,6.67182 -3.02436,1.36755 -5.97132,2.86403 -8.99577,4.23139 l -0.83186,0.27459 c 1.09406,-4.71965 0.49565,-7.01764 -1.61667,-11.1778 z"
           id="path1356"
           sodipodi:nodetypes="ccccc" />
        <path
           style="fill:#ffccaa;stroke:#000000;stroke-width:0.264583px;stroke-linecap:butt;stroke-linejoin:miter;stroke-opacity:1"
           d="m 404.28693,205.06672 c -12.64309,-0.36315 -13.13372,-10.13563 -0.36542,-11.43726 1.87688,5.02985 1.95275,6.5425 0.36542,11.43726 z"
           id="path1358"
           sodipodi:nodetypes="ccc" />
        <path
           style="fill:#87aade;stroke:#000000;stroke-width:0.264583px;stroke-linecap:butt;stroke-linejoin:miter;stroke-opacity:1"
           d="m 390.16074,231.68381 c 0,0 -11.72662,36.57755 -13.7496,56.05056 -0.66854,6.43534 6.35231,6.363 9.30175,1.86037 7.55508,-11.53363 14.39989,-33.026 21.4974,-44.85516 3.37556,0.46294 6.05354,0.99415 9.50854,1.06564 -0.19216,-4.44073 -0.28678,-8.46934 -0.26008,-13.05546 z"
           id="path1360"
           sodipodi:nodetypes="csscccc" />
        <path
           style="fill:#87aade;fill-opacity:1;stroke:#000000;stroke-width:0.264583px;stroke-linecap:butt;stroke-linejoin:miter;stroke-opacity:1"
           d="m 442.02278,233.4638 c 0,0 13.94214,36.14232 17.27726,54.49223 1.15697,6.36569 -5.86704,6.88562 -9.12288,2.59933 -8.87912,-11.68929 -18.59085,-32.21701 -25.98417,-44.8974 -2.61151,0.12689 -4.80206,0.38645 -7.51913,0.15714 l -0.20073,-13.05992 z"
           id="path1360-2"
           sodipodi:nodetypes="csscccc" />
        <path
           style="mix-blend-mode:normal;fill:#ff8080;fill-opacity:1;stroke:#000000;stroke-width:0.264583px;stroke-linecap:butt;stroke-linejoin:miter;stroke-opacity:1"
           d="m 500.75451,79.366522 c 6.169,-4.9032 12.26477,-8.240768 18.41654,-3.361751 6.89337,5.467189 5.48924,14.000863 1.46163,21.632127 -3.91755,7.433212 -10.35071,11.148152 -18.12422,13.739322"
           id="path1227"
           sodipodi:nodetypes="cscc" />
        <path
           style="fill:#87aade;fill-opacity:1;stroke:none;stroke-width:0.264583px;stroke-linecap:butt;stroke-linejoin:miter;stroke-opacity:1"
           d="m 415.98453,232.86967 0.90895,0.032 0.17356,12.81667 -0.89524,-0.0548 z"
           id="path1615" />
        <path
           style="fill:none;stroke:#000000;stroke-width:0.330722px;stroke-linecap:butt;stroke-linejoin:miter;stroke-opacity:1"
           d="m 399.93121,9.391229 -1.12596,-3.0025753 v 0"
           id="path15252" />
        <path
           style="fill:none;stroke:#000000;stroke-width:0.330722px;stroke-linecap:butt;stroke-linejoin:miter;stroke-opacity:1"
           d="M 405.7487,9.7665489 404.99806,7.3269583"
           id="path15254" />
        <path
           style="fill:none;stroke:#000000;stroke-width:0.330722px;stroke-linecap:butt;stroke-linejoin:miter;stroke-opacity:1"
           d="m 414.75643,-3.4635508 -0.75064,-2.43959"
           id="path15254-0" />
        <path
           style="fill:none;stroke:#000000;stroke-width:0.33124281;stroke-linecap:butt;stroke-linejoin:miter;stroke-opacity:1;stroke-miterlimit:4;stroke-dasharray:none"
           d="m 425.82842,-10.969989 -0.75064,-2.43959"
           id="path15254-7" />
        <path
           style="fill:none;stroke:#000000;stroke-width:0.330722px;stroke-linecap:butt;stroke-linejoin:miter;stroke-opacity:1"
           d="m 421.69988,4.7935316 -0.75064,-2.43959"
           id="path15254-01" />
        <path
           style="fill:none;stroke:#000000;stroke-width:0.330722px;stroke-linecap:butt;stroke-linejoin:miter;stroke-opacity:1"
           d="m 408.37595,-11.720633 -0.75064,-2.43959"
           id="path15254-78" />
        <path
           style="fill:none;stroke:#000000;stroke-width:0.330722px;stroke-linecap:butt;stroke-linejoin:miter;stroke-opacity:1"
           d="m 415.88239,-15.849174 -0.75064,-2.43959"
           id="path15254-8" />
        <path
           style="fill:none;stroke:#000000;stroke-width:0.330722px;stroke-linecap:butt;stroke-linejoin:miter;stroke-opacity:1"
           d="m 424.32714,-21.291342 -0.75064,-2.43959"
           id="path15254-3" />
        <path
           style="fill:none;stroke:#000000;stroke-width:0.330722px;stroke-linecap:butt;stroke-linejoin:miter;stroke-opacity:1"
           d="m 409.1266,-20.540698 -0.75064,-2.43959"
           id="path15254-88" />
        <path
           style="fill:none;stroke:#000000;stroke-width:0.330722px;stroke-linecap:butt;stroke-linejoin:miter;stroke-opacity:1"
           d="m 398.24226,-22.79263 -0.75064,-2.43959"
           id="path15254-2" />
        <path
           style="fill:none;stroke:#000000;stroke-width:0.330722px;stroke-linecap:butt;stroke-linejoin:miter;stroke-opacity:1"
           d="m 384.73067,-19.602394 -0.75064,-2.43959"
           id="path15254-87" />
        <path
           style="fill:none;stroke:#000000;stroke-width:0.330722px;stroke-linecap:butt;stroke-linejoin:miter;stroke-opacity:1"
           d="m 379.10084,-16.036835 -0.75064,-2.43959"
           id="path15254-00" />
        <path
           style="fill:none;stroke:#000000;stroke-width:0.330722px;stroke-linecap:butt;stroke-linejoin:miter;stroke-opacity:1"
           d="m 372.34505,-10.219345 -0.75064,-2.43959"
           id="path15254-83" />
        <path
           style="fill:none;stroke:#000000;stroke-width:0.330722px;stroke-linecap:butt;stroke-linejoin:miter;stroke-opacity:1"
           d="m 365.21393,-2.525246 -0.75064,-2.43959"
           id="path15254-89" />
        <path
           style="fill:none;stroke:#000000;stroke-width:0.330722px;stroke-linecap:butt;stroke-linejoin:miter;stroke-opacity:1"
           d="m 358.27048,5.1688535 -0.75064,-2.43959"
           id="path15254-32" />
        <path
           style="fill:none;stroke:#000000;stroke-width:0.330722px;stroke-linecap:butt;stroke-linejoin:miter;stroke-opacity:1"
           d="m 354.89258,1.6032952 -0.75064,-2.43958996"
           id="path15254-874" />
        <path
           style="fill:none;stroke:#000000;stroke-width:0.330722px;stroke-linecap:butt;stroke-linejoin:miter;stroke-opacity:1"
           d="M 351.89,10.798682 351.13936,8.3590925"
           id="path15254-879" />
        <path
           style="fill:none;stroke:#000000;stroke-width:0.330722px;stroke-linecap:butt;stroke-linejoin:miter;stroke-opacity:1"
           d="m 428.64334,1.2279733 -0.75064,-2.43959"
           id="path15254-35" />
        <path
           style="fill:none;stroke:#000000;stroke-width:0.330722px;stroke-linecap:butt;stroke-linejoin:miter;stroke-opacity:1"
           d="m 438.96469,-20.165377 -0.75064,-2.43959"
           id="path15254-838" />
        <path
           style="fill:none;stroke:#000000;stroke-width:0.330722px;stroke-linecap:butt;stroke-linejoin:miter;stroke-opacity:1"
           d="m 467.86448,-13.972565 -0.75064,-2.43959"
           id="path15254-76" />
        <path
           style="fill:none;stroke:#000000;stroke-width:0.330722px;stroke-linecap:butt;stroke-linejoin:miter;stroke-opacity:1"
           d="M 480.2501,-0.83629729 479.49946,-3.2758873"
           id="path15254-22" />
        <path
           style="fill:none;stroke:#000000;stroke-width:0.330722px;stroke-linecap:butt;stroke-linejoin:miter;stroke-opacity:1"
           d="m 491.3221,9.6727167 -0.75064,-2.43959"
           id="path15254-9" />
        <path
           style="fill:none;stroke:#000000;stroke-width:0.330722px;stroke-linecap:butt;stroke-linejoin:miter;stroke-opacity:1"
           d="m 451.53797,-19.414733 -0.75064,-2.43959"
           id="path15254-07" />
        <path
           style="fill:none;stroke:#000000;stroke-width:0.330722px;stroke-linecap:butt;stroke-linejoin:miter;stroke-opacity:1"
           d="m 469.55343,-6.2784652 -0.75064,-2.43959"
           id="path15254-75" />
        <path
           style="fill:none;stroke:#000000;stroke-width:0.330722px;stroke-linecap:butt;stroke-linejoin:miter;stroke-opacity:1"
           d="m 475.18326,-10.219345 -0.75064,-2.43959"
           id="path15254-93" />
        <path
           style="fill:none;stroke:#000000;stroke-width:0.330722px;stroke-linecap:butt;stroke-linejoin:miter;stroke-opacity:1"
           d="m 499.76684,13.613597 -0.75064,-2.43959"
           id="path15254-84" />
        <path
           style="fill:none;stroke:#000000;stroke-width:0.330722px;stroke-linecap:butt;stroke-linejoin:miter;stroke-opacity:1"
           d="m 419.63561,17.742138 -0.75064,-2.43959"
           id="path15254-930" />
        <path
           style="fill:none;stroke:#000000;stroke-width:0.330722px;stroke-linecap:butt;stroke-linejoin:miter;stroke-opacity:1"
           d="m 399.93121,-3.6512117 -0.75064,-2.43959"
           id="path15254-08" />
        <path
           style="fill:none;stroke:#000000;stroke-width:0.330722px;stroke-linecap:butt;stroke-linejoin:miter;stroke-opacity:1"
           d="m 434.08551,-13.972565 -0.75064,-2.43959"
           id="path15254-015" />
        <path
           style="fill:none;stroke:#000000;stroke-width:0.330722px;stroke-linecap:butt;stroke-linejoin:miter;stroke-opacity:1;opacity:0.48366013"
           d="m 453.97757,131.27702 -0.75064,-2.43959"
           id="path15254-91" />
        <path
           style="opacity:0.48366;fill:none;stroke:#000000;stroke-width:0.330722px;stroke-linecap:butt;stroke-linejoin:miter;stroke-opacity:1"
           d="m 466.11823,129.95944 -0.75064,-2.43959"
           id="path15254-91-4" />
        <path
           style="opacity:0.48366;fill:none;stroke:#000000;stroke-width:0.330722px;stroke-linecap:butt;stroke-linejoin:miter;stroke-opacity:1"
           d="m 437.85391,125.04968 -0.75064,-2.43959"
           id="path15254-91-0" />
        <path
           style="opacity:0.48366;fill:none;stroke:#000000;stroke-width:0.330722px;stroke-linecap:butt;stroke-linejoin:miter;stroke-opacity:1"
           d="m 407.06836,113.10701 -0.75064,-2.43959"
           id="path15254-91-1" />
        <path
           style="opacity:0.48366;fill:none;stroke:#000000;stroke-width:0.330722px;stroke-linecap:butt;stroke-linejoin:miter;stroke-opacity:1"
           d="m 373.76158,115.62824 -0.75064,-2.43959"
           id="path15254-91-2" />
        <path
           style="opacity:0.48366;fill:none;stroke:#000000;stroke-width:0.330722px;stroke-linecap:butt;stroke-linejoin:miter;stroke-opacity:1"
           d="m 371.90383,135.53269 -0.75064,-2.43959"
           id="path15254-91-3" />
        <path
           style="opacity:0.48366;fill:none;stroke:#000000;stroke-width:0.330722px;stroke-linecap:butt;stroke-linejoin:miter;stroke-opacity:1"
           d="m 393.66603,136.72695 -0.75064,-2.43959"
           id="path15254-91-41" />
        <g
           id="g15615"
           transform="translate(5.5732463,-1.9904455)">
          <path
             style="opacity:0.48366;fill:none;stroke:#000000;stroke-width:0.330722px;stroke-linecap:butt;stroke-linejoin:miter;stroke-opacity:1"
             d="m 413.43778,140.44245 -0.75064,-2.43959"
             id="path15254-91-17" />
          <path
             style="opacity:0.48366;fill:none;stroke:#000000;stroke-width:0.330722px;stroke-linecap:butt;stroke-linejoin:miter;stroke-opacity:1"
             d="m 432.94414,140.30976 -0.75064,-2.43959"
             id="path15254-91-5" />
          <path
             style="opacity:0.48366;fill:none;stroke:#000000;stroke-width:0.330722px;stroke-linecap:butt;stroke-linejoin:miter;stroke-opacity:1"
             d="m 461.87195,141.90211 -0.75064,-2.43959"
             id="path15254-91-8" />
        </g>
        <path
           style="opacity:0.48366;fill:none;stroke:#000000;stroke-width:0.330722px;stroke-linecap:butt;stroke-linejoin:miter;stroke-opacity:1"
           d="m 483.23606,133.54224 -0.75064,-2.43959"
           id="path15254-91-06" />
        <path
           style="opacity:0.48366;fill:none;stroke:#000000;stroke-width:0.330722px;stroke-linecap:butt;stroke-linejoin:miter;stroke-opacity:1"
           d="m 493.85176,120.538 -0.75064,-2.43959"
           id="path15254-91-43" />
        <path
           style="opacity:0.48366;fill:none;stroke:#000000;stroke-width:0.330722px;stroke-linecap:butt;stroke-linejoin:miter;stroke-opacity:1"
           d="m 498.09805,115.89363 -0.75064,-2.43959"
           id="path15254-91-03" />
        <path
           style="opacity:0.48366;fill:none;stroke:#000000;stroke-width:0.330722px;stroke-linecap:butt;stroke-linejoin:miter;stroke-opacity:1"
           d="m 474.08001,134.47112 -0.75064,-2.43959"
           id="path15254-91-9" />
        <path
           style="opacity:0.48366;fill:none;stroke:#000000;stroke-width:0.330722px;stroke-linecap:butt;stroke-linejoin:miter;stroke-opacity:1"
           d="m 364.34014,122.92653 -0.75064,-2.43959"
           id="path15254-91-84" />
        <path
           style="opacity:0.48366;fill:none;stroke:#000000;stroke-width:0.330722px;stroke-linecap:butt;stroke-linejoin:miter;stroke-opacity:1"
           d="m 352.79556,121.06879 -0.75064,-2.43959"
           id="path15254-91-6" />
        <path
           style="opacity:0.48366;fill:none;stroke:#000000;stroke-width:0.330722px;stroke-linecap:butt;stroke-linejoin:miter;stroke-opacity:1"
           d="m 362.0843,130.22483 -0.75064,-2.43959"
           id="path15254-91-04" />
        <path
           style="opacity:0.48366;fill:none;stroke:#000000;stroke-width:0.330722px;stroke-linecap:butt;stroke-linejoin:miter;stroke-opacity:1"
           d="m 379.60022,128.49978 -0.75064,-2.43959"
           id="path15254-91-21" />
        <path
           style="fill:#c8c4b7;stroke:#000000;stroke-width:0.263911px;stroke-linecap:butt;stroke-linejoin:miter;stroke-opacity:1"
           d="m 370.33673,143.43831 c 35.60123,-3.32398 69.89448,-2.39704 103.37525,1.17045 -33.66014,21.34096 -71.38351,20.08033 -103.37525,-1.17045 z"
           id="path1602"
           sodipodi:nodetypes="ccc" />
        <path
           style="fill:#8b836a;fill-opacity:1;stroke:#000000;stroke-width:0.0810419;stroke-linecap:butt;stroke-linejoin:miter;stroke-miterlimit:4;stroke-dasharray:none;stroke-opacity:1"
           d="m 376.70504,142.96987 c 9.96,7.55743 20.45958,11.8334 30.40331,15.6412 -11.08868,-1.75589 -23.25975,-6.69881 -36.59457,-15.06836 z"
           id="path15580"
           sodipodi:nodetypes="cccc" />
        <path
           style="fill:#8b836a;fill-opacity:1;stroke:#000000;stroke-width:0.0810419;stroke-linecap:butt;stroke-linejoin:miter;stroke-miterlimit:4;stroke-dasharray:none;stroke-opacity:1"
           d="m 381.38465,142.65767 c 6.73194,6.55877 17.39533,11.34081 26.70642,15.9066 l 2.19941,0.42117 c -7.72895,-5.01331 -17.20669,-9.95546 -23.60721,-16.62929 z"
           id="path15582"
           sodipodi:nodetypes="ccccc" />
        <path
           style="fill:#8b836a;fill-opacity:1;stroke:#000000;stroke-width:0.0810419;stroke-linecap:butt;stroke-linejoin:miter;stroke-miterlimit:4;stroke-dasharray:none;stroke-opacity:1"
           d="m 410.47766,158.98544 c -5.76602,-5.06806 -14.38479,-11.55767 -17.76537,-16.98355 l 3.94449,-0.11907 c 3.23046,5.69302 10.46292,12.18619 15.32971,17.33376 z"
           id="path15584"
           sodipodi:nodetypes="ccccc" />
        <path
           style="fill:#8b836a;fill-opacity:1;stroke:#000000;stroke-width:0.0810419;stroke-linecap:butt;stroke-linejoin:miter;stroke-miterlimit:4;stroke-dasharray:none;stroke-opacity:1"
           d="m 412.77068,159.3598 c -3.8124,-5.1947 -10.03232,-13.12366 -11.59302,-17.64285 l 4.65236,-0.11907 c 0.65392,4.30568 5.80006,12.65548 8.59223,17.89665 z"
           id="path15586"
           sodipodi:nodetypes="ccccc" />
        <path
           style="fill:#8b836a;fill-opacity:1;stroke:#000000;stroke-width:0.0810419;stroke-linecap:butt;stroke-linejoin:miter;stroke-miterlimit:4;stroke-dasharray:none;stroke-opacity:1"
           d="m 409.49376,141.50095 c 0.11917,4.85534 3.5851,12.83039 5.17617,18.08716 l 2.59317,0.19283 c -1.07631,-5.25677 -4.41086,-12.4115 -3.65117,-18.28027 z"
           id="path15588"
           sodipodi:nodetypes="ccccc" />
        <path
           style="fill:#8b836a;fill-opacity:1;stroke:#000000;stroke-width:0.0810419;stroke-linecap:butt;stroke-linejoin:miter;stroke-miterlimit:4;stroke-dasharray:none;stroke-opacity:1"
           d="m 417.4035,159.82777 1.87184,0.0468 -0.28042,-18.3857 -2.71417,0.0468 z"
           id="path15590"
           sodipodi:nodetypes="ccccc" />
        <path
           style="fill:#8b836a;fill-opacity:1;stroke:#000000;stroke-width:0.0810419;stroke-linecap:butt;stroke-linejoin:miter;stroke-miterlimit:4;stroke-dasharray:none;stroke-opacity:1"
           d="m 419.60292,159.92136 c 0.83322,-5.27236 3.16779,-13.06056 3.43021,-18.33292 l 3.39637,0.0278 c -0.99814,5.17429 -4.24108,13.04787 -5.82047,18.3052 z"
           id="path15592"
           sodipodi:nodetypes="ccccc" />
        <path
           style="fill:#8b836a;fill-opacity:1;stroke:#000000;stroke-width:0.0810419;stroke-linecap:butt;stroke-linejoin:miter;stroke-miterlimit:4;stroke-dasharray:none;stroke-opacity:1"
           d="m 420.86641,159.92136 c 2.72039,-5.25677 7.04631,-12.90621 9.3628,-18.16298 l 2.52711,0.0704 c -2.86788,5.38195 -7.65484,12.80595 -11.02419,18.1043 z"
           id="path15594"
           sodipodi:nodetypes="ccccc" />
        <path
           style="fill:#8b836a;fill-opacity:1;stroke:#000000;stroke-width:0.0810419;stroke-linecap:butt;stroke-linejoin:miter;stroke-miterlimit:4;stroke-dasharray:none;stroke-opacity:1"
           d="m 436.00907,141.86371 3.16547,0.20333 c -3.62736,5.00164 -10.75343,12.80747 -15.8339,17.87972 l -1.54359,0.0545 c 4.50804,-3.78711 12.86311,-15.77233 14.21202,-18.13755 z"
           id="path15596"
           sodipodi:nodetypes="ccccc" />
        <path
           style="fill:#8b836a;fill-opacity:1;stroke:#000000;stroke-width:0.0810419;stroke-linecap:butt;stroke-linejoin:miter;stroke-miterlimit:4;stroke-dasharray:none;stroke-opacity:1"
           d="m 424.95138,159.95965 18.76612,-17.65036 4.97147,0.26952 -21.69227,17.29566 z"
           id="path15600"
           sodipodi:nodetypes="ccccc" />
        <path
           style="fill:#8b836a;fill-opacity:1;stroke:#000000;stroke-width:0.0810419;stroke-linecap:butt;stroke-linejoin:miter;stroke-miterlimit:4;stroke-dasharray:none;stroke-opacity:1"
           d="m 427.46467,159.85234 c 8.06825,-5.10961 17.75209,-11.65977 25.27288,-17.004 l 4.22278,0.29322 c -7.7957,5.44578 -17.90853,11.54509 -26.6879,16.49903 z"
           id="path15602"
           sodipodi:nodetypes="ccccc" />
        <path
           style="fill:#8b836a;fill-opacity:1;stroke:#000000;stroke-width:0.0810419;stroke-linecap:butt;stroke-linejoin:miter;stroke-miterlimit:4;stroke-dasharray:none;stroke-opacity:1"
           d="m 431.8986,159.5002 c 9.32804,-4.97079 20.11818,-10.88888 28.67808,-16.03036 l 3.55555,0.30483 c -9.34249,5.22642 -20.05661,10.7941 -30.10441,15.49154 z"
           id="path15604"
           sodipodi:nodetypes="ccccc" />
        <path
           style="fill:#8b836a;fill-opacity:1;stroke:#000000;stroke-width:0.0810419;stroke-linecap:butt;stroke-linejoin:miter;stroke-miterlimit:4;stroke-dasharray:none;stroke-opacity:1"
           d="m 434.99884,159.13752 c 10.36347,-4.87674 21.32425,-9.95948 31.05156,-15.23383 l 3.22786,0.30483 c -9.90314,5.26461 -20.80895,9.90622 -31.89281,14.49614 z"
           id="path15608"
           sodipodi:nodetypes="ccccc" />
        <path
           style="fill:#8b836a;fill-opacity:1;stroke:#000000;stroke-width:0.0810419;stroke-linecap:butt;stroke-linejoin:miter;stroke-miterlimit:4;stroke-dasharray:none;stroke-opacity:1"
           d="m 440.2985,158.26009 c 10.47605,-4.17811 20.92768,-8.69102 30.35911,-13.85231 0,0 2.82621,0.20224 2.79568,0.38694 -9.08805,5.03028 -19.97682,11.2032 -33.15479,13.46539 z"
           id="path15610"
           sodipodi:nodetypes="sccss" />
        <path
           style="fill:#ffaaaa;fill-opacity:1;stroke:none;stroke-width:0.330722px;stroke-linecap:butt;stroke-linejoin:miter;stroke-opacity:1"
           d="m 468.99045,26.444917 c 1.52429,3.308671 4.40044,2.629099 7.45952,2.040814 -3.92933,3.767528 -8.28421,2.975707 -7.45952,-2.040814 z"
           id="path15987"
           sodipodi:nodetypes="ccc" />
      </g>
    </g>
    <path
       style="fill:#ffffff;stroke:none;stroke-width:0.264583px;stroke-linecap:butt;stroke-linejoin:miter;stroke-opacity:1"
       d="m 127.79658,110.07475 c 2.86851,2.78203 2.84871,9.61918 1.8933,13.44085 3.56215,-3.03549 3.32983,-10.39145 1.86,-14.34165 z"
       id="path15235"
       sodipodi:nodetypes="cccc" />
    <path
       style="fill:#ffffff;stroke:none;stroke-width:0.264583px;stroke-linecap:butt;stroke-linejoin:miter;stroke-opacity:1"
       d="m 67.605022,112.0446 c 2.072315,3.15359 2.87525,8.07987 1.91984,11.90154 3.56215,-3.03549 3.30329,-6.56971 1.83346,-10.51991 z"
       id="path15235-9"
       sodipodi:nodetypes="cccc" />
  </g>
</svg>
