<?xml version="1.0" encoding="UTF-8" standalone="no"?>
<svg
   xmlns:dc="http://purl.org/dc/elements/1.1/"
   xmlns:cc="http://creativecommons.org/ns#"
   xmlns:rdf="http://www.w3.org/1999/02/22-rdf-syntax-ns#"
   xmlns:svg="http://www.w3.org/2000/svg"
   xmlns="http://www.w3.org/2000/svg"
   xmlns:sodipodi="http://sodipodi.sourceforge.net/DTD/sodipodi-0.dtd"
   xmlns:inkscape="http://www.inkscape.org/namespaces/inkscape"
   width="210mm"
   height="297mm"
   viewBox="0 0 210 297"
   version="1.1"
   id="svg8"
   inkscape:version="1.0.1 (3bc2e813f5, 2020-09-07)"
   sodipodi:docname="Zinser.svg">
  <defs
     id="defs2" />
  <sodipodi:namedview
     id="base"
     pagecolor="#ffffff"
     bordercolor="#666666"
     borderopacity="1.0"
     inkscape:pageopacity="0.0"
     inkscape:pageshadow="2"
     inkscape:zoom="0.9382992"
     inkscape:cx="67.315759"
     inkscape:cy="279.72402"
     inkscape:document-units="mm"
     inkscape:current-layer="g17041"
     inkscape:document-rotation="0"
     showgrid="false"
     inkscape:window-width="1920"
     inkscape:window-height="1017"
     inkscape:window-x="1912"
     inkscape:window-y="-8"
     inkscape:window-maximized="1"
     inkscape:snap-nodes="false" />
  <metadata
     id="metadata5">
    <rdf:RDF>
      <cc:Work
         rdf:about="">
        <dc:format>image/svg+xml</dc:format>
        <dc:type
           rdf:resource="http://purl.org/dc/dcmitype/StillImage" />
        <dc:title />
      </cc:Work>
    </rdf:RDF>
  </metadata>
  <g
     inkscape:label="Layer 1"
     inkscape:groupmode="layer"
     id="layer1">
    <g
       id="g1202"
       transform="matrix(0.90161728,0,0,0.90161728,9.9053376,16.129211)">
      <g
         id="g1143"
         transform="translate(-7.4635259,46.726311)">
        <g
           id="g16972">
          <g
             id="g17041">
            <path
               style="fill:#000000;stroke:#000000;stroke-width:0.264583px;stroke-linecap:butt;stroke-linejoin:miter;stroke-opacity:1"
               d="m 185.08415,84.72444 17.10525,1.603618 C 222.29969,74.452487 220.50084,43.086906 213.41472,34.477769 L 208.7375,34.076865 205.263,23.252449 C 184.86677,-30.920314 166.90474,-48.936127 101.56242,-45.16855 49.042112,-39.243422 34.295313,-9.3350523 27.528761,25.657875 c -0.894142,3.875131 -1.892681,7.726151 -2.672695,11.626224 -4.67406,1.426082 -14.107952,-0.156839 -14.165285,3.741773 -0.405795,16.878984 -1.9038382,38.44734 15.902537,46.237629 7.50713,-0.403788 12.711623,0.54555 18.976136,-0.534539 l 3.0736,-1.202713 z"
               id="path915"
               sodipodi:nodetypes="ccccccccccccc" />
            <path
               style="fill:#808080;stroke:#000000;stroke-width:0.264583px;stroke-linecap:butt;stroke-linejoin:miter;stroke-opacity:1"
               d="m 173.99246,99.958802 c 1.84812,21.164228 7.30061,44.487698 -5.57926,63.242648 2.07082,-18.99847 -2.12084,-36.01872 -10.70265,-52.17094"
               id="path897"
               sodipodi:nodetypes="ccc" />
            <path
               style="fill:#808080;stroke:#000000;stroke-width:0.264583px;stroke-linecap:butt;stroke-linejoin:miter;stroke-opacity:1"
               d="m 65.673367,104.88839 0.09449,3.02381 c -3.194796,10.13597 -0.57962,21.53089 -4.062005,31.36863 3.765072,-2.93755 5.781613,-9.54232 7.483546,-13.8312 -1.553152,6.84989 -3.166384,13.65671 -7.817633,18.30797 9.869491,-4.41906 14.169291,-22.4286 14.790436,-31.68766"
               id="path947"
               sodipodi:nodetypes="cccccc" />
            <path
               style="fill:#808080;stroke:#000000;stroke-width:0.264583px;stroke-linecap:butt;stroke-linejoin:miter;stroke-opacity:1"
               d="m 46.869048,81.642854 c 5.680225,22.663296 3.250057,48.112266 -2.635941,67.092636 7.885463,-4.99546 11.118887,-20.43285 13.030285,-28.72805 0.589743,9.07756 -1.846141,12.17092 -6.214912,24.71901 10.359374,-11.06328 15.534896,-28.33862 14.624887,-39.83806 v 0"
               id="path989"
               sodipodi:nodetypes="cccccc" />
            <path
               style="fill:#808080;stroke:#000000;stroke-width:0.264583px;stroke-linecap:butt;stroke-linejoin:miter;stroke-opacity:1"
               d="m 76.162201,112.06994 c 0.293363,14.42552 -8.928586,28.34547 -18.229004,34.85209 16.619726,2.83585 30.993657,-18.80785 33.159063,-29.65492 -0.733097,7.28602 -5.366299,18.58535 -9.480916,24.47925 6.161268,-5.43174 11.229956,-14.69571 13.355172,-22.58937"
               id="path907"
               sodipodi:nodetypes="ccccc" />
            <path
               style="fill:#808080;stroke:#000000;stroke-width:0.264583px;stroke-linecap:butt;stroke-linejoin:miter;stroke-opacity:1"
               d="m 189.76136,79.111778 c 0.20022,28.202622 -0.34708,54.982942 -14.16528,80.180862 3.34276,-19.67379 2.56064,-37.71076 -1.33635,-57.19568 l -0.26727,-2.138158 v 0"
               id="path895"
               sodipodi:nodetypes="ccccc" />
            <path
               style="fill:#808080;stroke:#000000;stroke-width:0.264583px;stroke-linecap:butt;stroke-linejoin:miter;stroke-opacity:1"
               d="m 157.33377,106.7783 c 2.40008,18.28513 4.20594,32.86091 2.36236,52.63318 5.35038,-11.03244 8.79225,-21.16395 7.18154,-32.69494 v 0"
               id="path899"
               sodipodi:nodetypes="cccc" />
            <path
               style="fill:#606060;fill-opacity:1;stroke:#000000;stroke-width:0.293454px;stroke-linecap:butt;stroke-linejoin:miter;stroke-opacity:1"
               d="m 92.286728,73.608376 -0.645905,38.108454 c -1.296452,7.0185 -1.675427,14.12579 -5.928457,20.85818 l 10.880402,-8.37066 8.396782,-14.42524 7.10496,-24.329125 10.5498,45.213425 c 2.49808,12.96952 6.5008,18.44106 16.39355,25.89072 -9.29393,-12.85386 -7.86666,-25.09351 -7.99677,-40.31596 2.72688,15.28578 5.05778,24.8899 16.79356,34.01772 -8.12395,-14.43322 -5.61724,-27.19492 -4.30604,-43.0604 -2.64012,17.41833 0.047,28.48362 12.91811,39.61557 -8.44636,-15.21743 -7.57964,-30.27262 -7.96617,-47.151142 0.48741,16.494412 0.84697,42.121092 14.95584,52.549372 -8.73818,-15.95827 -1.47493,-43.82835 0.3306,-61.161453 z"
               id="path16788"
               sodipodi:nodetypes="cccccccccccccccc" />
            <path
               style="fill:#87aade;fill-opacity:1;stroke:#000000;stroke-width:0.264583px;stroke-linecap:butt;stroke-linejoin:miter;stroke-opacity:1"
               d="m 114.6375,203.1934 c -3.56107,18.52491 -4.12187,38.60824 -14.795743,54.60419 -6.769418,3.95687 -10.744372,-3.95402 -10.781229,-6.6432 -0.690533,-17.60626 2.061255,-33.67965 7.60226,-50.27895 7.241252,-2.34042 11.697042,-1.41832 17.974712,2.31796 z"
               id="path1021-1"
               sodipodi:nodetypes="ccccc" />
            <path
               style="fill:#87aade;fill-opacity:1;stroke:#000000;stroke-width:0.264583px;stroke-linecap:butt;stroke-linejoin:miter;stroke-opacity:1"
               d="m 122.51791,203.51768 c 3.50769,18.53509 9.24504,52.38741 14.63838,54.64658 2.74364,0.74835 6.89178,-0.92726 7.65909,-2.38735 7.23032,-10.46057 0.58156,-39.61433 -4.69696,-55.87797 -7.12945,0.24353 -11.12623,-0.20934 -17.60051,3.61874 z"
               id="path1021"
               sodipodi:nodetypes="ccccc" />
            <path
               style="fill:#f9f9f9;stroke:#000000;stroke-width:0.264583px;stroke-linecap:butt;stroke-linejoin:miter;stroke-opacity:1"
               d="m 99.865405,142.53765 c 0,0 -2.190942,2.24712 -2.536578,4.11711 -2.016763,10.91125 3.753353,5.31595 4.047033,16.76948 -3.979197,15.43648 -7.606643,22.4991 -7.559524,40.44345 14.337824,3.0655 34.238104,4.72098 46.302084,-3.96875 -1.1509,-13.84669 -6.91517,-21.17213 -10.01637,-32.50595 0.95057,-12.38627 5.25429,-7.52116 4.64642,-19.98228 -4.74997,-6.23208 -3.75376,-15.00907 -1.46442,-25.46655 -3.39173,0.80654 -9.54867,1.70039 -15.28466,1.60763 -9.00679,-0.14564 -17.64675,-1.65443 -17.64675,-1.65443 0,0 -0.035,-1.27982 -0.487235,20.64029 z"
               id="path1015"
               sodipodi:nodetypes="csccccccscc" />
            <path
               style="fill:#ffbc9c;fill-opacity:1;stroke:#000000;stroke-width:0.264583px;stroke-linecap:butt;stroke-linejoin:miter;stroke-opacity:1"
               d="m 90.336308,128.32292 c -7.403979,9.36021 -8.129264,19.04867 -17.337195,31.32592 1.630636,3.89271 15.816951,37.14397 21.216177,34.66675 2.867792,-1.58679 3.99283,-6.05941 3.99283,-6.05941 -2.589882,-12.47829 -5.471906,-17.58368 -8.202664,-28.02972 4.214476,-6.997 5.976586,-10.68373 8.759985,-16.13352 0.379377,-0.74281 0.749041,-1.09224 1.081552,-2.25642 2.506467,-8.77557 1.077437,-20.23343 0.505647,-19.93916 0,0 -3.44689,1.06585 -5.858593,2.64579 -1.566742,1.02639 -2.995754,2.31077 -4.157739,3.77977 z"
               id="path1019"
               sodipodi:nodetypes="sccccsscss" />
            <circle
               style="opacity:1;fill:#ffbc9c;fill-opacity:1;stroke:#000000;stroke-width:0.264999;stroke-linecap:round;stroke-linejoin:round;stroke-opacity:1"
               id="path851"
               cx="117.33134"
               cy="42.22858"
               r="81.249931" />
            <path
               style="fill:#1a1a1a;stroke:#000000;stroke-width:0.264583px;stroke-linecap:butt;stroke-linejoin:miter;stroke-opacity:1"
               d="m 118.04031,28.909331 c 6.69239,-16.303482 34.88449,-17.206578 34.99374,-0.167157 -8.45254,-11.085261 -23.35294,-4.277129 -34.99374,0.167157 z"
               id="path853"
               sodipodi:nodetypes="ccc" />
            <path
               style="fill:#1a1a1a;stroke:#000000;stroke-width:0.213897px;stroke-linecap:butt;stroke-linejoin:miter;stroke-opacity:1"
               d="M 61.375419,23.751208 C 67.279446,8.1456358 89.370479,18.116966 91.41016,28.549367 83.175141,20.855925 70.053251,18.635907 61.375419,23.751208 Z"
               id="path853-0"
               sodipodi:nodetypes="ccc" />
            <path
               style="fill:#c83737;stroke:#000000;stroke-width:0.251902px;stroke-linecap:butt;stroke-linejoin:miter;stroke-opacity:1"
               d="m 118.42427,95.158692 c -0.58936,4.610063 -1.03023,5.684098 -4.50655,6.818338 -15.222908,-1.28522 -34.002929,-10.477383 -34.984726,-20.443138 20.280533,-1.751095 37.850396,9.2821 39.491276,13.6248 z"
               id="path872"
               sodipodi:nodetypes="cccc" />
            <path
               style="fill:#808080;stroke:#000000;stroke-width:0.264583px;stroke-linecap:butt;stroke-linejoin:miter;stroke-opacity:1"
               d="m 43.030393,71.093694 c 1.390134,-4.329624 2.678636,-8.702805 2.672697,-13.630746 -0.358312,-4.072837 -0.06515,-8.666838 0.623169,-13.38709 0.03725,-0.255473 -0.603094,-0.934509 -0.603094,-0.934509 0,0 0.834428,-0.571201 0.89585,-0.941092 1.262723,-7.604268 3.452737,-15.398718 5.516232,-21.759685 0.05899,-0.181832 -2.362438,0.276572 -2.362438,0.276572 0,0 2.644818,-1.140855 2.697522,-1.300527 2.517519,-7.626956 4.756962,-12.9514313 4.756962,-12.9514313 l -0.626902,-0.056804 c 0,0 1.620484,-1.5644913 1.722988,-1.7266213 0.785138,-1.241849 1.218339,-1.8341935 2.079535,-3.0781434 3.184566,-3.706938 7.04262,-6.7859237 11.205267,-9.5206905 0.08681,-0.057033 0.04821,-0.678557 0.04821,-0.678557 0,0 0.435959,0.3627528 0.547945,0.2905333 2.543542,-1.6403373 5.192822,-3.1588468 7.865364,-4.6189658 0.439299,-0.240007 0.350851,-2.085732 0.350851,-2.085732 0,0 1.737713,0.956913 2.122344,0.751584 5.905902,-3.152783 11.801421,-6.116735 16.802976,-9.571459 0.126388,-0.0873 0.0099,-1.031252 0.0099,-1.031252 0,0 1.000819,0.125022 1.124479,0.0367 5.40515,-3.860267 9.28828,-7.889357 11.23837,-13.929858 3.2123,5.103754 7.50653,8.738145 12.45058,11.654825 0.3427,0.202171 1.47163,-0.08846 1.47163,-0.08846 0,0 0.0356,0.946103 0.27254,1.074627 8.77576,4.760389 19.33514,7.645446 29.46211,12.51009 0.18699,0.08982 0.82038,-0.05921 0.82038,-0.05921 0,0 0.085,0.499863 0.2572,0.585345 5.59476,2.777109 11.03246,6.2045097 15.93574,10.9387076 1.00307,2.3796127 1.88856,4.1223077 2.82284,6.4797949 0.045,0.1136266 2.64828,0.5185811 2.64828,0.5185811 0,0 -2.07594,1.0454932 -2.0161,1.1977214 2.62494,6.677904 4.73678,13.043003 6.78863,20.051194 0.0602,0.205641 0.67595,0.594192 0.67595,0.594192 0,0 -0.50874,0.371238 -0.51509,0.544904 -0.0897,2.456124 -0.17981,4.893444 -0.22155,7.312516 -0.003,0.16555 1.25598,0.957054 1.25598,0.957054 0,0 -1.24477,0.76755 -1.24666,0.932681 -0.11542,10.102586 0.71067,18.989231 6.11115,28.496013 l 5.07813,5.879928 3.20723,2.138156 c 5.11211,-12.597518 5.79639,-22.826309 6.94901,-36.081385 -0.11452,-1.021113 -0.6777,-3.721423 -0.6777,-3.721423 -0.30512,-4.391347 -1.12732,-8.782695 -3.71272,-13.174043 -1.49487,-9.479117 -5.61798,-16.3289313 -9.93044,-22.6855546 -1.7344,-6.0382903 -6.42362,-18.0866984 -22.22811,-25.3867774 0.9477,-0.947699 -19.73473,-15.53414 -34.44149,-14.398047 -7.73876,-1.669482 -13.82974,-2.351754 -20.57443,-0.622086 -5.38664,-0.749625 -9.27574,-0.991179 -14.75881,0.585992 -5.741669,1.137802 -16.917176,1.624879 -22.145069,10.396877 -4.224906,1.749234 -9.866995,7.647599 -8.631727,9.69025 -10.797435,3.915018 -20.505483,21.3904712 -21.713848,27.5410619 -5.50204,7.4171101 -4.983924,9.7402421 -5.448137,12.8945751 -4.690925,14.169413 -5.839687,23.911123 -3.641073,29.468612 -2.010731,3.674784 -1.382845,28.330607 7.007347,23.621062 z"
               id="path893"
               sodipodi:nodetypes="ccscsscsccscscsscsscscscsscscscsscsscsccccccccccccccccc" />
            <path
               style="fill:none;stroke:#000000;stroke-width:0.264583px;stroke-linecap:butt;stroke-linejoin:miter;stroke-opacity:1"
               d="m 57.263392,120.00744 v 0"
               id="path903" />
            <path
               style="fill:#808080;stroke:#000000;stroke-width:0.264583px;stroke-linecap:butt;stroke-linejoin:miter;stroke-opacity:1"
               d="M 36.55746,66.332955 49.444862,94.346142 C 48.387638,85.84117 45.854317,78.885993 42.938519,70.964235"
               id="path911"
               sodipodi:nodetypes="ccc" />
            <path
               style="fill:#808080;stroke:#000000;stroke-width:0.264583px;stroke-linecap:butt;stroke-linejoin:miter;stroke-opacity:1"
               d="m 189.76136,79.111778 -4.81085,-22.450639 12.02713,16.30344 c -1.67119,3.590973 -4.59121,4.559381 -7.21628,6.147199"
               id="path913"
               sodipodi:nodetypes="cccc" />
            <path
               style="fill:#808080;fill-opacity:1;stroke:none;stroke-width:0.264583px;stroke-linecap:butt;stroke-linejoin:miter;stroke-opacity:1"
               d="m 185.01733,56.076487 0.0865,0.735222 0.2643,1.085553 11.1585,15.284474 0.33573,-0.275699 0.16364,-0.553127 z"
               id="path934"
               sodipodi:nodetypes="ccccccc" />
            <path
               style="fill:#808080;fill-opacity:1;stroke:none;stroke-width:0.264583px;stroke-linecap:butt;stroke-linejoin:miter;stroke-opacity:1"
               d="m 36.958365,66.859142 -0.386694,-0.802499 2.559566,-3.45661 3.757172,8.731696 0.06682,-0.563771 z"
               id="path936"
               sodipodi:nodetypes="cccccc" />
            <path
               style="fill:none;stroke:#000000;stroke-width:0.264583px;stroke-linecap:butt;stroke-linejoin:miter;stroke-opacity:1"
               d="m 183.82779,35.517801 c 7.37642,10.071005 11.62583,4.529037 19.5234,-2.633874"
               id="path991"
               sodipodi:nodetypes="cc" />
            <path
               style="fill:none;stroke:#000000;stroke-width:0.264583px;stroke-linecap:butt;stroke-linejoin:miter;stroke-opacity:1"
               d="m 183.30844,26.703327 c 9.31038,0.288235 10.74441,-0.598788 16.82995,-7.237554"
               id="path993"
               sodipodi:nodetypes="cc" />
            <path
               style="fill:none;stroke:#000000;stroke-width:0.264583px;stroke-linecap:butt;stroke-linejoin:miter;stroke-opacity:1"
               d="m 177.85997,4.8602198 c 9.02716,-1.2090613 8.16841,-0.9225885 12.45104,-8.8289698"
               id="path995"
               sodipodi:nodetypes="cc" />
            <path
               style="fill:none;stroke:#000000;stroke-width:0.264583px;stroke-linecap:butt;stroke-linejoin:miter;stroke-opacity:1"
               d="m 156.10416,-13.607143 c 5.8337,-4.211893 8.47525,-7.93232 11.23104,-14.362496"
               id="path997"
               sodipodi:nodetypes="cc" />
            <path
               style="fill:none;stroke:#000000;stroke-width:0.264583px;stroke-linecap:butt;stroke-linejoin:miter;stroke-opacity:1"
               d="m 125.67708,-27.214285 c 3.77045,-5.369847 5.79315,-8.775571 7.20906,-15.147158"
               id="path999"
               sodipodi:nodetypes="cc" />
            <path
               style="fill:none;stroke:#000000;stroke-width:0.264583px;stroke-linecap:butt;stroke-linejoin:miter;stroke-opacity:1"
               d="M 99.407738,-24.75744 C 97.53623,-30.528899 97.082404,-36.514092 97.626105,-42.49481"
               id="path1001"
               sodipodi:nodetypes="cc" />
            <path
               style="fill:none;stroke:#000000;stroke-width:0.264583px;stroke-linecap:butt;stroke-linejoin:miter;stroke-opacity:1"
               d="m 111.71866,-38.754081 0.40571,-4.226955"
               id="path1003"
               sodipodi:nodetypes="cc" />
            <path
               style="fill:none;stroke:#000000;stroke-width:0.264583px;stroke-linecap:butt;stroke-linejoin:miter;stroke-opacity:1"
               d="m 80.420556,-15.009795 c -5.643278,-8.623289 -5.550367,-10.044006 -4.825318,-19.953003"
               id="path1005"
               sodipodi:nodetypes="cc" />
            <path
               style="fill:none;stroke:#000000;stroke-width:0.264583px;stroke-linecap:butt;stroke-linejoin:miter;stroke-opacity:1"
               d="M 71.65011,-8.5635229 C 66.521717,-15.475724 66.416083,-21.277209 67.27976,-29.482142"
               id="path1007"
               sodipodi:nodetypes="cc" />
            <path
               style="fill:none;stroke:#000000;stroke-width:0.264583px;stroke-linecap:butt;stroke-linejoin:miter;stroke-opacity:1"
               d="M 56.696427,6.4255951 C 49.450332,10.679166 44.52634,5.9330718 41.388392,-0.56696427"
               id="path1009"
               sodipodi:nodetypes="cc" />
            <path
               style="fill:none;stroke:#000000;stroke-width:0.264583px;stroke-linecap:butt;stroke-linejoin:miter;stroke-opacity:1"
               d="M 49.772809,20.717144 C 42.476432,22.901012 38.271671,17.864121 36.096727,11.339285"
               id="path1011"
               sodipodi:nodetypes="cc" />
            <path
               style="fill:none;stroke:#000000;stroke-width:0.264583px;stroke-linecap:butt;stroke-linejoin:miter;stroke-opacity:1"
               d="M 45.735118,43.089284 C 40.346017,50.133851 32.47488,47.709539 28.72619,42.711309"
               id="path1013"
               sodipodi:nodetypes="cc" />
            <path
               style="fill:#ffbc9c;fill-opacity:1;stroke:#000000;stroke-width:0.264583px;stroke-linecap:butt;stroke-linejoin:miter;stroke-opacity:1"
               d="m 142.87304,123.95864 c 5.41825,3.73609 36.56787,63.7162 18.69139,62.99639 -14.26632,-8.94222 -15.53765,-29.96142 -26.81592,-39.54432 -6.07983,-8.63288 -2.4743,-19.37637 -1.46446,-25.46655 3.45126,-0.46044 6.45074,0.35288 9.58899,2.01448 z"
               id="path1017"
               sodipodi:nodetypes="ccccc" />
            <path
               style="fill:#ffbc9c;fill-opacity:1;stroke:#000000;stroke-width:0.264583px;stroke-linecap:butt;stroke-linejoin:miter;stroke-opacity:1"
               d="m 103.93543,122.40134 c -1.95452,9.64094 -2.01068,25.25918 8.79834,25.79961 15.07017,0.99379 18.63828,-16.39345 17.52671,-25.55765 -9.86217,1.17321 -16.93773,1.29327 -26.32505,-0.24196 z"
               id="path1038"
               sodipodi:nodetypes="cccc" />
            <ellipse
               style="opacity:1;fill:#d35f5f;fill-opacity:1;stroke:none;stroke-width:0.264999;stroke-linecap:round;stroke-linejoin:round;stroke-opacity:1"
               id="path1044"
               cx="105.43327"
               cy="94.721245"
               rx="8.6862593"
               ry="4.3431296" />
            <g
               id="g16782"
               transform="matrix(0.66671292,0,0,0.66671292,25.591497,11.572112)">
              <circle
                 style="opacity:1;fill:#112b00;stroke-width:0.264999;stroke-linecap:round;stroke-linejoin:round"
                 id="path874-8"
                 cx="73.816025"
                 cy="41.344578"
                 r="12.561667" />
              <circle
                 style="opacity:1;fill:#000000;fill-opacity:1;stroke-width:0.339714;stroke-linecap:round;stroke-linejoin:round"
                 id="path917-7"
                 cx="73.969162"
                 cy="40.207737"
                 r="9.4221935" />
              <ellipse
                 style="opacity:1;fill:#ffffff;fill-opacity:1;stroke:none;stroke-width:0.404471;stroke-linecap:round;stroke-linejoin:round;stroke-opacity:1"
                 id="path1052-5-2-2"
                 cx="66.3526"
                 cy="41.533173"
                 rx="3.8754079"
                 ry="2.6515954" />
              <ellipse
                 style="opacity:1;fill:#ffffff;fill-opacity:1;stroke:none;stroke-width:0.264999;stroke-linecap:round;stroke-linejoin:round;stroke-opacity:1"
                 id="path1052-4-5"
                 cx="78.779968"
                 cy="36.062008"
                 rx="2.5390604"
                 ry="1.737252" />
            </g>
            <g
               id="g16770"
               transform="matrix(0.70307151,0,0,0.70307151,36.981726,9.6819119)">
              <circle
                 style="opacity:1;fill:#112b00;stroke-width:0.264999;stroke-linecap:round;stroke-linejoin:round"
                 id="path874"
                 cx="137.10925"
                 cy="45.168549"
                 r="12.561667" />
              <circle
                 style="opacity:1;fill:#000000;fill-opacity:1;stroke-width:0.339715;stroke-linecap:round;stroke-linejoin:round"
                 id="path917"
                 cx="137.26239"
                 cy="44.031708"
                 r="9.4221935" />
              <ellipse
                 style="opacity:1;fill:#ffffff;fill-opacity:1;stroke:none;stroke-width:0.404471;stroke-linecap:round;stroke-linejoin:round;stroke-opacity:1"
                 id="path1052-5-2"
                 cx="129.64583"
                 cy="45.357143"
                 rx="3.8754079"
                 ry="2.6515951" />
              <ellipse
                 style="opacity:1;fill:#ffffff;fill-opacity:1;stroke:none;stroke-width:0.264999;stroke-linecap:round;stroke-linejoin:round;stroke-opacity:1"
                 id="path1052-4"
                 cx="142.0732"
                 cy="39.885983"
                 rx="2.5390604"
                 ry="1.7372519" />
            </g>
            <path
               style="fill:none;stroke:#000000;stroke-width:0.626652;stroke-linecap:round;stroke-linejoin:miter;stroke-miterlimit:4;stroke-dasharray:none;stroke-opacity:1"
               d="m 73.899839,85.144888 c 0.113801,-4.105226 1.136795,-7.811599 6.023573,-9.115491"
               id="path16784"
               sodipodi:nodetypes="cc" />
            <path
               style="fill:none;stroke:#000000;stroke-width:0.40482809;stroke-linecap:round;stroke-linejoin:miter;stroke-opacity:1;stroke-miterlimit:4;stroke-dasharray:none"
               d="m 117.90767,78.775622 c 7.14683,6.990444 11.16193,13.566145 8.18147,23.252618"
               id="path16786"
               sodipodi:nodetypes="cc" />
            <path
               style="mix-blend-mode:darken;fill:#696969;fill-opacity:1;stroke:none;stroke-width:0.293454px;stroke-linecap:butt;stroke-linejoin:miter;stroke-opacity:1"
               d="m 82.493788,-14.22357 c -0.370846,-0.485748 -1.562711,-0.311534 -1.935923,-0.764814 -4.138126,-5.025923 -5.848214,-10.541776 -5.219427,-16.971322 1.526849,-2.143124 1.985578,-3.15061 4.117378,-4.587956 -1.064337,8.856693 4.03424,14.17328 3.037972,22.324092 z"
               id="path16792"
               sodipodi:nodetypes="csccc" />
            <path
               style="mix-blend-mode:darken;fill:#696969;fill-opacity:1;stroke:none;stroke-width:0.293454px;stroke-linecap:butt;stroke-linejoin:miter;stroke-opacity:1"
               d="m 72.71781,-8.4553453 c -0.370846,-0.485748 -0.37855,0.7111505 -0.751762,0.2578705 -4.138126,-5.0259232 -5.299136,-9.4970482 -4.965317,-15.9646542 0.275845,-0.638009 0.286245,-0.833014 1.333189,-2.162852 -1.064337,8.856693 5.380158,9.718823 4.38389,17.8696357 z"
               id="path16792-2"
               sodipodi:nodetypes="csccc" />
            <path
               style="mix-blend-mode:darken;fill:#696969;fill-opacity:1;stroke:none;stroke-width:0.293454px;stroke-linecap:butt;stroke-linejoin:miter;stroke-opacity:1"
               d="M 57.253517,5.8514912 C 51.203574,10.317774 46.936162,6.5823193 45.25291,5.0615969 45.382336,3.9731186 45.437857,3.9205981 45.606063,3.518343 c 1.206316,0.4252573 4.322135,1.3694961 11.647454,2.3331482 z"
               id="path16792-2-1"
               sodipodi:nodetypes="cccc" />
            <path
               style="mix-blend-mode:darken;fill:#696969;fill-opacity:1;stroke:none;stroke-width:0.293454px;stroke-linecap:butt;stroke-linejoin:miter;stroke-opacity:1"
               d="m 52.626665,19.141382 c -7.97597,5.624184 -12.663021,-1.299656 -12.871379,-1.149261 0.112154,-0.756755 0.06746,-0.100908 0.277133,-1.982094 7.232611,5.221414 5.946194,-1.688613 12.594246,3.131355 z"
               id="path16792-2-1-7"
               sodipodi:nodetypes="cccc" />
            <path
               style="mix-blend-mode:darken;fill:#696969;fill-opacity:1;stroke:none;stroke-width:0.293454px;stroke-linecap:butt;stroke-linejoin:miter;stroke-opacity:1"
               d="m 46.569414,42.076201 c -3.835518,5.211356 -8.371748,5.673852 -10.534595,5.150516 -0.449878,-1.098578 -0.689747,-1.552205 -0.751618,-3.012 8.631393,2.252303 3.262064,-2.431122 11.286213,-2.138516 z"
               id="path16792-2-1-8"
               sodipodi:nodetypes="cccc" />
            <path
               style="mix-blend-mode:darken;fill:#696969;fill-opacity:1;stroke:none;stroke-width:0.293454px;stroke-linecap:butt;stroke-linejoin:miter;stroke-opacity:1"
               d="m 156.17461,-13.55607 c 9.6124,0.11435 13.06975,-7.495231 15.06961,-12.373313 -2.5795,-1.825323 -3.19227,-1.588198 -3.77913,-1.990918 -3.57116,8.210398 -5.74873,9.587323 -11.29048,14.364231 z"
               id="path16792-2-1-9"
               sodipodi:nodetypes="cccc" />
            <path
               style="mix-blend-mode:darken;fill:#696969;fill-opacity:1;stroke:none;stroke-width:0.293454px;stroke-linecap:butt;stroke-linejoin:miter;stroke-opacity:1"
               d="m 175.92986,6.0563175 c 9.6124,0.11435 14.52746,0.7646949 16.52732,-4.113387 -1.73637,-2.9725311 -2.14362,-3.4658175 -2.85049,-4.3582784 -4.11541,8.19394 -5.41558,5.8035053 -11.78717,7.4168289 -0.708,0.1792693 -1.18265,0.796425 -1.88966,1.0548365 z"
               id="path16792-2-1-9-6"
               sodipodi:nodetypes="cccsc" />
            <path
               style="mix-blend-mode:darken;fill:#696969;fill-opacity:1;stroke:none;stroke-width:0.293454px;stroke-linecap:butt;stroke-linejoin:miter;stroke-opacity:1"
               d="m 183.37446,26.792588 c 8.39331,4.68655 14.16049,1.54394 18.24539,-1.789035 -0.68025,-3.185323 -1.8548,-3.990694 -2.01743,-4.721756 -7.43886,7.579545 -8.12144,6.94619 -16.22796,6.510791 z"
               id="path16792-2-1-9-7"
               sodipodi:nodetypes="cccc" />
            <path
               style="mix-blend-mode:darken;fill:#696969;fill-opacity:1;stroke:none;stroke-width:0.293454px;stroke-linecap:butt;stroke-linejoin:miter;stroke-opacity:1"
               d="m 183.91882,35.815497 c -0.58894,10.091123 15.38194,9.379041 19.46684,6.046066 0.88027,-2.479796 0.53737,-4.438795 -0.22457,-8.685854 -8.86591,8.124441 -12.3127,11.613233 -19.24227,2.639788 z"
               id="path16792-2-1-9-7-8"
               sodipodi:nodetypes="cccc" />
            <path
               style="fill:none;stroke:#000000;stroke-width:0.293454px;stroke-linecap:butt;stroke-linejoin:miter;stroke-opacity:1"
               d="m 185.7278,86.526495 c 2.679,9.649919 1.18975,18.685555 0,28.419865"
               id="path16887"
               sodipodi:nodetypes="cc" />
            <path
               style="fill:none;stroke:#000000;stroke-width:0.293454px;stroke-linecap:butt;stroke-linejoin:miter;stroke-opacity:1"
               d="m 166.78122,108.4873 c -1.2931,7.43978 -0.4707,9.44301 1.61477,16.36295"
               id="path16889"
               sodipodi:nodetypes="cc" />
            <path
               style="fill:none;stroke:#000000;stroke-width:0.293454px;stroke-linecap:butt;stroke-linejoin:miter;stroke-opacity:1"
               d="m 157.95384,116.66878 c -1.70122,6.72854 -1.23585,13.4022 0,20.13073"
               id="path16891"
               sodipodi:nodetypes="cc" />
            <path
               style="fill:none;stroke:#000000;stroke-width:0.293454px;stroke-linecap:butt;stroke-linejoin:miter;stroke-opacity:1"
               d="M 57.273239,120.24817 C 57.601161,112.98319 55.819123,105.6671 54.501228,98.583408"
               id="path16893"
               sodipodi:nodetypes="cc" />
            <path
               style="fill:none;stroke:#000000;stroke-width:0.293454px;stroke-linecap:butt;stroke-linejoin:miter;stroke-opacity:1"
               d="m 69.182133,125.48271 c 1.966327,-3.79108 2.39703,-7.99554 2.866207,-12.15112"
               id="path16895"
               sodipodi:nodetypes="cc" />
            <path
               style="fill:none;stroke:#000000;stroke-width:0.293454px;stroke-linecap:butt;stroke-linejoin:miter;stroke-opacity:1"
               d="m 75.708473,137.76837 c 6.988711,-6.51236 9.6053,-10.84324 11.733961,-20.02308"
               id="path16897"
               sodipodi:nodetypes="cc" />
            <path
               style="fill:none;stroke:#000000;stroke-width:0.07209267;stroke-linecap:butt;stroke-linejoin:miter;stroke-opacity:1;stroke-miterlimit:4;stroke-dasharray:none"
               d="m 145.67401,-24.880477 c 6.86974,-5.163276 6.14019,-4.22386 8.22105,-12.027079"
               id="path16899"
               sodipodi:nodetypes="cc" />
            <path
               style="fill:none;stroke:#000000;stroke-width:0.18300448;stroke-linecap:butt;stroke-linejoin:miter;stroke-opacity:1;stroke-miterlimit:4;stroke-dasharray:none"
               d="m 174.75214,-11.93995 c 5.06313,-1.766915 4.73237,-1.016237 7.30759,-5.176211"
               id="path16901"
               sodipodi:nodetypes="cc" />
            <path
               style="fill:none;stroke:#000000;stroke-width:0.18300448;stroke-linecap:butt;stroke-linejoin:miter;stroke-opacity:1;stroke-miterlimit:4;stroke-dasharray:none"
               d="m 87.365516,-30.970138 c -1.813888,-3.104533 -1.763838,-5.511138 -1.763838,-8.894652"
               id="path16903"
               sodipodi:nodetypes="cc" />
          </g>
        </g>
      </g>
      <path
         style="fill:none;stroke:#000000;stroke-width:0.264583px;stroke-linecap:butt;stroke-linejoin:miter;stroke-opacity:1"
         d="m 97.419744,116.52951 v 0 c -10.43729,1.59289 -7.53213,-3.61252 -6.42048,-11.1224"
         id="path1145"
         sodipodi:nodetypes="ccc" />
    </g>
  </g>
</svg>
