<?xml version="1.0" encoding="UTF-8" standalone="no"?>
<svg
   xmlns:dc="http://purl.org/dc/elements/1.1/"
   xmlns:cc="http://creativecommons.org/ns#"
   xmlns:rdf="http://www.w3.org/1999/02/22-rdf-syntax-ns#"
   xmlns:svg="http://www.w3.org/2000/svg"
   xmlns="http://www.w3.org/2000/svg"
   xmlns:sodipodi="http://sodipodi.sourceforge.net/DTD/sodipodi-0.dtd"
   xmlns:inkscape="http://www.inkscape.org/namespaces/inkscape"
   width="210mm"
   height="297mm"
   viewBox="0 0 210 297"
   version="1.1"
   id="svg2801"
   inkscape:version="1.0.1 (3bc2e813f5, 2020-09-07)"
   sodipodi:docname="Cedric.svg">
  <defs
     id="defs2795" />
  <sodipodi:namedview
     id="base"
     pagecolor="#ffffff"
     bordercolor="#666666"
     borderopacity="1.0"
     inkscape:pageopacity="0.0"
     inkscape:pageshadow="2"
     inkscape:zoom="0.35"
     inkscape:cx="-711.37918"
     inkscape:cy="469.24875"
     inkscape:document-units="mm"
     inkscape:current-layer="g3791"
     inkscape:document-rotation="0"
     showgrid="false"
     inkscape:snap-nodes="false"
     inkscape:window-width="1920"
     inkscape:window-height="1017"
     inkscape:window-x="1912"
     inkscape:window-y="-8"
     inkscape:window-maximized="1"
     showguides="true"
     inkscape:guide-bbox="true" />
  <metadata
     id="metadata2798">
    <rdf:RDF>
      <cc:Work
         rdf:about="">
        <dc:format>image/svg+xml</dc:format>
        <dc:type
           rdf:resource="http://purl.org/dc/dcmitype/StillImage" />
        <dc:title></dc:title>
      </cc:Work>
    </rdf:RDF>
  </metadata>
  <g
     inkscape:label="Layer 1"
     inkscape:groupmode="layer"
     id="layer1">
    <g
       id="g4023"
       transform="matrix(0.89108023,0,0,0.89108023,-61.655651,80.034051)">
      <path
         style="fill:#00002b;stroke:#000000;stroke-width:0.264583px;stroke-linecap:butt;stroke-linejoin:miter;stroke-opacity:1"
         d="m 204.89456,173.47624 c 4.92906,14.37784 5.00819,31.75975 5.00819,46.77456 -0.85327,6.25975 -10.14826,4.36221 -12.75669,-0.0945 -9.11644,-14.51977 -11.21186,-26.66635 -12.85119,-43.27827 z"
         id="path3561-4"
         sodipodi:nodetypes="ccccc" />
      <path
         style="fill:#00002b;stroke:#000000;stroke-width:0.264583px;stroke-linecap:butt;stroke-linejoin:miter;stroke-opacity:1"
         d="m 157.52158,175.28646 c -4.92906,14.37784 -4.15774,29.96436 -4.15774,44.97917 0.85327,6.25975 10.14826,4.36221 12.75669,-0.0945 9.11644,-14.51977 11.21186,-26.66635 12.85119,-43.27827 z"
         id="path3561"
         sodipodi:nodetypes="ccccc" />
      <path
         style="fill:#ffccaa;fill-opacity:1;stroke:#000000;stroke-width:0.264583px;stroke-linecap:butt;stroke-linejoin:miter;stroke-opacity:1"
         d="m 142.58829,104.9367 c -8.54022,7.39347 -12.58931,15.83099 -18.50841,25.42401 -1.80045,4.63796 3.04102,10.55429 8.0849,8.21854 9.03376,-5.49334 17.08747,-15.39532 24.14064,-21.55573 2.16742,-9.36904 2.57023,-11.77158 -13.71713,-12.08682 z"
         id="path3559"
         sodipodi:nodetypes="ccccc" />
      <path
         style="fill:#f9f9f9;stroke:#000000;stroke-width:0.264583px;stroke-linecap:butt;stroke-linejoin:miter;stroke-opacity:1"
         d="m 205.12936,105.7051 c 5.14701,-6.525719 9.49365,-5.17744 16.90479,-3.97564 -3.17178,-4.744942 -6.98888,-9.03355 -11.5594,-12.461439 l -55.99297,0.801809 c -5.11983,4.232356 -8.99427,9.534435 -13.0962,14.69982 7.34033,1.34572 15.16012,4.30559 14.96709,12.6953 l 5.47903,-6.68173 -9.35444,60.53654 c 8.72681,12.62204 50.47622,13.21636 56.92841,-4.40994 -6.1329,-21.15855 -4.5681,-39.22308 -4.27631,-61.20472 z"
         id="path3555"
         sodipodi:nodetypes="cccccccccc" />
      <g
         id="g3842"
         transform="matrix(0.41310442,0,0,0.41310442,-15.140781,111.62588)">
        <path
           style="fill:#008000;stroke:#000000;stroke-width:0.264583px;stroke-linecap:butt;stroke-linejoin:miter;stroke-opacity:1"
           d="m 372.26069,62.744048 c 23.23443,14.76618 46.73692,1.655115 49.56073,2.645833 2.73889,-0.860016 23.41208,11.236791 51.21578,-1.511906 2.64649,6.467648 1.60862,12.675512 1.3229,18.898809 -13.97461,-2.006889 -36.51764,-6.407409 -44.03421,0 -6.82974,6.847284 -3.94065,32.208246 -0.43032,45.383046 l -19.31893,-0.40388 c 1.89391,-14.40977 8.58254,-37.667451 2.27528,-45.22619 -4.80313,-7.042374 -28.58807,-3.342234 -42.05727,-1.264879 0.0253,-6.356266 -2.50059,-13.149891 1.46604,-18.520833 z"
           id="path3802"
           sodipodi:nodetypes="cccccccccc" />
        <path
           id="path3793"
           style="opacity:1;fill:#000000;fill-opacity:1;stroke:none;stroke-width:0.384;stroke-linecap:round;stroke-linejoin:round;stroke-miterlimit:4;stroke-dasharray:none"
           d="M 422.7665,7.9377218 A 66.334816,66.334816 0 0 0 356.43154,74.272174 66.334816,66.334816 0 0 0 422.7665,140.60714 66.334816,66.334816 0 0 0 489.10095,74.272174 66.334816,66.334816 0 0 0 422.7665,7.9377218 Z M 422.38825,23.43445 A 51.593749,51.593749 0 0 1 473.982,75.0282 51.593749,51.593749 0 0 1 422.38825,126.62195 51.593749,51.593749 0 0 1 370.7945,75.0282 51.593749,51.593749 0 0 1 422.38825,23.43445 Z" />
        <circle
           style="opacity:1;fill:#000000;fill-opacity:1;stroke:none;stroke-width:0.533854;stroke-linecap:round;stroke-linejoin:round;stroke-miterlimit:4;stroke-dasharray:none"
           id="path3800"
           cx="421.25446"
           cy="76.162201"
           r="10.772322" />
        <path
           style="fill:#000000;stroke:#000000;stroke-width:0.264583px;stroke-linecap:butt;stroke-linejoin:miter;stroke-opacity:1"
           d="M 472.65923,63.972468 C 469.49547,58.852992 462.0639,53.206154 460.0919,46.510971 c -1.04418,-3.545137 -1.98497,-6.791162 -1.77007,-9.262475 1.64266,-4.270791 3.80132,4.415234 4.98247,4.990344 7.88463,9.216813 8.59868,15.466491 9.35493,21.733628 z"
           id="path3814"
           sodipodi:nodetypes="csccc" />
        <path
           style="fill:#000000;stroke:#000000;stroke-width:0.264583px;stroke-linecap:butt;stroke-linejoin:miter;stroke-opacity:1"
           d="m 372.33798,62.756218 c 3.16376,-5.119477 10.59533,-10.766315 12.56733,-17.461498 1.04418,-3.545138 1.98497,-6.791163 1.77007,-9.262476 -1.64266,-4.270791 -3.80132,4.415234 -4.98247,4.990344 -7.88463,9.216814 -8.59868,15.466492 -9.35493,21.73363 z"
           id="path3814-3"
           sodipodi:nodetypes="csccc" />
        <path
           style="fill:#d5ffd5;stroke:none;stroke-width:0.264583px;stroke-linecap:butt;stroke-linejoin:miter;stroke-opacity:1"
           d="m 453.42275,70.826423 c 7.41898,-0.410788 13.07375,-1.969342 19.10977,-5.746295 l 1.10961,5.595297 c -5.3737,2.635841 -11.98056,0.536617 -19.01666,1.220076 z"
           id="path3831"
           sodipodi:nodetypes="ccccc" />
        <path
           style="fill:#d5ffd5;fill-opacity:1;stroke:none;stroke-width:0.264583px;stroke-linecap:butt;stroke-linejoin:miter;stroke-opacity:1"
           d="m 426.96307,86.996229 c -0.60331,0.688504 -3.02922,1.625738 -4.79417,1.152602 0.76456,6.78373 2.8823,13.782259 2.23218,20.543479 l 1.89381,-0.31452 c -1.1968,-7.20643 -0.12889,-14.208029 0.66818,-21.381561 z"
           id="path3833"
           sodipodi:nodetypes="ccccc" />
      </g>
      <path
         style="fill:#ffccaa;fill-opacity:1;stroke:#000000;stroke-width:0.264583px;stroke-linecap:butt;stroke-linejoin:miter;stroke-opacity:1"
         d="m 221.16553,101.82969 c 3.32844,3.40055 4.65884,7.7112 6.41447,12.02713 0.008,2.27915 -0.0785,4.5771 -2.53906,7.34991 -12.40652,7.58693 -23.45559,15.85561 -36.74956,21.9161 -5.61648,1.90484 -14.23575,-7.96135 -9.6217,-12.2944 8.83118,-6.66366 18.2966,-12.51487 27.39512,-18.97613 l -0.93544,-6.1472 c 4.36696,-6.005439 9.48185,-5.861569 16.03617,-3.87541 z"
         id="path3557"
         sodipodi:nodetypes="cccccccc" />
      <g
         id="g3791">
        <path
           style="fill:#ffccaa;fill-opacity:1;stroke:#000000;stroke-width:0.264583px;stroke-linecap:butt;stroke-linejoin:miter;stroke-opacity:1"
           d="m 171.87312,95.52875 c 6.41974,13.03277 18.55365,9.3557 23.72955,-1.074084 z"
           id="path3662"
           sodipodi:nodetypes="ccc" />
        <path
           style="fill:#ffccaa;fill-opacity:1;stroke:#000000;stroke-width:0.264583px;stroke-linecap:butt;stroke-linejoin:miter;stroke-opacity:1"
           d="M 102.62053,10.205357 C 99.515333,5.5653054 98.541573,4.8930932 93.360117,5.2916666 87.46946,6.719663 98.490684,32.187642 106.02232,41.010416"
           id="path3549"
           sodipodi:nodetypes="ccc" />
        <path
           id="path3378"
           style="fill:#ffccaa;fill-opacity:1;stroke:#16291d;stroke-width:0.384;stroke-linecap:round;stroke-linejoin:round;stroke-miterlimit:4;stroke-dasharray:none"
           d="m 179.67039,-61.072009 a 78.609673,78.609673 0 0 0 -78.60967,78.60967 78.609673,78.609673 0 0 0 78.60967,78.609673 78.609673,78.609673 0 0 0 78.60966,-78.609673 78.609673,78.609673 0 0 0 -17.68935,-49.680687 h -56.10767 v -28.781189 a 78.609673,78.609673 0 0 0 -4.81264,-0.147794 z" />
        <path
           style="fill:#2b1100;stroke:#000000;stroke-width:0.264583px;stroke-linecap:butt;stroke-linejoin:miter;stroke-opacity:1"
           d="m 101.29515,8.8198943 c 15.45869,-5.8551031 10.56545,-21.1345743 25.39061,-23.2524483 24.38296,8.7184244 53.41909,-2.210804 75.90454,-12.828938 15.75687,-4.175653 25.55967,-1.065237 33.08517,8.900978 0.26352,0.348982 5.60153,-0.534253 5.60153,-0.534253 0,0 -4.90948,1.604695 -4.76394,1.910928 0.42196,0.887879 1.22118,2.103049 2.06111,3.392967 0.13369,0.205307 2.65438,-0.697797 2.78877,-0.489722 0.11137,0.172428 -1.52563,2.400701 -1.41548,2.573751 0.5595,0.879028 0.45548,0.813673 0.86238,1.6178706 1.75627,4.5302691 3.4449,11.5523865 5.93265,18.1029174 0.2416,0.636175 7.26831,-0.4698848 7.26831,-0.4698848 0,0 -7.13823,1.508054 -6.86742,2.1072953 3.34407,7.3998345 6.33816,15.4201905 13.81682,15.0047105 0.49711,-7.910608 -0.2257,-15.8239335 -2.02657,-23.4724656 -0.12401,-0.52668631 -2.85901,-6.5979597 -2.99319,-7.1220475 -0.1317,-0.5143404 2.73852,4.3180032 2.59711,3.8063323 -0.6264,-2.2666108 -1.74859,-4.305767 -2.56095,-6.5111957 -0.31621,-0.8584533 -4.72183,-9.3789465 -4.72183,-9.3789465 l 2.98826,3.560251 c 0.0838,-1.591745 -6.14176,-12.513065 -9.24744,-15.896376 l -4.72029,-1.112153 0.73499,-9.755338 c -33.63376,-31.612038 -84.26994,-30.217808 -117.53177,0.668176 -16.26156,13.596582 -20.47919,29.011439 -22.18337,49.1775913 z"
           id="path3380"
           sodipodi:nodetypes="cccscsssscscscssssccccccc" />
        <path
           style="fill:#502d16;fill-opacity:1;stroke:#000000;stroke-width:0.264583px;stroke-linecap:butt;stroke-linejoin:miter;stroke-opacity:1"
           d="m 184.64136,-34.584821 c -10.9094,-22.579909 -17.01365,-28.998547 -35.34078,-26.080356 31.21166,-18.784586 41.92099,-3.337699 56.50745,15.686012 0.40301,-11.673684 -7.15054,-20.552425 -22.11161,-24.568453 16.77749,-2.571707 27.60309,8.534403 34.01786,19.276786 z"
           id="path3384"
           sodipodi:nodetypes="cccccc" />
        <path
           style="fill:#502d16;fill-opacity:1;stroke:#000000;stroke-width:0.264583px;stroke-linecap:butt;stroke-linejoin:miter;stroke-opacity:1"
           d="m 146.29456,-49.870917 c -14.4735,1.351833 -14.70079,0.308774 -20.8221,-0.678708 -4.85453,-0.783126 -9.95504,4.575436 -16.99887,-3.051985 3.76368,24.733051 21.68045,25.091016 39.81777,27.227148 -9.79744,6.359853 -29.04957,-1.820375 -42.33788,-10.970185 6.70717,26.929636 31.425,23.937694 43.93686,23.900909 z"
           id="path3384-2-7"
           sodipodi:nodetypes="csccccc" />
        <path
           style="fill:none;stroke:#000000;stroke-width:0.264583px;stroke-linecap:butt;stroke-linejoin:miter;stroke-opacity:1"
           d="m 107.9122,-34.773809 c 2.09661,6.33881 3.25349,6.22734 8.50447,10.205357"
           id="path3477"
           sodipodi:nodetypes="cc" />
        <path
           style="fill:#502d16;fill-opacity:1;stroke:#000000;stroke-width:0.264583px;stroke-linecap:butt;stroke-linejoin:miter;stroke-opacity:1"
           d="m 164.26895,-48.050516 c -14.47349,1.351834 -14.70078,0.308774 -20.82209,-0.678708 -4.85453,-0.783126 -15.9686,-0.502685 -23.01243,-8.130106 3.76368,24.733052 27.694,30.169138 45.83132,32.305268 -9.79743,6.359853 -41.8785,4.460461 -55.16681,-4.68935 6.70717,26.9296353 44.25394,17.65686 56.7658,17.620076 z"
           id="path3384-2"
           sodipodi:nodetypes="csccccc" />
        <path
           style="fill:#502d16;fill-opacity:1;stroke:#000000;stroke-width:0.264583px;stroke-linecap:butt;stroke-linejoin:miter;stroke-opacity:1"
           d="m 163.13123,-22.323893 c -16.89932,-31.256174 -18.21784,-26.605555 -39.33965,-24.725013 31.21166,-18.784586 36.94292,-4.031583 51.52938,14.992129 0.40301,-11.673685 -10.45783,-19.324003 -25.4189,-23.340031 16.77749,-2.571707 27.60309,8.534403 34.01786,19.276786 z"
           id="path3384-4"
           sodipodi:nodetypes="cccccc" />
        <path
           style="fill:#502d16;fill-opacity:1;stroke:#000000;stroke-width:0.264583px;stroke-linecap:butt;stroke-linejoin:miter;stroke-opacity:1"
           d="m 180.08705,-51.611974 c -13.69109,-4.885058 -11.3186,-3.454319 -16.45073,-6.933809 -4.07005,-2.759426 -7.8156,-0.656556 -10.98072,-10.544691 -7.03013,24.009713 3.78189,30.027532 19.3217,39.621274 -11.5665,1.628928 -19.35115,-20.930329 -27.53421,-34.834854 -5.2892,27.243641 12.16688,41.982759 23.52453,47.231743 z"
           id="path3384-2-7-8"
           sodipodi:nodetypes="csccccc" />
        <path
           style="fill:none;stroke:#000000;stroke-width:0.264583px;stroke-linecap:butt;stroke-linejoin:miter;stroke-opacity:1"
           d="m 162.71875,-64.255951 c 9.50548,-3.585928 16.41856,-1.227242 24.75744,3.590774"
           id="path3473"
           sodipodi:nodetypes="cc" />
        <path
           style="fill:none;stroke:#000000;stroke-width:0.264583px;stroke-linecap:butt;stroke-linejoin:miter;stroke-opacity:1"
           d="m 110.18006,-50.081843 c 2.81369,7.723995 7.50062,9.114789 14.74107,11.528271"
           id="path3475"
           sodipodi:nodetypes="cc" />
        <path
           style="fill:#502d16;stroke:#000000;stroke-width:0.264583px;stroke-linecap:butt;stroke-linejoin:miter;stroke-opacity:1"
           d="M 154.59226,-4.4412201 C 130.06831,-5.677489 119.47647,-18.391244 111.125,-39.6875 c 13.66166,10.920199 29.74201,2.597812 45.07366,21.261161 -15.00734,-18.62811 -30.66118,-8.849726 -38.36458,-26.64732 -0.26968,-0.470385 -0.10431,-0.819923 0.18898,-1.13393 11.59698,4.288537 21.24238,-2.423533 33.4509,2.36235 4.15627,1.641726 4.90857,1.615243 11.18482,5.228924 -6.95926,-5.437861 -13.7166,-12.132262 -30.83958,-7.874757 22.6463,-15.032081 41.24996,-8.653541 57.35788,8.693454 -9.24741,-11.979516 -25.18636,-20.646717 -39.12053,-18.804315 9.64688,-2.922088 17.61852,-4.905076 26.08035,-0.850448 -3.11384,-2.043782 -6.63519,-3.10171 -10.11086,-4.346726 14.91036,-1.319024 25.21502,-1.995669 35.24628,8.787948 -2.96993,-4.902042 -7.576,-8.0544 -12.37872,-10.961309 9.26386,0.506523 13.75953,3.233102 18.70982,9.732885 -2.74999,-5.338234 -3.59087,-6.58765 -8.12649,-9.827381 6.66404,1.531302 8.8409,3.562783 13.32366,8.504465 1.82035,-3.046657 0.16771,-4.162889 -5.57515,-6.425594 12.11397,0.381081 31.29745,10.498875 36.00224,25.418896 -1.99403,5.447111 -9.41205,10.774112 -15.40253,10.961306 -6.61344,-3.535587 -10.31982,-2.61036 -17.29241,-1.700894 2.14446,1.000782 4.06642,2.132448 4.71422,4.013624 -3.88792,-3.336625 -10.48339,-0.987378 -15.95901,-0.989813 2.25808,0.655 3.10054,2.055058 3.68526,3.590774 -5.78,-4.74234 -10.96131,0.692956 -16.44196,1.039434 1.86513,0.500694 2.44298,2.171644 3.40178,3.49628 -4.28597,-3.068964 -15.36014,-1.437342 -16.81994,2.173363 -0.62407,1.543587 5.36497,3.696039 5.57515,3.401786 -4.88932,1.2615538 -11.63218,0.310682 -18.42634,-0.09449 1.81635,0.6929563 1.85529,1.4804066 2.17337,2.1733629 -2.54139,2.514699 -5.62047,4.1168001 -7.84301,4.063244 z"
           id="path3382"
           sodipodi:nodetypes="ccccccccccccccccccccccccccscccc" />
        <path
           style="fill:#502d16;fill-opacity:1;stroke:#000000;stroke-width:0.264583px;stroke-linecap:butt;stroke-linejoin:miter;stroke-opacity:1"
           d="m 123.4117,-13.831197 c -8.69578,-0.109269 -10.75206,-5.115709 -15.02523,-12.292432 -0.88388,7.107293 0.0351,12.209239 6.0871,16.3297268 -7.11088,-1.8955098 -6.27815,-4.4242098 -8.02816,-10.9242338 0.0242,8.872023 1.58662,10.7806337 7.87913,16.0743281 -4.70617,-1.9069065 -5.83775,-2.3334598 -8.36642,-6.2488151 1.72344,5.2901158 2.20901,6.6571556 7.13029,8.620832 -3.95891,-0.4978966 -4.33241,1.250632 -6.31759,4.4896195 1.72329,-1.52769724 2.62173,-1.75010686 4.81421,-1.75010686 3.34013,-5.08398384 5.11401,-11.78448064 11.82667,-14.29891864 z"
           id="path3407"
           sodipodi:nodetypes="cccccccccc" />
        <path
           style="fill:none;stroke:#000000;stroke-width:0.264583px;stroke-linecap:butt;stroke-linejoin:miter;stroke-opacity:1"
           d="m 116.60565,-33.639881 c 5.55206,14.866616 19.81256,21.461992 34.01786,25.7023811"
           id="path3463"
           sodipodi:nodetypes="cc" />
        <path
           style="fill:none;stroke:#000000;stroke-width:0.264583px;stroke-linecap:butt;stroke-linejoin:miter;stroke-opacity:1"
           d="m 121.33036,-43.656249 c 10.43963,3.925428 21.38505,1.251989 31.75,5.858631"
           id="path3465"
           sodipodi:nodetypes="cc" />
        <path
           style="fill:none;stroke:#000000;stroke-width:0.264583px;stroke-linecap:butt;stroke-linejoin:miter;stroke-opacity:1"
           d="m 164.79762,-44.790177 c 7.98332,2.579369 15.56734,5.21694 20.03274,12.473212"
           id="path3467"
           sodipodi:nodetypes="cc" />
        <path
           style="fill:none;stroke:#000000;stroke-width:0.264583px;stroke-linecap:butt;stroke-linejoin:miter;stroke-opacity:1"
           d="m 169.9003,-57.263392 c 7.24392,2.632721 14.5127,5.81926 20.03273,11.339285"
           id="path3469"
           sodipodi:nodetypes="cc" />
        <path
           style="fill:none;stroke:#000000;stroke-width:0.264583px;stroke-linecap:butt;stroke-linejoin:miter;stroke-opacity:1"
           d="m 217.5253,-57.641368 c 12.61444,7.103861 25.21963,12.532561 15.11904,26.269344"
           id="path3471"
           sodipodi:nodetypes="cc" />
        <path
           style="fill:none;stroke:#000000;stroke-width:0.264583px;stroke-linecap:butt;stroke-linejoin:miter;stroke-opacity:1"
           d="m 109.18787,-23.198289 c -0.047,2.978784 1.11527,4.077931 2.78758,6.425596"
           id="path3479"
           sodipodi:nodetypes="cc" />
        <path
           style="fill:none;stroke:#000000;stroke-width:0.264583px;stroke-linecap:butt;stroke-linejoin:miter;stroke-opacity:1"
           d="m 241.29426,-18.87591 c 2.41845,-1.167859 6.49362,0.518534 9.67183,1.436573"
           id="path3481"
           sodipodi:nodetypes="cc" />
        <path
           style="fill:none;stroke:#000000;stroke-width:0.264583px;stroke-linecap:butt;stroke-linejoin:miter;stroke-opacity:1"
           d="m 254.03968,7.8176336 c 3.00919,0.030525 3.76919,-0.6088374 5.87994,2.0713388"
           id="path3483"
           sodipodi:nodetypes="cc" />
        <path
           style="fill:none;stroke:#000000;stroke-width:0.264583px;stroke-linecap:butt;stroke-linejoin:miter;stroke-opacity:1"
           d="m 196.54762,-50.648809 c 11.99096,3.203003 19.31569,8.126476 12.6622,20.032737"
           id="path3485"
           sodipodi:nodetypes="cc" />
        <path
           style="fill:none;stroke:#000000;stroke-width:0.264583px;stroke-linecap:butt;stroke-linejoin:miter;stroke-opacity:1"
           d="m 197.32719,-61.444753 c 2.35387,0.347822 3.85341,1.446704 5.43341,3.118302"
           id="path3487"
           sodipodi:nodetypes="cc" />
        <path
           style="mix-blend-mode:darken;fill:#2b1100;fill-opacity:1;stroke:none;stroke-width:0.264583px;stroke-linecap:butt;stroke-linejoin:miter;stroke-opacity:1"
           d="m 155.44229,-4.4600603 c -4.27822,0.5243128 -11.9102,-0.8106331 -18.72439,-3.7140452 -7.5016,-3.1963055 -12.47656,-8.3220095 -13.65872,-10.2962215 8.68984,7.301897 34.16212,13.0581195 34.16212,13.0581195 -0.33958,-1.2032597 -0.33066,-2.2049737 -0.80181,-2.2049737 0.96645,0.2927497 2.31366,0.077803 2.80633,1.0022607 1.48993,0.00532 2.22003,-1.1080915 3.20945,-1.8895436 -0.7962,-0.9699095 -1.7173,0.2947913 -2.17337,-2.1733629 0,0 5.83484,-0.262316 9.62184,-1.453381 2.15934,-0.679142 2.22154,-2.411693 3.75341,-2.681429 0.0586,-0.763595 -0.14262,-1.52719 -0.61855,-2.290785 0.66525,0.250089 1.436,0.447427 1.41741,1.039434 -0.24859,-0.754822 0.11702,-1.304911 0.37798,-1.889881 0.21687,0.697288 0.47836,1.341037 1.13392,1.511905 1.12062,-1.275399 -3.46726,-6.030397 -3.77975,-7.46503 0.99078,1.120324 6.22881,5.335951 5.95312,6.614583 1.48334,-0.447245 3.00341,-0.41963 4.53571,-0.472466 0.51016,-1.154002 -1.43169,-3.517536 -3.87426,-5.102678 3.48768,0.292781 5.23416,3.122433 5.03112,4.007891 1.53477,-0.624824 1.71288,-1.757932 0.37559,-2.387245 0,0 2.2022,0.454021 3.66472,1.308669 -1.5663,-2.133732 -3.46075,-2.698931 -5.84361,-3.581474 2.7589,-0.04214 5.18236,0.747467 7.75081,1.603617 l 3.47451,-0.668174 v -1.069078 l 1.46998,0.668174 0.26727,-1.336348 1.33634,0.668174 c 0.51256,-0.442226 0.64491,-0.938767 0.53454,-1.469982 0.65317,0.699144 1.39866,0.659682 2.13816,0.668174 1.34741,-0.970929 -1.7042,-2.248767 -4.00904,-3.474504 2.50405,0.543197 4.85712,1.440317 7.21627,2.405425 l 3.07361,-0.534539 c 0.1534,-0.630216 -0.47488,-0.999874 -0.80181,-1.469981 3.05187,-0.06953 3.58747,0.538389 4.40994,1.069078 1.00694,-2.384683 8.18529,-2.102169 12.69531,-1.870888 -0.38592,-3.497041 -2.49665,-4.788633 -5.34539,-6.280832 4.34597,1.317076 6.51259,2.565116 7.34991,6.414468 0.57056,-1.720162 0.22609,-3.102117 -0.13364,-4.810852 2.11467,1.849821 3.32828,3.068268 2.93325,5.833379 v 0 c 0.56439,-3.330101 0.41772,-5.416943 -1.32963,-8.105171 3.85868,3.962484 3.75062,4.259732 2.78421,9.671683 -5.378,-2.957873 -10.65682,-3.100355 -17.19126,-1.699344 1.90364,0.972805 3.86591,1.983745 4.72219,3.916639 -3.834,-2.250062 -6.16165,-1.931439 -15.87902,-0.838605 -0.0144,0.0016 1.32521,0.378313 2.08325,1.13792 0.96904,0.971032 1.41139,2.377134 1.41139,2.377134 0,0 -2.90492,-2.13723 -4.96982,-1.975093 -0.94118,0.0739 -3.11443,0.299296 -11.00059,3.115064 1.28652,0.459217 2.93174,3.41569 2.93174,3.41569 0.52798,-0.572637 -7.3317,-2.578962 -11.49363,-1.125066 -1.03869,0.362848 -2.19482,0.57642 -3.04076,1.071556 -0.7039,0.412002 -1.2738,0.847753 -1.7599,1.323504 -2.35133,2.301271 2.95014,3.573152 5.0576,4.357777 -4.23289,0.8500347 -10.37199,0.9621645 -18.43444,-0.147112 1.53623,0.682825 1.8314,1.4292937 2.17337,2.1733629 0,0 -1.60206,1.6347963 -3.46464,2.7049714 -1.36696,0.7854067 -3.14008,1.2175034 -3.52834,1.3394324 z"
           id="path3489"
           sodipodi:nodetypes="cscsccccsccccccccccccccccccccccccccccccccccccsscsccssscccsc" />
        <path
           style="fill:none;stroke:none;stroke-width:0.264583px;stroke-linecap:butt;stroke-linejoin:miter;stroke-opacity:1"
           d="m 212.80059,-55.562499 4.91369,5.291669 -0.0901,4.768194 1.03567,-4.911077 -5.17835,-6.481286"
           id="path3493" />
        <path
           style="mix-blend-mode:darken;fill:#2b1100;fill-opacity:1;stroke:none;stroke-width:0.264583px;stroke-linecap:butt;stroke-linejoin:miter;stroke-opacity:1"
           d="m 227.91964,-25.702381 c 1.02126,0.08844 2.15568,-0.275752 3.26004,-0.519717 1.67622,-0.56658 3.5373,-1.549076 5.38616,-2.504092 1.48566,-1.091929 2.84195,-2.276269 4.016,-3.590775 l 2.22061,-2.882066 0.42523,-1.228424 -0.8977,-2.126117 c -2.2048,6.02889 -9.55758,9.337772 -14.41034,12.851191 z"
           id="path3495"
           sodipodi:nodetypes="cccccccc" />
        <path
           style="mix-blend-mode:darken;fill:#1f0c00;fill-opacity:1;stroke:none;stroke-width:0.264583px;stroke-linecap:butt;stroke-linejoin:miter;stroke-opacity:1"
           d="m 228.26421,-25.421764 2.12611,1.748139 c 5.44289,-2.706069 9.97875,-4.44677 16.06399,-4.866443 l -1.46466,-1.795388 -4.63021,-0.897692 -0.18898,-0.566965 c -3.605,3.832938 -7.73178,5.217553 -11.90625,6.378349 z"
           id="path3497"
           sodipodi:nodetypes="ccccccc" />
        <path
           style="fill:#000000;stroke:#000000;stroke-width:0.264583px;stroke-linecap:butt;stroke-linejoin:miter;stroke-opacity:1"
           d="m 185.75232,10.223059 -0.73499,6.748556 c 11.66459,-0.292141 23.05376,-1.242967 34.74504,-1.469982 -10.87691,-7.0381522 -21.20944,-5.101403 -34.01005,-5.278574 z"
           id="path3499"
           sodipodi:nodetypes="cccc" />
        <path
           style="fill:#000000;stroke:#000000;stroke-width:0.249604px;stroke-linecap:butt;stroke-linejoin:miter;stroke-opacity:1"
           d="m 155.49243,11.601523 0.65195,6.771 c -10.34682,-0.293113 -20.44933,-1.247101 -30.81982,-1.47487 9.64812,-7.06156 18.81337,-5.11837 30.16787,-5.29613 z"
           id="path3499-5"
           sodipodi:nodetypes="cccc" />
        <path
           style="fill:#000000;stroke:#000000;stroke-width:0.264583px;stroke-linecap:butt;stroke-linejoin:miter;stroke-opacity:1"
           d="m 190.4055,23.056547 c 3.38337,-3.283774 12.61761,-2.346591 18.52084,0.377977 0.42992,0.852997 0.77869,1.73755 0.0945,3.023809 -6.98874,1.577704 -16.90555,2.046114 -18.61534,-3.401786 z"
           id="path3516"
           sodipodi:nodetypes="cccc" />
        <path
           style="fill:#000000;stroke:#000000;stroke-width:0.264583px;stroke-linecap:butt;stroke-linejoin:miter;stroke-opacity:1"
           d="m 153.68698,23.858109 c -3.38337,-3.283774 -12.61761,-2.346591 -18.52084,0.377977 -0.42992,0.852997 -0.77869,1.73755 -0.0945,3.023809 6.98874,1.577704 16.90555,2.046114 18.61534,-3.401786 z"
           id="path3516-3"
           sodipodi:nodetypes="cccc" />
        <path
           style="fill:none;stroke:#000000;stroke-width:0.264583px;stroke-linecap:butt;stroke-linejoin:miter;stroke-opacity:1"
           d="m 165.0811,25.607887 c 1.4319,11.079838 -5.66935,22.120225 -5.57515,31.372022 6.55474,5.392592 13.8711,6.02583 19.0878,-2.551337"
           id="path3533"
           sodipodi:nodetypes="ccc" />
        <path
           style="fill:none;stroke:#000000;stroke-width:0.6015171;stroke-linecap:round;stroke-linejoin:miter;stroke-opacity:1;stroke-miterlimit:4;stroke-dasharray:none"
           d="m 153.64732,48.191964 c -6.49703,4.248614 -12.14993,8.859001 -16.15848,14.174108"
           id="path3535"
           sodipodi:nodetypes="cc" />
        <path
           style="fill:none;stroke:#000000;stroke-width:0.71374045;stroke-linecap:round;stroke-linejoin:miter;stroke-opacity:1;stroke-miterlimit:4;stroke-dasharray:none"
           d="m 196.26414,51.310267 c 10.3887,8.420079 12.27421,19.361485 7.74851,31.372024"
           id="path3537"
           sodipodi:nodetypes="cc" />
        <path
           style="fill:none;stroke:#000000;stroke-width:0.264583px;stroke-linecap:butt;stroke-linejoin:miter;stroke-opacity:1"
           d="m 140.70164,66.429315 c 18.90848,1.338983 40.4377,4.207871 58.11383,-4.630208 h 0.0945"
           id="path3539"
           sodipodi:nodetypes="ccc" />
        <path
           style="fill:none;stroke:#000000;stroke-width:0.82596378;stroke-linecap:round;stroke-linejoin:miter;stroke-opacity:1;stroke-miterlimit:4;stroke-dasharray:none"
           d="m 198.4375,58.775298 c 1.45204,1.663073 1.65726,3.292645 1.98437,5.38616"
           id="path3541"
           sodipodi:nodetypes="cc" />
        <path
           style="fill:#ffccaa;fill-opacity:1;stroke:#000000;stroke-width:0.264583px;stroke-linecap:butt;stroke-linejoin:miter;stroke-opacity:1"
           d="M 197.87053,68.886159 C 189.62956,83.04586 173.67142,84.617522 158.6555,82.965773"
           id="path3545"
           sodipodi:nodetypes="cc" />
        <path
           style="fill:none;stroke:#000000;stroke-width:0.264583px;stroke-linecap:butt;stroke-linejoin:miter;stroke-opacity:1"
           d="m 192.39562,64.522237 -0.47821,7.293238 c -13.77188,5.479694 -32.56056,6.218918 -46.30209,0.472472"
           id="path3543"
           sodipodi:nodetypes="ccc" />
        <path
           style="fill:#ffccaa;fill-opacity:1;stroke:#000000;stroke-width:0.264583px;stroke-linecap:butt;stroke-linejoin:miter;stroke-opacity:1"
           d="m 256.31147,30.86963 c 4.40073,-6.87902 5.03871,-16.792177 12.25723,-11.372332 3.67257,11.387775 -5.62918,29.984039 -20.40895,37.030205"
           id="path3547"
           sodipodi:nodetypes="ccc" />
        <circle
           style="fill:#28170b;fill-opacity:1;stroke:none;stroke-width:0.765;stroke-linecap:round;stroke-linejoin:round"
           id="path3551"
           cx="220.45461"
           cy="60.570679"
           r="3.1183035" />
      </g>
      <path
         style="fill:#ffffff;stroke:none;stroke-width:0.264583px;stroke-linecap:butt;stroke-linejoin:miter;stroke-opacity:1"
         d="m 143.96168,66.760043 3.51991,6.189362 c 11.12569,3.938683 26.744,5.129499 44.31745,-1.152067 l 0.51997,-7.16341 c -16.03994,5.18275 -32.97953,3.279353 -48.35733,2.126115 z"
         id="path3888"
         sodipodi:nodetypes="ccccc" />
      <circle
         style="opacity:1;fill:#ffccaa;fill-opacity:1;stroke:#000000;stroke-width:0.307056;stroke-linecap:round;stroke-linejoin:round;stroke-miterlimit:4;stroke-dasharray:none;stroke-opacity:1"
         id="path3844"
         cx="132.01292"
         cy="131.79153"
         r="8.4626884" />
      <path
         id="path3878"
         style="opacity:1;fill:none;fill-opacity:1;stroke:#d2d2d2;stroke-width:0.411288;stroke-linecap:round;stroke-linejoin:round;stroke-miterlimit:4;stroke-dasharray:none;stroke-opacity:1"
         d="m 161.74266,141.98745 a 3.1475368,2.0034795 0 0 1 -3.14754,2.00348 3.1475368,2.0034795 0 0 1 -3.14753,-2.00348 3.1475368,2.0034795 0 0 1 3.14753,-2.00348 3.1475368,2.0034795 0 0 1 3.14754,2.00348 z m -3.07844,-2.01277 a 1.0211098,1.9373124 0 0 1 1.02111,1.93731 1.0211098,1.9373124 0 0 1 -1.02111,1.93731 1.0211098,1.9373124 0 0 1 -1.02111,-1.93731 1.0211098,1.9373124 0 0 1 1.02111,-1.93731 z m 2.54015,1.11563 a 2.5652358,0.95710107 0 0 1 -2.56524,0.95709 2.5652358,0.95710107 0 0 1 -2.56523,-0.95709 2.5652358,0.95710107 0 0 1 2.56523,-0.95711 2.5652358,0.95710107 0 0 1 2.56524,0.95711 z" />
    </g>
    <path
       style="fill:#ffffff;stroke:#000000;stroke-width:0.264583px;stroke-linecap:butt;stroke-linejoin:miter;stroke-opacity:1"
       d="m 109.5805,100.69379 c 3.61831,-1.811757 7.76525,-0.871382 11.55941,-0.13363 -4.07245,-0.32098 -8.04812,-0.48066 -11.55941,0.13363 z"
       id="path11016"
       sodipodi:nodetypes="ccc" />
    <path
       style="fill:#ffffff;stroke:#000000;stroke-width:0.264583px;stroke-linecap:butt;stroke-linejoin:miter;stroke-opacity:1"
       d="m 74.510967,100.97657 c -3.61831,-1.811755 -7.76525,-0.87138 -11.559411,-0.13363 4.07245,-0.32098 8.048121,-0.48066 11.559411,0.13363 z"
       id="path11016-3"
       sodipodi:nodetypes="ccc" />
  </g>
</svg>
