<?xml version="1.0" encoding="UTF-8" standalone="no"?>
<svg
   xmlns:dc="http://purl.org/dc/elements/1.1/"
   xmlns:cc="http://creativecommons.org/ns#"
   xmlns:rdf="http://www.w3.org/1999/02/22-rdf-syntax-ns#"
   xmlns:svg="http://www.w3.org/2000/svg"
   xmlns="http://www.w3.org/2000/svg"
   xmlns:sodipodi="http://sodipodi.sourceforge.net/DTD/sodipodi-0.dtd"
   xmlns:inkscape="http://www.inkscape.org/namespaces/inkscape"
   width="210mm"
   height="297mm"
   viewBox="0 0 210 297"
   version="1.1"
   id="svg7330"
   inkscape:version="1.0.2-2 (e86c870879, 2021-01-15)"
   sodipodi:docname="Art.svg">
  <defs
     id="defs7324" />
  <sodipodi:namedview
     id="base"
     pagecolor="#ffffff"
     bordercolor="#666666"
     borderopacity="1.0"
     inkscape:pageopacity="0.0"
     inkscape:pageshadow="2"
     inkscape:zoom="1.979899"
     inkscape:cx="543.98286"
     inkscape:cy="533.54199"
     inkscape:document-units="mm"
     inkscape:current-layer="g17250"
     inkscape:document-rotation="0"
     showgrid="false"
     showguides="true"
     inkscape:guide-bbox="true"
     inkscape:window-width="1680"
     inkscape:window-height="987"
     inkscape:window-x="1272"
     inkscape:window-y="-8"
     inkscape:window-maximized="1" />
  <metadata
     id="metadata7327">
    <rdf:RDF>
      <cc:Work
         rdf:about="">
        <dc:format>image/svg+xml</dc:format>
        <dc:type
           rdf:resource="http://purl.org/dc/dcmitype/StillImage" />
        <dc:title />
      </cc:Work>
    </rdf:RDF>
  </metadata>
  <g
     inkscape:label="Ebene 1"
     inkscape:groupmode="layer"
     id="layer1">
    <g
       id="g17250"
       transform="translate(16.252976,12.85119)">
      <g
         id="g890">
        <path
           style="fill:#ffffff;stroke:#000000;stroke-width:0.264583px;stroke-linecap:butt;stroke-linejoin:miter;stroke-opacity:1"
           d="m 102.86051,83.145151 -14.211093,71.701389 46.509013,10.33534 13.24215,-88.173329 -45.54007,6.1366"
           id="path859" />
        <g
           id="g7400"
           transform="matrix(1.7089924,0,0,1.7089924,-171.34884,-124.85346)">
          <path
             style="fill:none;stroke:#000000;stroke-width:0.264583px;stroke-linecap:butt;stroke-linejoin:miter;stroke-opacity:1"
             d="m 179.72768,94.683034 2.45684,0.377976 -5.29166,24.37946 10.20535,-1.32291 -7.74851,51.59375 -27.21429,-6.04762 8.31548,-41.95536 8.69345,-1.13393 -0.37797,-0.75595 6.42559,-1.5119 z"
             id="path7378" />
          <path
             style="fill:none;stroke:#000000;stroke-width:0.264583px;stroke-linecap:butt;stroke-linejoin:miter;stroke-opacity:1"
             d="m 169.14434,120.5744 7.74852,-1.13393"
             id="path7380" />
          <path
             style="fill:#a05a2c;stroke:#000000;stroke-width:0.264583px;stroke-linecap:butt;stroke-linejoin:miter;stroke-opacity:1"
             d="m 181.20874,157.88947 9.15398,32.40643 -2.33861,-0.60135 -7.684,-26.72696 z"
             id="path7382" />
          <path
             style="fill:#a05a2c;stroke:#000000;stroke-width:0.264583px;stroke-linecap:butt;stroke-linejoin:miter;stroke-opacity:1"
             d="m 152.86774,163.92355 -0.18898,0.87407 25.15904,5.66964 0.18898,-1.08668 -24.80468,-5.48066"
             id="path7384" />
          <path
             style="fill:none;stroke:#000000;stroke-width:0.264583px;stroke-linecap:butt;stroke-linejoin:miter;stroke-opacity:1"
             d="m 157.23809,165.97879 -10.29985,32.31697 1.6064,1.27567 7.70127,-23.8125 6.04762,2.4096 -0.14175,1.32291 2.07887,0.66146 0.33073,-1.08668 7.51228,2.55134 -2.55134,32.17522 2.78757,1.03944 2.55134,-32.22248 1.84264,0.75596 0.7087,-3.2128 -2.26785,-0.75595 0.51971,-9.16592 2.17337,0.23623 z"
             id="path7386" />
          <path
             style="fill:none;stroke:#000000;stroke-width:0.264583px;stroke-linecap:butt;stroke-linejoin:miter;stroke-opacity:1"
             d="m 159.17522,166.73474 -2.22061,6.75633 6.04762,2.26786 1.67727,-7.91388 z"
             id="path7388" />
          <path
             style="fill:none;stroke:#000000;stroke-width:0.264583px;stroke-linecap:butt;stroke-linejoin:miter;stroke-opacity:1"
             d="m 166.82924,168.24665 -1.72349,7.85056 7.24968,2.43883 0.80181,-8.78648 z"
             id="path7390" />
          <path
             style="fill:#a05a2c;stroke:#000000;stroke-width:0.154818px;stroke-linecap:butt;stroke-linejoin:miter;stroke-opacity:1"
             d="m 169.14434,120.5744 -0.37797,-0.75595 6.42559,-1.5119 4.53572,-23.623517 2.45684,0.377977 -5.29166,24.37946 -7.74852,1.13393"
             id="path7996" />
        </g>
        <path
           style="fill:#ff0000;stroke:#000000;stroke-width:0.264583px;stroke-linecap:butt;stroke-linejoin:miter;stroke-opacity:1"
           d="m 133.61458,91.281249 c -1.73342,4.811381 -4.07475,2.305145 -8.12649,0.755951 2.29542,7.325528 0.25807,5.215143 -4.53571,11.1503 6.48574,-4.577899 5.661,-2.28851 6.99256,4.53571 1.3863,-8.686802 1.58121,-7.08046 6.04762,-0.56696 -1.41675,-6.55205 -2.3987,-7.14001 3.96875,-8.504466 -3.35041,-0.866679 -6.79104,0.208828 -2.45685,-2.267858 -4.8249,0.850025 -2.95189,-1.385622 -1.88988,-5.102677 z"
           id="path7402"
           sodipodi:nodetypes="cccccccc" />
        <path
           style="fill:#0080ce;fill-opacity:1;stroke:#000000;stroke-width:0.402084px;stroke-linecap:butt;stroke-linejoin:miter;stroke-opacity:1"
           d="m 114.03136,152.76039 c 2.74676,-7.01234 6.4568,-3.35964 12.87713,-1.10176 -3.6373,-10.67658 -0.40894,-7.60081 7.18722,-16.25098 -10.27721,6.67205 -8.97034,3.33538 -11.08031,-6.61056 -2.19672,12.66056 -2.50557,10.3194 -9.58298,0.82631 2.24496,9.54927 3.80095,10.40619 -6.28882,12.39481 5.30901,1.26314 10.76098,-0.30435 3.89309,3.30529 7.64547,-1.23886 4.67752,2.01947 2.99467,7.43689 z"
           id="path7402-3"
           sodipodi:nodetypes="cccccccc" />
        <path
           style="fill:#8ed000;fill-opacity:1;stroke:#000000;stroke-width:0.264583px;stroke-linecap:butt;stroke-linejoin:miter;stroke-opacity:1"
           d="m 111.18323,106.14263 c -0.94002,5.02698 2.34772,4.05037 6.62629,4.76482 -5.6872,5.15635 -2.86197,4.36731 -1.73126,11.91238 -3.27689,-7.23077 -3.72424,-4.83883 -8.32643,0.37298 3.20077,-8.19376 2.21968,-6.90697 -4.92897,-3.54971 4.53791,-4.93395 5.68239,-4.94408 0.88119,-9.34347 3.32826,0.94816 5.7514,3.61707 3.26673,-0.71255 3.73115,3.17502 3.2472,0.2989 4.21245,-3.44445 z"
           id="path7402-7"
           sodipodi:nodetypes="cccccccc" />
        <path
           style="fill:#a05a2c;stroke:#000000;stroke-width:0.264583px;stroke-linecap:butt;stroke-linejoin:miter;stroke-opacity:1"
           d="m 97.369859,158.80303 3.310541,1.29191 -3.795006,11.54652 10.335336,3.87575 2.86644,-13.52476 3.67389,0.68634 -2.94543,13.41654 12.38965,4.16794 1.37029,-15.01602 4.28476,0.82282 -0.88818,15.66449 3.87574,1.29191 -1.21116,5.49066 -3.14906,-1.29194 -4.36022,55.06798 -4.76394,-1.7764 4.36023,-54.9872 -12.83843,-4.36022 -0.56522,1.85712 -3.55277,-1.13043 0.24225,-2.26084 -10.335338,-4.11799 -13.161412,40.69538 -2.745325,-2.18011 z"
           id="path7433" />
        <g
           id="g8040"
           transform="rotate(-32.770527,-73.508015,93.012912)">
          <path
             style="fill:#784421;stroke:#000000;stroke-width:0.264583px;stroke-linecap:butt;stroke-linejoin:miter;stroke-opacity:1"
             d="m 45.168155,67.27976 c -7.349739,34.70381 -4.971539,68.31002 -2.267857,103.1875 4.140181,3.2851 4.447789,3.09415 8.315476,0 0.535153,-34.92458 -0.04871,-68.2527 -6.047619,-103.1875 z"
             id="path7998"
             sodipodi:nodetypes="cccc" />
          <path
             style="fill:#999999;stroke:#000000;stroke-width:0.264583px;stroke-linecap:butt;stroke-linejoin:miter;stroke-opacity:1"
             d="m 42.900298,170.46726 0.188986,7.37054 c 3.490042,2.64514 4.600869,2.24299 8.315476,-1.13393 l -0.188986,-6.23661 c -3.346889,3.30009 -4.741672,2.94313 -8.315476,0 z"
             id="path8000"
             sodipodi:nodetypes="ccccc" />
          <path
             style="fill:#c87137;stroke:#000000;stroke-width:0.264583px;stroke-linecap:butt;stroke-linejoin:miter;stroke-opacity:1"
             d="m 51.40476,176.70387 c -4.614852,3.71726 -4.306073,3.62402 -8.315476,1.13393 -6.533617,21.60025 -2.142245,33.72041 13.230838,46.43199 -7.547147,-18.0141 4.742517,-35.80812 -4.915362,-47.56592 z"
             id="path8002"
             sodipodi:nodetypes="cccc" />
          <path
             style="fill:#8ed000;fill-opacity:1;stroke:none;stroke-width:0.264583px;stroke-linecap:butt;stroke-linejoin:miter;stroke-opacity:1"
             d="m 55.213351,192.13869 c -2.774734,3.79416 -5.870798,-2.54019 -8.164327,-1.9398 -3.071244,0.80398 -3.201223,7.7065 -6.832887,4.47689 0.0813,10.57538 4.205406,19.55513 16.103985,29.59401 -4.941269,-15.80913 -1.738769,-17.63379 -1.106771,-32.1311 z"
             id="path8002-5"
             sodipodi:nodetypes="csccc" />
          <path
             style="fill:#a05a2c;stroke:none;stroke-width:0.264583px;stroke-linecap:butt;stroke-linejoin:miter;stroke-opacity:1"
             d="M 44.790177,74.839284 C 40.03604,105.27029 42.024077,138.81795 44.412201,165.36458 42.180405,135.1353 43.88867,105.08984 44.790177,74.839284 Z"
             id="path8024"
             sodipodi:nodetypes="ccc" />
          <path
             style="fill:#f9f9f9;stroke:none;stroke-width:0.264583px;stroke-linecap:butt;stroke-linejoin:miter;stroke-opacity:1"
             d="m 43.490885,171.79018 2.031621,1.2048 -0.165364,5.4334 -1.81901,-0.89769 z"
             id="path8026" />
          <path
             style="fill:#d39b62;fill-opacity:1;stroke:none;stroke-width:0.264583px;stroke-linecap:butt;stroke-linejoin:miter;stroke-opacity:1"
             d="m 43.672462,179.78303 c 2.862308,2.48469 -2.018895,11.88344 0.26727,13.92977 -1.207305,1.85869 -1.350743,2.40708 -3.165552,1.41741 -0.179196,-5.35326 1.364195,-10.30471 2.898282,-15.34718 z"
             id="path8028"
             sodipodi:nodetypes="cccc" />
          <path
             style="fill:#abe518;fill-opacity:1;stroke:none;stroke-width:0.264583px;stroke-linecap:butt;stroke-linejoin:miter;stroke-opacity:1"
             d="m 43.939732,193.7128 c 1.699502,-0.22897 1.151207,13.77659 5.872625,20.57055 l 4.677217,7.55035 c -8.365707,-8.59527 -11.735146,-16.36777 -13.715394,-26.70349 2.066067,0.82784 1.835098,0.24424 3.165552,-1.41741"
             id="path8030"
             sodipodi:nodetypes="ccccc" />
        </g>
        <path
           style="fill:#c87137;stroke:none;stroke-width:0.264583px;stroke-linecap:butt;stroke-linejoin:miter;stroke-opacity:1"
           d="m 136.4494,38.931548 1.6064,0.566962 -7.65402,37.608632 z"
           id="path8042" />
        <path
           style="fill:#c87137;stroke:none;stroke-width:0.40455px;stroke-linecap:butt;stroke-linejoin:miter;stroke-opacity:1"
           d="m 97.369859,158.80303 3.310541,1.29191 -20.912905,53.93755 z"
           id="path8042-3"
           sodipodi:nodetypes="cccc" />
        <path
           style="fill:#c87137;stroke:none;stroke-width:0.566848px;stroke-linecap:butt;stroke-linejoin:miter;stroke-opacity:1"
           d="m 128.86033,166.07007 -4.28476,-0.82282 -6.30838,75.15796 z"
           id="path8042-3-1"
           sodipodi:nodetypes="cccc" />
        <path
           style="fill:#c87137;stroke:none;stroke-width:0.266159px;stroke-linecap:butt;stroke-linejoin:miter;stroke-opacity:1"
           d="m 113.76106,162.67879 -3.67389,-0.68634 -4.31985,19.9036 z"
           id="path8042-3-1-4"
           sodipodi:nodetypes="cccc" />
        <path
           style="fill:#c87137;stroke:none;stroke-width:0.266159px;stroke-linecap:butt;stroke-linejoin:miter;stroke-opacity:1"
           d="m 138.33552,144.97844 -1.48448,8.67847 13.1319,45.67617 z"
           id="path8042-3-1-4-8"
           sodipodi:nodetypes="cccc" />
        <path
           style="fill:#c87137;stroke:none;stroke-width:0.266159px;stroke-linecap:butt;stroke-linejoin:miter;stroke-opacity:1"
           d="m 93.955208,170.08425 -1.500527,4.69982 38.182049,13.73306 z"
           id="path8042-3-1-4-3"
           sodipodi:nodetypes="cccc" />
      </g>
    </g>
  </g>
</svg>
