<?xml version="1.0" encoding="UTF-8" standalone="no"?>
<svg
   xmlns:dc="http://purl.org/dc/elements/1.1/"
   xmlns:cc="http://creativecommons.org/ns#"
   xmlns:rdf="http://www.w3.org/1999/02/22-rdf-syntax-ns#"
   xmlns:svg="http://www.w3.org/2000/svg"
   xmlns="http://www.w3.org/2000/svg"
   xmlns:sodipodi="http://sodipodi.sourceforge.net/DTD/sodipodi-0.dtd"
   xmlns:inkscape="http://www.inkscape.org/namespaces/inkscape"
   width="210mm"
   height="297mm"
   viewBox="0 0 210 297"
   version="1.1"
   id="svg1726"
   inkscape:version="1.0.2-2 (e86c870879, 2021-01-15)"
   sodipodi:docname="Biologie.svg">
  <defs
     id="defs1720" />
  <sodipodi:namedview
     id="base"
     pagecolor="#ffffff"
     bordercolor="#666666"
     borderopacity="1.0"
     inkscape:pageopacity="0.0"
     inkscape:pageshadow="2"
     inkscape:zoom="0.7"
     inkscape:cx="458.18214"
     inkscape:cy="428.88418"
     inkscape:document-units="mm"
     inkscape:current-layer="g12770"
     inkscape:document-rotation="0"
     showgrid="false"
     inkscape:window-width="1680"
     inkscape:window-height="987"
     inkscape:window-x="1272"
     inkscape:window-y="-8"
     inkscape:window-maximized="1" />
  <metadata
     id="metadata1723">
    <rdf:RDF>
      <cc:Work
         rdf:about="">
        <dc:format>image/svg+xml</dc:format>
        <dc:type
           rdf:resource="http://purl.org/dc/dcmitype/StillImage" />
        <dc:title></dc:title>
      </cc:Work>
    </rdf:RDF>
  </metadata>
  <g
     inkscape:label="Ebene 1"
     inkscape:groupmode="layer"
     id="layer1">
    <g
       id="g12770">
      <g
         id="g12795"
         transform="rotate(29.627111,108.66816,145.41417)">
        <path
           style="fill:#000000;stroke:none;stroke-width:0.264583px;stroke-linecap:butt;stroke-linejoin:miter;stroke-opacity:1"
           d="m 140.22916,54.011473 c -18.48765,-5.09014 -26.91457,8.85371 -32.50595,28.34821 9.20416,-16.17108 14.84451,-19.35436 32.50595,-28.34821 z"
           id="path2331-6"
           sodipodi:nodetypes="ccc" />
        <path
           style="fill:#000000;stroke:none;stroke-width:0.264583px;stroke-linecap:butt;stroke-linejoin:miter;stroke-opacity:1"
           d="m 75.217262,54.011473 c 18.487652,-5.09014 26.914568,8.85371 32.505948,28.34821 -9.20415,-16.17108 -14.8445,-19.35436 -32.505948,-28.34821 z"
           id="path2331-37-9"
           sodipodi:nodetypes="ccc" />
        <path
           style="fill:#000000;stroke:none;stroke-width:0.264583px;stroke-linecap:butt;stroke-linejoin:miter;stroke-opacity:1"
           d="M 62.744048,150.01743 C 44.256396,144.92729 35.829476,158.87114 30.238095,178.36564 39.44225,162.19456 45.0826,159.01128 62.744048,150.01743 Z"
           id="path2331-3"
           sodipodi:nodetypes="ccc" />
        <path
           style="fill:#000000;stroke:none;stroke-width:0.264583px;stroke-linecap:butt;stroke-linejoin:miter;stroke-opacity:1"
           d="m 65.767857,170.05017 c -18.487652,-5.09014 -26.914572,8.85371 -32.505953,28.34821 9.204155,-16.17108 14.844505,-19.35436 32.505953,-28.34821 z"
           id="path2331-1"
           sodipodi:nodetypes="ccc" />
        <path
           style="fill:#000000;stroke:none;stroke-width:0.264583px;stroke-linecap:butt;stroke-linejoin:miter;stroke-opacity:1"
           d="m 154.59226,169.67219 c 18.48766,-5.09014 26.91458,8.85371 32.50596,28.34821 -9.20416,-16.17108 -14.84451,-19.35436 -32.50596,-28.34821 z"
           id="path2331-37-8"
           sodipodi:nodetypes="ccc" />
        <path
           style="fill:#000000;stroke:none;stroke-width:0.264583px;stroke-linecap:butt;stroke-linejoin:miter;stroke-opacity:1"
           d="m 152.3244,148.12754 c 18.48766,-5.09014 26.91458,8.85371 32.50596,28.34821 -9.20416,-16.17108 -14.84451,-19.35436 -32.50596,-28.34821 z"
           id="path2331-37-5"
           sodipodi:nodetypes="ccc" />
        <path
           style="fill:#000000;stroke:none;stroke-width:0.264583px;stroke-linecap:butt;stroke-linejoin:miter;stroke-opacity:1"
           d="m 153.83631,127.33886 c 18.48765,-5.09014 26.91457,8.85371 32.50595,28.34821 -9.20415,-16.17108 -14.8445,-19.35436 -32.50595,-28.34821 z"
           id="path2331-37"
           sodipodi:nodetypes="ccc" />
        <path
           style="fill:#000000;stroke:none;stroke-width:0.264583px;stroke-linecap:butt;stroke-linejoin:miter;stroke-opacity:1"
           d="M 64.633928,127.75595 C 46.146276,122.66581 37.719356,136.60966 32.127975,156.10416 41.33213,139.93308 46.97248,136.7498 64.633928,127.75595 Z"
           id="path2331"
           sodipodi:nodetypes="ccc" />
        <path
           style="fill:#333333;stroke:none;stroke-width:0.251183px;stroke-linecap:butt;stroke-linejoin:miter;stroke-opacity:1"
           d="m 160.08335,192.16679 c -22.2586,55.15572 -23.44413,51.01498 -48.89923,35.81411 21.23047,-1.19833 36.9025,-11.98813 48.89923,-35.81411 z"
           id="path1748-6"
           sodipodi:nodetypes="ccc" />
        <path
           style="fill:#333333;stroke:none;stroke-width:0.264583px;stroke-linecap:butt;stroke-linejoin:miter;stroke-opacity:1"
           d="M 56.928408,192.16679 C 81.625239,247.32251 82.940635,243.18177 111.18412,227.9809 87.628046,226.78257 70.239264,215.99277 56.928408,192.16679 Z"
           id="path1748"
           sodipodi:nodetypes="ccc" />
        <ellipse
           style="fill:#000000;stroke-width:1"
           id="path1730"
           cx="110.11504"
           cy="83.3881"
           rx="29.399649"
           ry="23.519718" />
        <ellipse
           style="fill:#d40000;stroke-width:1"
           id="path1728"
           cx="109.31324"
           cy="159.29263"
           rx="59.066566"
           ry="68.955536" />
        <ellipse
           style="fill:#000000;stroke-width:1"
           id="path1732"
           cx="77.240891"
           cy="146.19644"
           rx="5.0781207"
           ry="5.6126599" />
        <ellipse
           style="fill:#000000;stroke-width:1"
           id="path1734"
           cx="127.48756"
           cy="142.18739"
           rx="5.6126599"
           ry="5.3453903" />
        <circle
           style="fill:#000000;stroke-width:1"
           id="path1736"
           cx="86.595337"
           cy="182.27782"
           r="5.8799295" />
        <ellipse
           style="fill:#000000;stroke-width:1"
           id="path1738"
           cx="91.138908"
           cy="107.97688"
           rx="5.6126599"
           ry="5.3453903" />
        <ellipse
           style="fill:#000000;stroke-width:1"
           id="path1740"
           cx="140.3165"
           cy="182.81235"
           rx="6.6817379"
           ry="5.3453903" />
        <ellipse
           style="fill:#000000;stroke-width:1.00638"
           id="path1742"
           cx="110.91684"
           cy="159.09956"
           rx="4.0090427"
           ry="69.297012" />
        <ellipse
           style="fill:#000000;stroke-width:1"
           id="path1744"
           cx="137.91107"
           cy="119.73675"
           rx="4.8108511"
           ry="4.2763124" />
        <circle
           style="fill:#ffffff;stroke:none;stroke-width:1"
           id="path2429"
           cx="120.5744"
           cy="72.571426"
           r="3.4017856" />
        <ellipse
           style="fill:#ffffff;stroke:none;stroke-width:1"
           id="path2431"
           cx="99.21875"
           cy="73.327377"
           rx="3.2127976"
           ry="3.7797618" />
        <path
           style="fill:#ffffff;stroke:none;stroke-width:0.264583px;stroke-linecap:butt;stroke-linejoin:miter;stroke-opacity:1"
           d="m 56.318451,157.23809 c -6.845461,5.82905 7.735476,52.90363 20.410714,54.42857 -7.322197,-16.35588 -18.898808,-35.56887 -20.410714,-54.42857 z"
           id="path2433"
           sodipodi:nodetypes="ccc" />
        <path
           style="fill:#ffffff;stroke:none;stroke-width:0.236813px;stroke-linecap:butt;stroke-linejoin:miter;stroke-opacity:1"
           d="m 81.842819,102.87876 c -6.164234,-2.928768 -31.085805,34.50407 -25.139895,42.38571 7.931004,-17.50852 10.379928,-28.58496 25.139895,-42.38571 z"
           id="path2433-2"
           sodipodi:nodetypes="ccc" />
      </g>
    </g>
  </g>
</svg>
