<?xml version="1.0" encoding="UTF-8" standalone="no"?>
<svg
   xmlns:dc="http://purl.org/dc/elements/1.1/"
   xmlns:cc="http://creativecommons.org/ns#"
   xmlns:rdf="http://www.w3.org/1999/02/22-rdf-syntax-ns#"
   xmlns:svg="http://www.w3.org/2000/svg"
   xmlns="http://www.w3.org/2000/svg"
   xmlns:sodipodi="http://sodipodi.sourceforge.net/DTD/sodipodi-0.dtd"
   xmlns:inkscape="http://www.inkscape.org/namespaces/inkscape"
   width="210mm"
   height="297mm"
   viewBox="0 0 210 297"
   version="1.1"
   id="svg8"
   sodipodi:docname="Globus.svg"
   inkscape:version="1.0.2-2 (e86c870879, 2021-01-15)">
  <defs
     id="defs2" />
  <sodipodi:namedview
     id="base"
     pagecolor="#ffffff"
     bordercolor="#666666"
     borderopacity="1.0"
     inkscape:pageopacity="0.0"
     inkscape:pageshadow="2"
     inkscape:zoom="0.66468037"
     inkscape:cx="704.06471"
     inkscape:cy="578.31144"
     inkscape:document-units="mm"
     inkscape:current-layer="layer1"
     inkscape:document-rotation="0"
     showgrid="false"
     inkscape:window-width="1680"
     inkscape:window-height="987"
     inkscape:window-x="1272"
     inkscape:window-y="-8"
     inkscape:window-maximized="1" />
  <metadata
     id="metadata5">
    <rdf:RDF>
      <cc:Work
         rdf:about="">
        <dc:format>image/svg+xml</dc:format>
        <dc:type
           rdf:resource="http://purl.org/dc/dcmitype/StillImage" />
        <dc:title></dc:title>
      </cc:Work>
    </rdf:RDF>
  </metadata>
  <g
     inkscape:label="Ebene 1"
     inkscape:groupmode="layer"
     id="layer1">
    <g
       id="g16898">
      <path
         style="fill:none;stroke:#000000;stroke-width:3.165;stroke-linecap:butt;stroke-linejoin:miter;stroke-miterlimit:4;stroke-dasharray:none;stroke-opacity:1"
         d="M 91.571634,178.24063 128.97177,48.68909 c 99.38001,19.703322 46.48476,167.02845 -37.400136,129.55154 z"
         id="path24"
         sodipodi:nodetypes="ccc" />
      <circle
         style="fill:#2a7fff;fill-rule:evenodd;stroke-width:0.264583"
         id="path10"
         cx="108.86818"
         cy="112.98855"
         r="60" />
      <path
         style="fill:#5fd35f;stroke:#000000;stroke-width:0.206867px;stroke-linecap:butt;stroke-linejoin:miter;stroke-opacity:1"
         d="m 105.8629,90.784187 8.15985,-0.881654 c 4.83953,4.353029 6.50979,5.035984 12.0176,6.077142 l 2.99045,6.940805 4.24762,-1.27824 5.83474,4.2433 -1.13717,5.46035 0.10281,13.63848 -0.19133,-0.35972 4.86702,0.8153 -5.90731,7.15078 -4.89593,1.08401 -4.69487,3.1869 -0.98217,4.52648 -2.30748,5.31652 -5.1854,2.60485 -3.94439,4.6769 -4.23282,-0.49165 -4.7603,1.40852 -5.38089,0.84409 -2.763516,-5.22917 -3.274463,-3.38561 c -1.765598,-4.98778 -2.887607,-9.97557 8.098269,-14.96335 l 5.7396,-6.06357 -0.22012,-4.97933 v 0 0 l -3.34933,-6.46504 -11.163002,-1.90953 -3.260701,-5.45621 -0.09535,-6.33977 2.94396,-5.165859 1.846081,-3.83161 6.196202,-4.869394 z"
         id="path14"
         sodipodi:nodetypes="ccccccccccccccccccccccccccccccccccc" />
      <path
         style="fill:#5fd35f;stroke:#000000;stroke-width:0.264583px;stroke-linecap:butt;stroke-linejoin:miter;stroke-opacity:1;fill-opacity:1"
         d="m 109.06871,74.636436 -3.18449,4.179641 1.39322,4.975762 4.77673,1.990305 5.17479,-2.786428 4.17964,-2.388365 3.18449,1.791275 1.19418,5.970915 -0.79612,1.791274 h -3.38352 l 5.97092,1.194184 -1.59224,-8.956373 6.36897,2.388367 0.99515,6.368976 3.18449,1.393211 5.37383,-0.398061 1.9903,1.592244 0.39806,2.985458 1.9903,2.985458 -7.17425,6.171261 1.99946,13.33373 -1.9903,1.9903 8.16025,0.99515 7.36413,-3.18448 10.34958,-8.55831 -3.98061,-3.98061 -7.1651,-12.339896 3.18449,-2.388365 2.98546,1.194184 2.78643,9.553467 5.82164,4.97576 C 166.37844,90.267933 160.96674,78.407474 145.44153,65.53079 l -11.09594,3.13473 -3.78159,-6.966066 -8.95637,-0.796123 -2.18933,4.577701 1.59224,3.781582 4.17964,-1.592244 4.17964,-0.398063 -1.39321,4.776731 -5.17479,0.796124 -3.98061,-1.393214 -2.18934,1.393214 -4.97576,-0.995154 z"
         id="path16"
         sodipodi:nodetypes="ccccccccccccccccccccccccccccccccccccccccccccc" />
      <path
         style="fill:#5fd35f;stroke:#000000;stroke-width:0.264583px;stroke-linecap:butt;stroke-linejoin:miter;stroke-opacity:1;fill-opacity:1"
         d="m 51.349869,96.13173 3.980609,5.17479 -1.990304,4.17964 3.383518,1.99031 -0.796123,3.38352 -3.781579,1.79127 5.771886,4.17964 6.368976,2.78643 1.592243,4.5777 -5.373825,6.56801 1.393214,4.37867 -3.781578,5.37382 1.542486,6.76704 C 48.919219,132.37925 46.666708,111.78921 51.349869,96.13173 Z"
         id="path18"
         sodipodi:nodetypes="cccccccccccccc" />
      <path
         style="fill:#5fd35f;stroke:#000000;stroke-width:0.264583px;stroke-linecap:butt;stroke-linejoin:miter;stroke-opacity:1;fill-opacity:1"
         d="m 137.13201,142.9039 -4.97576,4.77673 -0.39806,-2.18934 -3.18449,6.16995 -1.79127,3.98061 1.59224,1.9903 3.18449,-4.37867 5.57285,-6.568 z"
         id="path20" />
      <rect
         style="fill:#000000;fill-opacity:1;stroke-width:3.165;stroke-miterlimit:4;stroke-dasharray:none"
         id="rect849"
         width="5.9709148"
         height="14.330195"
         x="114.64157"
         y="185.49641" />
      <rect
         style="fill:#000000;fill-opacity:1;stroke-width:3.165;stroke-miterlimit:4;stroke-dasharray:none"
         id="rect851"
         width="46.175076"
         height="8.7573414"
         x="94.340454"
         y="196.24408" />
      <path
         style="fill:#c83737;stroke:#000000;stroke-width:0.264583px;stroke-linecap:butt;stroke-linejoin:miter;stroke-opacity:1"
         d="M 87.175357,82.597656 C 94.646811,88.185728 97.601982,96.48357 102.69974,103.49586 101.30225,94.593164 97.691149,87.719611 99.117189,76.228679 96.4483,65.697098 80.974177,71.604287 87.175357,82.597656 Z"
         id="path855"
         sodipodi:nodetypes="cccc" />
      <ellipse
         style="fill:#c83737;fill-opacity:1;stroke:#000000;stroke-width:1.165;stroke-miterlimit:4;stroke-dasharray:none;stroke-opacity:1"
         id="path859"
         cx="92.200874"
         cy="77.373108"
         rx="3.7318218"
         ry="3.6323066" />
      <path
         style="fill:#c83737;stroke:#000000;stroke-width:0.264583px;stroke-linecap:butt;stroke-linejoin:miter;stroke-opacity:1"
         d="m 152.1657,84.454362 c 0.26083,9.326364 -4.40711,16.796138 -6.73677,25.146718 6.10944,-6.62463 9.25372,-13.72388 19.14533,-19.743113 6.59641,-8.632757 -7.64408,-17.091573 -12.40856,-5.403605 z"
         id="path855-7"
         sodipodi:nodetypes="cccc" />
      <ellipse
         style="fill:#c83737;fill-opacity:1;stroke:#000000;stroke-width:1.165;stroke-miterlimit:4;stroke-dasharray:none;stroke-opacity:1"
         id="path859-6"
         cx="165.72414"
         cy="-72.029434"
         rx="3.7318218"
         ry="3.6323066"
         transform="rotate(51.604372)" />
      <path
         style="fill:#c83737;stroke:#000000;stroke-width:0.264583px;stroke-linecap:butt;stroke-linejoin:miter;stroke-opacity:1"
         d="m 136.1785,123.41392 c 1.53109,9.20353 -2.07383,17.24043 -3.24216,25.83079 5.14828,-7.39636 7.29435,-14.85828 16.27202,-22.17104 5.35666,-9.45216 -9.90494,-15.88855 -13.02986,-3.65975 z"
         id="path855-71"
         sodipodi:nodetypes="cccc" />
      <ellipse
         style="fill:#c83737;fill-opacity:1;stroke:#000000;stroke-width:1.165;stroke-miterlimit:4;stroke-dasharray:none;stroke-opacity:1"
         id="path859-4"
         cx="188.7373"
         cy="-10.279775"
         rx="3.7318218"
         ry="3.6323066"
         transform="rotate(43.761162)" />
      <path
         style="fill:#ffffff;stroke:none;stroke-width:0.264583px;stroke-linecap:butt;stroke-linejoin:miter;stroke-opacity:1;fill-opacity:0.59615386"
         d="M 57.320783,92.35015 C 62.007486,79.676809 68.693361,71.693111 76.934196,66.5652 85.625424,61.157028 96.046226,58.925333 107.6755,57.718843 79.737057,64.290734 70.357357,75.810996 57.320783,92.35015 Z"
         id="path921"
         sodipodi:nodetypes="cscc" />
      <path
         style="fill:#ffffff;stroke:none;stroke-width:0.185464px;stroke-linecap:butt;stroke-linejoin:miter;stroke-opacity:1;fill-opacity:0.59615386"
         d="m 100.41142,169.64456 c -19.842161,-0.88148 -40.752028,-22.36199 -34.532326,-25.74551 12.729126,16.12016 20.42856,20.65666 34.532326,25.74551 z"
         id="path921-0"
         sodipodi:nodetypes="ccc" />
    </g>
  </g>
</svg>
